<svg xmlns="http://www.w3.org/2000/svg" viewBox="0 0 521.3 515.53"><defs><style>.cls-1{fill:#912614;}.cls-2{fill:#fdd6ad;}.cls-3{fill:#b08310;}.cls-4{fill:#1e1e1e;}.cls-5{fill:#666;}.cls-6{fill:#0f5573;}.cls-7{fill:#253846;}.cls-8{fill:#f5eeda;}</style></defs><g id="Layer_2" data-name="Layer 2"><g id="Layer_1-2" data-name="Layer 1"><ellipse class="cls-1" cx="141.42" cy="304.17" rx="141.42" ry="171.9"/><path class="cls-1" d="M231.09,102c0-60.19-40.15-102-89.67-102S51.76,41.78,51.76,102s40.15,109,89.66,109S231.09,162.16,231.09,102Z"/><circle class="cls-2" cx="140.8" cy="84.86" r="68.13"/><path class="cls-3" d="M280.7,274.22c-3.53.29-7.1.45-10.71.45a128.6,128.6,0,0,1-127.2-109.81h-2.73A128.6,128.6,0,0,1,12.86,274.67c-3.61,0-7.18-.16-10.72-.45A210.21,210.21,0,0,0,0,304.17c0,94.94,63.32,171.9,141.42,171.9s141.43-77,141.43-171.9A208.75,208.75,0,0,0,280.7,274.22Z"/><path class="cls-4" d="M149.94,356.42h-.08c-5.19.15-10.4.23-15.5.24a5.26,5.26,0,0,1-.17-10.52h.14c5,0,10.16-.09,15.26-.24h.16a5.26,5.26,0,0,1,.19,10.52Z"/><path class="cls-4" d="M165.38,355.78a5.26,5.26,0,0,1-.43-10.51c5.13-.28,10.27-.63,15.28-1a5.26,5.26,0,0,1,.86,10.49c-5.11.42-10.35.77-15.57,1.06Z"/><path class="cls-4" d="M119,356.49h-.28c-5.25-.13-10.5-.34-15.6-.61a5.26,5.26,0,0,1,.57-10.51c5,.27,10.14.47,15.29.6a5.26,5.26,0,0,1,0,10.52Z"/><path class="cls-4" d="M196.19,353.26a5.26,5.26,0,0,1-.73-10.49c5.14-.57,10.24-1.22,15.17-1.92a5.26,5.26,0,1,1,1.49,10.41c-5,.73-10.25,1.39-15.5,2A3.11,3.11,0,0,1,196.19,353.26Z"/><path class="cls-4" d="M88.18,354.81c-.2,0-.4,0-.61,0-5.32-.46-10.55-1-15.57-1.64a5.26,5.26,0,0,1,1.31-10.44c4.88.61,10,1.15,15.17,1.6a5.26,5.26,0,0,1-.3,10.5Z"/><path class="cls-4" d="M226.77,348.83a5.26,5.26,0,0,1-1.09-10.44c5.18-.94,10.19-2,14.9-3.07A5.26,5.26,0,0,1,243,345.57c-4.88,1.13-10.05,2.2-15.38,3.17A5.58,5.58,0,0,1,226.77,348.83Z"/><path class="cls-4" d="M57.52,350.93a5.35,5.35,0,0,1-1.05-.07c-5.47-.95-10.68-2-15.47-3.16a5.26,5.26,0,0,1,2.45-10.23c4.57,1.1,9.56,2.11,14.81,3a5.26,5.26,0,0,1-.74,10.44Z"/><path class="cls-4" d="M256.85,341.76a5.26,5.26,0,0,1-1.66-10.3,147.21,147.21,0,0,0,14.07-4.94,5.26,5.26,0,0,1,4.05,9.71,156.48,156.48,0,0,1-15.09,5.31A5,5,0,0,1,256.85,341.76Z"/><path class="cls-4" d="M27.53,343.56a5.15,5.15,0,0,1-1.89-.29,75.84,75.84,0,0,1-15.07-6.94,5.26,5.26,0,1,1,5.59-8.91,65.86,65.86,0,0,0,13,5.92,5.26,5.26,0,0,1-1.59,10.22Z"/><path class="cls-5" d="M269.58,484.26H13.27A7.8,7.8,0,0,1,6.1,473.39l23.39-54.58a7.79,7.79,0,0,1,7.17-4.72H246.19a7.79,7.79,0,0,1,7.17,4.72l23.39,54.58A7.8,7.8,0,0,1,269.58,484.26Z"/><path class="cls-6" d="M180.73,180.31C196,195.6,196.17,210,196.17,220.24c-9.35,0-24.63-.15-39.93-15.45s-15.44-29.44-15.44-39.93C152.73,164.86,165.43,165,180.73,180.31Z"/><path class="cls-6" d="M125.35,204.79c-15.3,15.3-29.66,15.45-39.93,15.45,0-9.35.15-24.64,15.44-39.93s29.45-15.45,39.94-15.45C140.8,176.79,140.64,189.5,125.35,204.79Z"/><path class="cls-3" d="M182.7,24c17.53,12.67,20,26.83,21.59,37-9.24,1.49-24.35,3.76-41.88-8.91s-19.92-26.63-21.59-37C152.61,13.21,165.18,11.35,182.7,24Z"/><path class="cls-3" d="M99.14,24c-17.53,12.67-20,26.83-21.59,37,9.24,1.49,24.35,3.76,41.88-8.91s19.92-26.63,21.58-37C129.23,13.21,116.66,11.35,99.14,24Z"/><ellipse class="cls-1" cx="441.75" cy="363.38" rx="79.55" ry="96.69"/><path class="cls-1" d="M492.19,249.64c0-33.85-22.58-57.36-50.44-57.36s-50.43,23.51-50.43,57.36S413.9,311,441.75,311,492.19,283.5,492.19,249.64Z"/><circle class="cls-2" cx="441.4" cy="240.02" r="38.32"/><path class="cls-3" d="M520.1,346.53q-3,.25-6,.25A72.33,72.33,0,0,1,442.52,285H441a72.32,72.32,0,0,1-71.55,61.76q-3,0-6-.25a117.87,117.87,0,0,0-1.21,16.85c0,53.4,35.62,96.69,79.55,96.69s79.55-43.29,79.55-96.69A117.88,117.88,0,0,0,520.1,346.53Z"/><path class="cls-4" d="M446.54,392.77h-.05c-2.91.08-5.85.13-8.71.13a3,3,0,0,1-.1-5.91h.08c2.83,0,5.72-.06,8.59-.14h.09a3,3,0,0,1,.1,5.92Z"/><path class="cls-4" d="M455.23,392.41a3,3,0,0,1-.24-5.91c2.88-.16,5.77-.35,8.59-.58a3,3,0,1,1,.48,5.89c-2.87.24-5.82.44-8.75.6Z"/><path class="cls-4" d="M429.16,392.81H429c-2.95-.08-5.9-.19-8.77-.35a3,3,0,1,1,.32-5.91c2.81.16,5.7.27,8.6.34a3,3,0,0,1,0,5.92Z"/><path class="cls-4" d="M472.56,391a3,3,0,0,1-.41-5.9c2.89-.32,5.76-.68,8.53-1.08a3,3,0,1,1,.84,5.86c-2.83.4-5.77.78-8.72,1.1Z"/><path class="cls-4" d="M411.8,391.86a2,2,0,0,1-.34,0c-3-.26-5.94-.57-8.76-.92a3,3,0,1,1,.74-5.87c2.74.34,5.61.64,8.53.9a3,3,0,0,1-.17,5.9Z"/><path class="cls-4" d="M489.76,388.5a3,3,0,0,1-.61-5.87c2.91-.53,5.73-1.11,8.38-1.73a3,3,0,1,1,1.33,5.77c-2.74.63-5.65,1.23-8.65,1.78A3.44,3.44,0,0,1,489.76,388.5Z"/><path class="cls-4" d="M394.56,389.68a2.31,2.31,0,0,1-.59,0c-3.08-.53-6-1.13-8.71-1.77a3,3,0,1,1,1.38-5.76c2.57.62,5.38,1.19,8.33,1.7a3,3,0,0,1-.41,5.87Z"/><path class="cls-4" d="M506.68,384.53a3,3,0,0,1-.93-5.8c2.93-.88,5.59-1.82,7.91-2.78a3,3,0,0,1,2.28,5.46,87.08,87.08,0,0,1-8.49,3A2.89,2.89,0,0,1,506.68,384.53Z"/><path class="cls-4" d="M377.69,385.54a3.07,3.07,0,0,1-1.07-.17,43.13,43.13,0,0,1-8.48-3.9,3,3,0,0,1,3.15-5,36.5,36.5,0,0,0,7.29,3.33,3,3,0,0,1-.89,5.76Z"/><path class="cls-5" d="M513.84,464.68H369.66a4.39,4.39,0,0,1-4-6.12l13.16-30.7a4.38,4.38,0,0,1,4-2.65H500.68a4.37,4.37,0,0,1,4,2.65l13.16,30.7A4.39,4.39,0,0,1,513.84,464.68Z"/><path class="cls-6" d="M463.86,293.71c8.6,8.6,8.69,16.68,8.69,22.46-5.26,0-13.86-.09-22.46-8.69S441.4,290.92,441.4,285C448.11,285,455.26,285.11,463.86,293.71Z"/><path class="cls-6" d="M432.71,307.48c-8.6,8.6-16.68,8.69-22.46,8.69,0-5.26.08-13.86,8.69-22.46S435.5,285,441.4,285C441.4,291.73,441.31,298.88,432.71,307.48Z"/><path class="cls-3" d="M465,205.79c9.86,7.13,11.23,15.1,12.14,20.8-5.19.84-13.7,2.11-23.55-5s-11.21-15-12.15-20.8C448,199.71,455.11,198.67,465,205.79Z"/><path class="cls-3" d="M418,205.79c-9.85,7.13-11.22,15.1-12.14,20.8,5.2.84,13.7,2.11,23.56-5s11.2-15,12.14-20.8C434.89,199.71,427.82,198.67,418,205.79Z"/><ellipse class="cls-7" cx="302.24" cy="380.47" rx="106.07" ry="128.93"/><path class="cls-7" d="M369.49,228.82c0-45.14-30.11-76.48-67.25-76.48S235,183.68,235,228.82s30.1,81.74,67.24,81.74S369.49,274,369.49,228.82Z"/><circle class="cls-2" cx="301.77" cy="215.99" r="51.09"/><path class="cls-1" d="M406.7,358q-4,.33-8,.33A96.44,96.44,0,0,1,303.27,276h-2a96.44,96.44,0,0,1-95.4,82.35q-4.06,0-8-.33a157.59,157.59,0,0,0-1.61,22.46c0,71.21,47.49,128.93,106.07,128.93s106.07-57.72,106.07-128.93A156.14,156.14,0,0,0,406.7,358Z"/><path class="cls-8" d="M308.63,419.66h-.06c-3.89.11-7.8.17-11.63.18a3.95,3.95,0,0,1-.12-7.89h.1c3.77,0,7.62-.07,11.45-.18h.12a3.95,3.95,0,0,1,.14,7.89Z"/><path class="cls-8" d="M320.21,419.18a3.94,3.94,0,0,1-.32-7.88c3.84-.21,7.7-.47,11.46-.78a3.94,3.94,0,0,1,.64,7.86c-3.83.32-7.76.58-11.67.8Z"/><path class="cls-8" d="M285.46,419.71h-.22c-3.93-.1-7.87-.25-11.69-.46a3.95,3.95,0,1,1,.42-7.88c3.75.2,7.61.35,11.47.45a3.95,3.95,0,0,1,0,7.89Z"/><path class="cls-8" d="M343.31,417.29a3.95,3.95,0,0,1-.54-7.87c3.85-.43,7.68-.91,11.37-1.44a3.95,3.95,0,1,1,1.13,7.81c-3.78.54-7.69,1-11.63,1.48Z"/><path class="cls-8" d="M262.31,418.45a3.39,3.39,0,0,1-.45,0c-4-.34-7.92-.75-11.68-1.22a3.95,3.95,0,1,1,1-7.83c3.66.45,7.48.86,11.38,1.19a3.95,3.95,0,0,1-.23,7.88Z"/><path class="cls-8" d="M366.25,414a3.94,3.94,0,0,1-.81-7.82c3.88-.71,7.64-1.49,11.17-2.31a3.95,3.95,0,0,1,1.78,7.69c-3.65.85-7.53,1.65-11.53,2.38A3.23,3.23,0,0,1,366.25,414Z"/><path class="cls-8" d="M239.32,415.54a4.2,4.2,0,0,1-.79-.05c-4.11-.71-8-1.51-11.61-2.37a3.94,3.94,0,0,1,1.84-7.67c3.43.82,7.17,1.58,11.11,2.26a3.94,3.94,0,0,1-.55,7.83Z"/><path class="cls-8" d="M388.82,408.67a4,4,0,0,1-1.25-7.73,108,108,0,0,0,10.55-3.71,3.95,3.95,0,1,1,3,7.29,117.4,117.4,0,0,1-11.31,4A4,4,0,0,1,388.82,408.67Z"/><path class="cls-8" d="M216.82,410a3.62,3.62,0,0,1-1.41-.22,56.27,56.27,0,0,1-11.31-5.2,3.95,3.95,0,0,1,4.2-6.69,48.56,48.56,0,0,0,9.71,4.44,3.95,3.95,0,0,1-1.19,7.67Z"/><path class="cls-5" d="M398.36,515.53H206.12a5.85,5.85,0,0,1-5.37-8.15l17.54-40.93a5.85,5.85,0,0,1,5.38-3.54H380.82a5.83,5.83,0,0,1,5.37,3.54l17.55,40.93A5.85,5.85,0,0,1,398.36,515.53Z"/><path class="cls-6" d="M331.72,287.58c11.47,11.46,11.59,22.24,11.59,29.94-7,0-18.48-.11-29.95-11.58S301.77,283.85,301.77,276C310.72,276,320.25,276.11,331.72,287.58Z"/><path class="cls-6" d="M290.19,305.94c-11.47,11.47-22.25,11.58-29.95,11.58,0-7,.11-18.48,11.58-29.94S293.91,276,301.77,276C301.77,284.94,301.66,294.47,290.19,305.94Z"/><path class="cls-3" d="M333.2,170.36c13.14,9.5,15,20.12,16.19,27.73-6.93,1.11-18.26,2.82-31.41-6.69s-14.94-20-16.19-27.73C310.63,162.25,320.06,160.85,333.2,170.36Z"/><path class="cls-3" d="M270.53,170.36c-13.15,9.5-15,20.12-16.19,27.73,6.92,1.11,18.26,2.82,31.4-6.69s14.95-20,16.19-27.73C293.1,162.25,283.67,160.85,270.53,170.36Z"/></g></g></svg>