<svg xmlns="http://www.w3.org/2000/svg" viewBox="0 0 240 240"><defs><style>.a{fill:#fff;}.b{fill:#b18307;}</style></defs><rect class="a" x="48" y="46" width="144" height="148"/><path class="b" d="M197.14,0H42.86A42.86,42.86,0,0,0,0,42.86V197.14A42.86,42.86,0,0,0,42.86,240H197.14A42.85,42.85,0,0,0,240,197.15h0V42.86A42.86,42.86,0,0,0,197.14,0ZM153.48,72.87H137.67c-5.56,0-6.74,2.28-6.74,8.06V94.88h22.55l-2.17,24.49H130.93v73.15H101.71V119.68H86.53V94.88h15.18V75.36c0-18.33,9.81-27.9,31.55-27.9H153.5Z"/></svg>