<svg xmlns="http://www.w3.org/2000/svg" viewBox="0 0 240 240"><defs><style>.a{fill:#fff;}.b{fill:#b18307;}</style></defs><rect class="a" x="48" y="46" width="144" height="148"/><path class="b" d="M171.29,81.2a21.77,21.77,0,0,0-12.48-12.49,36.48,36.48,0,0,0-12.22-2.27c-6.94-.31-9-.38-26.59-.38s-19.65.07-26.58.38A36.38,36.38,0,0,0,81.2,68.71,21.71,21.71,0,0,0,68.69,81.2a36.37,36.37,0,0,0-2.27,12.21c-.31,6.94-.38,9-.38,26.59s.07,19.65.38,26.59a36.37,36.37,0,0,0,2.27,12.21A21.59,21.59,0,0,0,81.2,171.31a36.14,36.14,0,0,0,12.22,2.27c6.93.31,9,.38,26.58.38s19.65-.07,26.59-.38a36.48,36.48,0,0,0,12.22-2.27,21.65,21.65,0,0,0,12.48-12.51,36.37,36.37,0,0,0,2.27-12.21c.32-6.94.38-9,.38-26.59s-.06-19.65-.38-26.59A36.37,36.37,0,0,0,171.29,81.2ZM120,153.79A33.79,33.79,0,0,1,86.21,120h0A33.79,33.79,0,0,1,120,86.21h0A33.79,33.79,0,0,1,153.79,120h0A33.79,33.79,0,0,1,120,153.79Zm35.12-61a7.9,7.9,0,1,1,7.9-7.9,7.9,7.9,0,0,1-7.9,7.9Z"/><path class="b" d="M197.14,0H42.86A42.86,42.86,0,0,0,0,42.86V197.15A42.85,42.85,0,0,0,42.86,240H197.14A42.85,42.85,0,0,0,240,197.15h0V42.86A42.86,42.86,0,0,0,197.14,0ZM185.4,147.13a48.37,48.37,0,0,1-3,16,33.71,33.71,0,0,1-19.23,19.23,48.24,48.24,0,0,1-16,3c-7,.32-9.25.39-27.12.39s-20.11-.07-27.13-.39a48.13,48.13,0,0,1-16-3A33.71,33.71,0,0,1,57.71,163.1a48.39,48.39,0,0,1-3-16c-.32-7-.39-9.26-.39-27.13s.07-20.11.39-27.13a48.48,48.48,0,0,1,3-16A33.71,33.71,0,0,1,76.94,57.67a48.12,48.12,0,0,1,16-3c7-.32,9.26-.4,27.13-.4s20.11.08,27.12.4a48.48,48.48,0,0,1,16,3A33.71,33.71,0,0,1,182.37,76.9a48.47,48.47,0,0,1,3,16c.32,7,.4,9.26.4,27.13S185.71,140.11,185.4,147.13Z"/><circle class="b" cx="120" cy="120" r="21.93"/></svg>