<svg xmlns="http://www.w3.org/2000/svg" viewBox="0 0 240 240"><defs><style>.a{fill:#fff;}.b{fill:#b18307;}</style></defs><rect class="a" x="48" y="46" width="144" height="148"/><path class="b" d="M197.14,0H42.86A42.86,42.86,0,0,0,0,42.86V197.14A42.86,42.86,0,0,0,42.86,240H197.14A42.85,42.85,0,0,0,240,197.15h0V42.86A42.86,42.86,0,0,0,197.14,0ZM90.42,173.49H65.59V93.27H90.42ZM77.88,82.75A14.81,14.81,0,1,1,92.56,67.94,14.75,14.75,0,0,1,77.88,82.75ZM183.5,173.49H158.8V131.37c0-11.55-4.39-18-13.53-18-9.93,0-15.13,6.72-15.13,18v42.12H106.32V93.27h23.82v10.8a28,28,0,0,1,24.18-13.25c17,0,29.2,10.39,29.2,31.88Z"/></svg>