<svg xmlns="http://www.w3.org/2000/svg" viewBox="0 0 295.19 295.04"><defs><style>.cls-1{fill:#b08310;}</style></defs><g id="Layer_2" data-name="Layer 2"><g id="Layer_1-2" data-name="Layer 1"><path class="cls-1" d="M0,186.92c.1-.4.15-.63.21-.85l4.83-18q2.58-9.63,5.17-19.25a4.65,4.65,0,0,0,0-2.51Q6.84,133.77,3.5,121.23c-1.08-4-2.13-8.08-3.25-12.1a1.8,1.8,0,0,1,.55-2Q14.42,93.59,28,80a4.64,4.64,0,0,0,1.24-2.18q3.19-12,6.4-24C36.81,49.36,38,45,39.18,40.52a1.71,1.71,0,0,1,1.4-1.41c3.82-1,7.62-2,11.43-3.06l22.12-5.93c1.3-.35,2.6-.72,3.91-1A3.81,3.81,0,0,0,80,28q13.5-13.53,27-27a2.42,2.42,0,0,1,2.75-.72c7.84,2.15,15.69,4.24,23.53,6.35q6.72,1.8,13.44,3.62a3.66,3.66,0,0,0,2-.05c5.17-1.41,10.36-2.77,15.54-4.15,7.34-2,14.68-3.92,22-5.92A1.52,1.52,0,0,1,188,.57q13.64,13.68,27.28,27.32a4.4,4.4,0,0,0,2.08,1.22c6.58,1.73,13.16,3.5,19.73,5.26C243,36,249,37.61,255,39.17c.78.21.95.72,1.11,1.32.8,3,1.58,5.91,2.37,8.87q3,11.1,5.95,22.21c.61,2.25,1.18,4.52,1.82,6.76a3.59,3.59,0,0,0,.87,1.38q13.5,13.53,27,27a7.4,7.4,0,0,0,.56.56,1.31,1.31,0,0,1,.45,1.56c-1.12,4.06-2.19,8.13-3.28,12.2l-3.45,12.87c-1.13,4.19-2.26,8.38-3.36,12.58a3.62,3.62,0,0,0,0,1.73c1.43,5.51,2.9,11,4.37,16.51q1.71,6.44,3.44,12.87c.74,2.76,1.45,5.53,2.24,8.28a1.83,1.83,0,0,1-.55,2.08q-13.5,13.44-27,26.92a5.69,5.69,0,0,0-1.55,2.66q-4.17,15.73-8.42,31.45c-.52,1.94-1.06,3.87-1.54,5.82a1.34,1.34,0,0,1-1.1,1.08c-3.12.82-6.23,1.67-9.34,2.5l-22.21,6c-2.16.58-4.33,1.12-6.48,1.75a3.58,3.58,0,0,0-1.45.93q-13.63,13.59-27.22,27.23a2.11,2.11,0,0,1-2.41.62c-4-1.14-8-2.17-12-3.24-7.91-2.13-15.84-4.19-23.72-6.43a9.93,9.93,0,0,0-5.57.24q-9.42,2.55-18.87,5.07c-5.49,1.47-11,2.93-16.48,4.42a1.64,1.64,0,0,1-1.82-.49q-13.62-13.68-27.28-27.32a4,4,0,0,0-1.81-1.1c-4.3-1.12-8.59-2.28-12.87-3.43l-23.54-6.32a5.79,5.79,0,0,0-1-.27c-1-.09-1.4-.72-1.64-1.65q-4-15-8-29.93c-.65-2.42-1.3-4.83-1.9-7.26a4.12,4.12,0,0,0-1.15-2Q14.44,201.57.85,187.94C.52,187.6.24,187.21,0,186.92ZM267.44,82.56c.1.51.17,1,.3,1.54l5.73,21.35L280,129.84c1.13,4.23,2.25,8.46,3.39,12.68a8.58,8.58,0,0,0,.43,1,10.36,10.36,0,0,0,.43-1q2.67-9.92,5.32-19.82c1.15-4.32,2.27-8.66,3.48-13a2,2,0,0,0-.58-2.26q-12.14-12.08-24.24-24.2C268,83,267.71,82.8,267.44,82.56Zm0,129.94c.29-.27.6-.52.87-.8q12-12,24.1-24a2.23,2.23,0,0,0,.63-2.52c-1.13-4-2.2-8.06-3.28-12.09l-5.57-20.87a6.21,6.21,0,0,0-.31-.7,2.94,2.94,0,0,0-.4.71c-1.37,5.07-2.71,10.16-4.07,15.24q-3.65,13.62-7.31,27.24c-1.12,4.2-2.27,8.38-3.38,12.58-.46,1.74-.85,3.5-1.28,5.26l0,0ZM218.86,31.41c.17.2.33.41.52.6l43.74,43.75a4.18,4.18,0,0,0,.44.4s.21-.1.2-.13a8.26,8.26,0,0,0-.2-.86q-1.71-6.33-3.41-12.67c-1.85-6.92-3.71-13.84-5.53-20.77a1.46,1.46,0,0,0-1.16-1.17l-14.29-3.81L222.5,32.29C221.29,32,220.07,31.7,218.86,31.41Zm0,232.23c1.76-.42,3.52-.81,5.26-1.28,9.63-2.58,19.24-5.19,28.88-7.73a2.06,2.06,0,0,0,1.71-1.67c1.72-6.55,3.49-13.09,5.24-19.63q1.8-6.72,3.59-13.44c.09-.34.13-.69.2-1-.28.22-.57.41-.82.65l-43.26,43.27c-.28.28-.53.58-.8.87l0,0Zm64-116.08c-.1-.47-.17-.89-.28-1.31-.42-1.58-.86-3.17-1.29-4.76l-7.5-28Q269.42,97,265,80.59a3.42,3.42,0,0,0-.86-1.39q-24-24.08-48.11-48.1a3.88,3.88,0,0,0-1.66-1c-7.84-2.13-15.69-4.21-23.54-6.31l-26.4-7.09c-5.17-1.38-10.36-2.74-15.53-4.16a4.62,4.62,0,0,0-2.5,0c-3.72,1-7.44,2-11.15,3L108,22.86c-8.83,2.37-17.66,4.76-26.5,7.09a5.55,5.55,0,0,0-2.65,1.56Q64.35,46,49.81,60.56L31.23,79.13a3.64,3.64,0,0,0-1,1.74c-1.23,4.67-2.49,9.34-3.74,14q-3.67,13.68-7.34,27.36-3.23,12-6.47,24.11a4.22,4.22,0,0,0,0,2.31c1,3.65,2,7.31,2.94,11l8.1,30.21c2.15,8,4.32,16.08,6.45,24.12A4.38,4.38,0,0,0,31.34,216q12,12,24,23.94t24,24a3.35,3.35,0,0,0,1.56.95c4.39,1.15,8.78,2.34,13.16,3.51L122,276q12.21,3.27,24.4,6.55a4.42,4.42,0,0,0,2.42,0c4-1.12,8.06-2.2,12.09-3.28l21.92-5.88L214.43,265a3.15,3.15,0,0,0,1.51-.86c2.26-2.29,4.55-4.56,6.83-6.84L264,216a3.43,3.43,0,0,0,1-1.55q3.51-13.2,7-26.41,3.17-11.82,6.35-23.63,1.9-7.1,3.8-14.2C282.45,149.31,282.67,148.42,282.89,147.56ZM31.59,218.78a1.37,1.37,0,0,0,0,.37c.06.29.14.57.21.86q2.11,7.86,4.23,15.72c1.58,5.9,3.17,11.81,4.72,17.73a1.24,1.24,0,0,0,1,1c1.54.38,3.06.79,4.58,1.2,3.46.93,6.92,1.89,10.38,2.81q9.57,2.58,19.16,5.11a5,5,0,0,0,.56.11c-.11-.17-.22-.35-.34-.52a1.85,1.85,0,0,0-.28-.28L32.4,219.49l-.5-.49C31.83,218.94,31.75,218.89,31.59,218.78ZM75.85,31.48l-1,.25L56.47,36.67q-7.38,2-14.78,3.94a1.18,1.18,0,0,0-1,1C39.56,46,38.36,50.39,37.18,54.8L33,70.52q-.69,2.63-1.36,5.25a1.33,1.33,0,0,0,0,.44,1.73,1.73,0,0,0,.32-.2,2.81,2.81,0,0,0,.35-.34L75.57,32.4a5.68,5.68,0,0,0,.47-.51.49.49,0,0,0,0-.34S75.91,31.5,75.85,31.48ZM186.56,1.84c-.41.09-.73.16-1,.25l-13.05,3.5-17.92,4.79c-.92.24-1.84.48-2.76.74a2.12,2.12,0,0,0-.4.24l.43.22a1.05,1.05,0,0,0,.19.05c2.38.63,4.77,1.25,7.15,1.89l27.24,7.3,25.06,6.71c.34.09.7.12,1,.18a8.63,8.63,0,0,0-.66-.81L187.65,2.68a7.27,7.27,0,0,0-.57-.54A3.24,3.24,0,0,0,186.56,1.84Zm-.18,291.34c.54.12.79-.34,1.1-.65q12.2-12.18,24.37-24.37c.24-.24.44-.54.66-.81-.35.06-.7.09-1,.18l-25.07,6.71-30.79,8.24-3.81,1a2.4,2.4,0,0,0-.38.21l.42.22.1,0,13.34,3.58,18.68,5C184.75,292.78,185.55,293,186.38,293.18ZM11.44,151c-.1.27-.15.41-.19.55-.8,3-1.59,6-2.39,9-2.23,8.32-4.44,16.64-6.7,24.95a1.69,1.69,0,0,0,.53,1.9q12.14,12.07,24.23,24.2c.25.25.54.45.81.68a7.88,7.88,0,0,0-.12-1.1l-7.32-27.34q-3.75-14-7.48-27.92c-.38-1.43-.77-2.85-1.16-4.28C11.61,151.49,11.54,151.34,11.44,151ZM108.87,1.86c-.49-.06-.74.39-1.05.7L83.53,26.85a7.28,7.28,0,0,0-.67.88c.35-.07.71-.12,1-.21L106,21.6l26.39-7.09L143,11.7c.31-.09.62-.21.93-.32a6.1,6.1,0,0,0-1-.4L125.52,6.31,112.76,2.88ZM83.06,267.33l-.24.06a2,2,0,0,0,.14.25l.55.56,24.15,24.15a3.21,3.21,0,0,0,.57.54,2.15,2.15,0,0,0,.88.24,3.28,3.28,0,0,0,.86-.21l27.83-7.44c1.9-.51,3.81-1,5.71-1.57a1.62,1.62,0,0,0,.41-.22,3.34,3.34,0,0,0-.44-.17l-12.59-3.36-28.67-7.7-13.34-3.58ZM2,108.66c.09.36.15.62.22.87,1.13,4.22,2.28,8.44,3.4,12.67q2.79,10.42,5.57,20.87c.06.21.17.42.25.62a3.19,3.19,0,0,0,.32-.64q2-7.47,4-15,3.84-14.34,7.7-28.67,2.09-7.77,4.13-15.54a10.11,10.11,0,0,0,.19-1.1c-.27.22-.57.42-.82.66L2.71,107.66a5.55,5.55,0,0,0-.48.49A4.34,4.34,0,0,0,2,108.66Z"/><path class="cls-1" d="M147.19,277c-35-.59-65.83-12.83-91-38s-37.92-56-37.9-91.58S31.07,81.11,56.28,56s56-37.84,91.71-37.76,65.91,13.14,91.32,37.89q37.2,38.27,37.81,91.62c-.55,35.51-12.94,66.25-38.09,91.36S183.18,276.47,147.19,277ZM19.89,147.54c.54,35,12.65,65.35,37.42,90.17s54.86,36.88,89.73,37.56c35.19-.41,65.68-12.45,90.67-37.37s37.49-55.15,37.52-90.26-12.49-65.38-37.29-90.26-55.09-37-90.09-37.59c-35.14.47-65.58,12.61-90.45,37.48S20.44,112.45,19.89,147.54Z"/></g></g></svg>