<svg xmlns="http://www.w3.org/2000/svg" viewBox="0 0 210.38 66.62"><defs><style>.cls-1{fill:#b08310;}</style></defs><g id="Layer_2" data-name="Layer 2"><g id="Layer_1-2" data-name="Layer 1"><path class="cls-1" d="M210.38,52.24c-.08.53-.15,1.07-.23,1.6,0,0,0,.08,0,.11l-.49,1.24c-.21.5-.4,1-.64,1.5a3.74,3.74,0,0,1-.45.67l-1,1.3s0,.08,0,.1L206.16,60a7,7,0,0,1-2.47,1.63c-.23,0-.42.28-.63.41a11.65,11.65,0,0,1-3,1.13c-.41.11-.79.31-1.19.42s-.75.12-1.12.19-.53.12-.79.18a1.31,1.31,0,0,1-.27.06,12.6,12.6,0,0,0-2.13.2c-.32,0-.65.08-1,.1s-.58,0-.87,0h-.87a3,3,0,0,1-.42,0c-.38,0-.76-.14-1.14-.16-.59,0-1.19-.11-1.78-.16a16.27,16.27,0,0,1-3.8-.87,5.32,5.32,0,0,1-2.51-1.25,3.81,3.81,0,0,0-.76-.53,3,3,0,0,1-.95-1,6.24,6.24,0,0,1-.65-1.29,3.8,3.8,0,0,1-.15-1.45,4,4,0,0,1,.08-.92,3,3,0,0,1,.31-.69,6.26,6.26,0,0,1,.63-.95,10.21,10.21,0,0,1,1.05-1,4.07,4.07,0,0,1,.9-.58,10.68,10.68,0,0,1,1.12-.41,7,7,0,0,0,.92-.29,6.42,6.42,0,0,1,1.46-.38,1.28,1.28,0,0,0,.29-.14,2,2,0,0,0-.27-.17,5.92,5.92,0,0,0-.66-.25,4.47,4.47,0,0,1-2-1,1,1,0,0,0-.28-.17,4.79,4.79,0,0,1-1.89-1.59,6.74,6.74,0,0,1-.89-1.5,12,12,0,0,1-.24-1.38,6.89,6.89,0,0,1,0-2.44,3.28,3.28,0,0,1,.52-1.31,7.16,7.16,0,0,1,1.35-1.84,8.54,8.54,0,0,1,2.4-1.73c.46-.18.89-.43,1.34-.63a7.16,7.16,0,0,1,.82-.27c.26-.08.53-.14.79-.21a.69.69,0,0,0,.19-.1,1.33,1.33,0,0,0-.19-.14c-.48-.2-1-.38-1.45-.61a6.11,6.11,0,0,1-2.35-1.3,1.11,1.11,0,0,0-.39-.29A3.69,3.69,0,0,1,182,34.13c-.27-.34-.53-.69-.77-1.06a2.83,2.83,0,0,1-.25-.65c0-.07,0-.16,0-.21a7.22,7.22,0,0,1-.79-2.68A10.83,10.83,0,0,1,180.1,27a7.3,7.3,0,0,1,.5-2.41,10.58,10.58,0,0,1,1.06-1.95c.25-.42.56-.81.84-1.21,0,0,0-.11.08-.14.75-.53,1.26-1.36,2.22-1.64a8.89,8.89,0,0,0,1.68-.86s.06-.06.09-.06c.69-.06,1.29-.45,2-.57s1.1-.24,1.66-.29a18.78,18.78,0,0,1,3.09-.27c.25,0,.51,0,.76,0l1.78.17a4.93,4.93,0,0,0,.54.05,9.12,9.12,0,0,1,3.11.53c.87.31,1.75.6,2.63.9l.2.09c.17.09.37.3.5.26a2.12,2.12,0,0,0,.78-.48c.66-.66,1.31-1.34,1.95-2,.32-.34.6-.72.92-1.06s.84-.82,1.25-1.22l.3-.32c.44-.5.87-1,1.32-1.51a7,7,0,0,1,.83-.7s.15,0,.22,0v.77a1.46,1.46,0,0,0,0,1.21v.44a.36.36,0,0,0,0,.54v.33c-.33.37-.07.74,0,1.1V17a6.49,6.49,0,0,0,0,2.74v.77a7.43,7.43,0,0,0-.09.81c0,.31-.16.42-.41.36a2.54,2.54,0,0,0-1.13,0,2.41,2.41,0,0,1-.6,0l-1.52,0-1.14,0a4.86,4.86,0,0,0-.66,0,.26.26,0,0,0-.08.2c.26.33.54.64.82.95a4.84,4.84,0,0,1,.57.64c.32.55.57,1.14.87,1.7a7.2,7.2,0,0,1,.58,2.74,7.11,7.11,0,0,1-.11,2,22.13,22.13,0,0,1-.55,2.38,2.62,2.62,0,0,1-.43.87c-.27.4-.64.74-.9,1.14a7.92,7.92,0,0,1-3,2.33,10.56,10.56,0,0,1-1.24.54,8.93,8.93,0,0,1-.87.3,7.18,7.18,0,0,1-1.09.33c-.89.15-1.79.3-2.69.39-1.22.12-2.45.18-3.68.27l-.11,0c-.6-.36-1.28,0-1.91-.22a6.9,6.9,0,0,0-1.3-.13,2.92,2.92,0,0,0-1.65.17,3.34,3.34,0,0,0-.84.68,1.23,1.23,0,0,0-.43,1.41c.07.23.09.47.16.69a.94.94,0,0,0,.23.4c.27.27.68.41.92.63a2.59,2.59,0,0,0,1.39.55,12.81,12.81,0,0,0,2.91.25c.87,0,1.74.1,2.62.12,1.32,0,2.65,0,4,.07.74,0,1.49,0,2.23,0,.29,0,.57.15.85.16a6.93,6.93,0,0,1,2.53.52,7.17,7.17,0,0,1,2.44,1.14l.1,0a4,4,0,0,1,1.58,1.3,7.65,7.65,0,0,1,.87,1.4,7,7,0,0,1,.64,2.5c.05.25.07.5.1.75v.55a.59.59,0,0,0,0,.66ZM199.74,26.69l-.15,0,0,0,0,0,.16-.05h0Zm-16,.09h0v0Zm4.85,16.33v0l0,0v0ZM184.27,25l0,0,0,0,0,0ZM202,30.09l0,0,0,0Zm-3.28,3.59h0l0,0Zm4.15-5.62,0,0,0,0v0Zm-21.08.56v0l0,0ZM187.24,46v0Zm-2.67-24.1h0Zm13.19,28.6h0l0,0Zm3,1.25v0h0Zm-17.26-3v0h0Zm3.18-25.3h0v0ZM188,43.6v0Zm.46,0h0Zm16.55-12,0,.08V31.6ZM188,44.12l0,0s0,0,0,0l0-.08Zm8.45,7.24-.05.06,0-.07Zm-.74-1.62-.07.12.05-.13a.08.08,0,0,0,0,0s0,0,0,0Zm7.57-27.37h0l-.06-.06Zm-15.63.74.07,0-.08,0Zm-6.23,5.61,0,0,0,0v0Zm21.52-7.39-.05.06.06-.08h0Zm-2.08,8.53.14-.08-.07-.06-.06.15-.08,0Zm-19.32-2.58v0a.25.25,0,0,0,0-.09l-.07,0Zm10.75,18.07-.13,0,0,.07.07-.11,0,0Zm10.28-12,.18,0,0,0-.13.07v0Zm-15.89,11-.15-.15,0,0,.2.1.08.16.06,0Zm-4,1.6v0l.15.1,0-.08Zm4,1.73-.16.06.08.13.07-.21v0Zm-3.58-5,.16-.06,0-.05-.13.12,0,0Zm14.56,6.77.19-.17-.08,0-.1.2h0Zm-14.94-4.19a.69.69,0,0,0,.11-.13s0-.08,0-.12a.32.32,0,0,0-.14.08s0,.11,0,.16h0ZM201.7,30.31v0l0,0,.09.28.1-.1Zm-.33-1.09-.05-.09.07.07a.49.49,0,0,0,0,.21c0,.07.09.12.13.17s0-.15,0-.2A.6.6,0,0,0,201.37,29.22ZM182.2,26.47H182l-.15.05s.12.11.15.1a1,1,0,0,0,.19-.17l.33-.23c.37-.21.1-.46.05-.69,0,0-.13-.06-.18,0s-.1.11-.09.15c.07.2.15.4.23.59C182.33,26.21,182.13,26.15,182.2,26.47ZM205,28.13c-.17.11-.17.22,0,.3a.41.41,0,0,0,.19,0,2,2,0,0,1-.17-.23s0-.07,0-.1Zm-3,3.79v0l0,0,0,.47c-.27-.07-.23.19-.33.3a2.74,2.74,0,0,1,.28,0,2,2,0,0,1,.35.1l.29.13v-.15l-.29,0-.3-.49C202.38,32.19,202.39,32.13,202.06,31.92Zm-1.24-1.45h.53s0-.08,0-.08a1.42,1.42,0,0,0-.35,0c-.06,0-.12.08-.18.12l0,0Zm-.46,17.41h0l.31-.31v.13l0-.12-.15-.06-.19-.07a1.94,1.94,0,0,0,0,.24C200.32,47.75,200.35,47.81,200.36,47.88ZM182.27,46a.07.07,0,0,0,0,0l0,0,0,.07a.27.27,0,0,0,0,.16c.07.09.16.17.24.26s0,0,0,0a1.87,1.87,0,0,0-.15-.32S182.32,46,182.27,46Zm11.24-2h0l.13.35.11-.37ZM183.6,29.4a.83.83,0,0,0,.21.06l.28-.05c0-.07,0-.18-.07-.19a.57.57,0,0,0-.29,0s-.08.11-.11.17l-.09.05.05,0Zm2.64-8.11c.2.19.35.08.49-.09,0,0,0-.05,0-.09a1.18,1.18,0,0,0-.36-.06c-.06,0-.1.16-.15.25s-.07,0-.1,0l-.24,0s0,0,0,0h.25S186.22,21.32,186.24,21.29Zm17.07,6a1.28,1.28,0,0,0-.11.24.32.32,0,0,0,0,.16s.08-.08.08-.13a1.18,1.18,0,0,0,0-.26.78.78,0,0,1,0-.26c0-.1.2-.2,0-.3l-.08-.05a1,1,0,0,0-.13.39C203.06,27.14,203.22,27.21,203.31,27.28ZM183.37,46.1l.17.1v-.05l-.19,0a1.91,1.91,0,0,0,0-.48c0-.06-.17-.08-.26-.1s-.08.05-.12.07a.67.67,0,0,0,.18.07c.23,0,.13.15.06.26a1.89,1.89,0,0,0-.09.21ZM185,48.3c0,.18-.11.36-.15.54,0,0,.11.09.12.09s.23-.23.34-.35l-.22-.17a1.31,1.31,0,0,1-.11-.12l.22-.31-.12-.07c0,.11-.05.22-.08.34Zm17.75-17c.17,0,.31,0,.28-.21s-.12-.27-.2-.28a1.35,1.35,0,0,0-.41.12,1.3,1.3,0,0,1,.29.14c.05.05,0,.17.06.25l-.22.21c-.22.2,0,.38,0,.56h0c.19,0,.34.1.37.33,0,.06.1.12.15.18,0-.1.14-.23.11-.28a2.12,2.12,0,0,0-.34-.4c-.11-.13-.21-.26-.31-.4l.35.17-.12-.33A.08.08,0,0,1,202.79,31.25ZM187.2,22.57c-.14,0-.33-.27-.43.07-.07-.35-.46-.54-.44-.94,0,0-.13-.07-.2-.1s0,.13,0,.18a1.28,1.28,0,0,0,.7.84l.19.45c.07-.15.14-.3.2-.46a.07.07,0,0,0,0-.05l.25.12-.05-.18ZM182.76,29v.13s0,0,0,0l0-.09c0-.15-.14-.34-.09-.45.23-.45-.06-.58-.38-.71l0-.07a.06.06,0,0,0,0,0l0,0a8.46,8.46,0,0,0,.16.85C182.49,28.85,182.65,28.94,182.76,29Zm1.93-4.55,0-.16a1.77,1.77,0,0,0,0-.23s-.13,0-.14,0-.09.17-.06.24.13.09.2.14.14.32.22.47a2.44,2.44,0,0,0,.14.28c.09-.1.24-.19.25-.3s.15-.15.27-.14v0h0l-.34-.25v0C185.11,24.22,184.87,24.54,184.69,24.49Zm-.78-.64h0l0,0,0-.26c-.09,0-.22,0-.27.08a4.21,4.21,0,0,0-.28.45.28.28,0,0,1-.22,0c-.06,0-.09-.11-.13-.16s-.11.12-.11.18a3.78,3.78,0,0,0,.06.47,1.42,1.42,0,0,0,.08.18,1,1,0,0,0,.17-.1c.09-.11.15-.24.23-.34Zm-1,3.88c.35,0,.5-.14.48-.43a6,6,0,0,0,0-.73c0-.09-.12-.16-.19-.24.16-.06.36-.06.3-.34,0-.13.05-.27.23-.12l.19.16c0-.08,0-.16,0-.24s-.08-.32-.11-.48-.06-.12-.11,0-.13.13-.18.19-.12.24-.18,0a1.92,1.92,0,0,0-.14-.33,3.3,3.3,0,0,0-.18.32c-.15.33-.09.54.25.83a1.46,1.46,0,0,1-.07.3s-.09,0-.14,0l-.09,0-.12-.08s0,0,0,0a.33.33,0,0,0,.13.07h.1c0,.31-.26.29-.42.41v0a.68.68,0,0,1,.33.7l0,0Zm5.15,24.59c-1.16-.11-1.75.84-2.43,1.59a2.1,2.1,0,0,0-.48,1.18,7.09,7.09,0,0,0,0,2.39,5.33,5.33,0,0,0,.56,1.44,7.88,7.88,0,0,0,3.11,2.73,5.11,5.11,0,0,0,1.91.71c1.27.18,2.54.41,3.8.62a.55.55,0,0,0,.22,0l1-.1,1-.12c.1,0,.21-.06.31-.07a4.41,4.41,0,0,0,2.08-.47.5.5,0,0,1,.2-.08A4.71,4.71,0,0,0,201.73,61l.46-.39a3.46,3.46,0,0,0,1.52-2.35.94.94,0,0,1,.11-.36,2.23,2.23,0,0,0,.18-1.39c0-.31-.13-.61-.19-.91a4,4,0,0,0-1.59-1.93l-.21-.06a5.75,5.75,0,0,1-.83-.27,5.86,5.86,0,0,0-2-.4c-.81-.07-1.63-.07-2.44-.11s-1.41-.07-2.12-.09-1.55,0-2.33,0c-.46,0-.92-.15-1.39-.18C190,52.4,189.07,52.37,188.08,52.32Zm5.85-15c.47-.25,1.08-.12,1.53-.54a4.83,4.83,0,0,0,1.7-2.53c.18-.87.36-1.74.49-2.62.08-.5,0-1,.1-1.52,0-.32.09-.64.13-1s0-.5.05-.75a3.82,3.82,0,0,0,0-1.17,3.31,3.31,0,0,1-.13-1.12c0-.33,0-.65-.08-1a7.43,7.43,0,0,1-.12-1.4,2.26,2.26,0,0,0-.12-.9,6.38,6.38,0,0,1-.12-.63c0-.23-.08-.47-.15-.69A4.78,4.78,0,0,0,196,19.68a2.53,2.53,0,0,0-2.63-.9.87.87,0,0,1-.32.06,1.71,1.71,0,0,0-1.22.55,6.84,6.84,0,0,0-1.65,3.27.86.86,0,0,0,0,.16c0,.32-.07.65-.11,1-.08.59-.19,1.18-.23,1.78-.05.84-.05,1.69-.06,2.54a14.93,14.93,0,0,0,0,1.64c.09,1,.23,2.05.35,3.07a9.5,9.5,0,0,0,.15,1.07,4.67,4.67,0,0,0,.82,1.83A4.79,4.79,0,0,0,192.42,37,5.14,5.14,0,0,0,193.93,37.36Zm10.34-4.73c-.06-.15-.16-.39-.27-.63a.55.55,0,0,0-.14-.12.81.81,0,0,0,0,.16c.06.34.39.63.23,1,0,0,0,0,.08,0s.07,0,.07,0S204.25,32.85,204.27,32.63ZM186,22.45a4.6,4.6,0,0,0-.29.51c0,.05.09.16.15.24,0-.08.08-.14.11-.22s.07-.27.1-.41S186.06,22.5,186,22.45Zm17.54,7.87-.09-.06a2.58,2.58,0,0,0-.2.41,1.43,1.43,0,0,0,0,.36l.08,0ZM201,32.53v-.21a1.33,1.33,0,0,1-.05-.19l-.06.17a.54.54,0,0,0,0,.1c0,.12,0,.25,0,.37l.08,0ZM205.41,26s-.07-.13-.07-.13c-.19.08-.37.15-.55.24,0,0,0,.08,0,.08s.18.06.25,0A1.3,1.3,0,0,0,205.41,26Zm-21.73-3.47c-.05,0-.12-.09-.12-.08a3.67,3.67,0,0,0-.27.38s.07.1.1.15ZM202.59,30l.22-.19.11-.13c-.06,0-.16-.07-.19-.05a3.13,3.13,0,0,0-.2.3S202.57,30,202.59,30Zm1.27,3.25-.36.37.2,0c.19,0,.22-.06.21-.2S203.88,33.36,203.86,33.27Zm-1.36,1c-.05.08-.1.14-.09.15a2.78,2.78,0,0,0,.21.27s.13-.13.11-.15A2.56,2.56,0,0,0,202.5,34.3Zm-20,10.44a2.35,2.35,0,0,0-.26-.22s-.13.1-.14.17a.55.55,0,0,0,.07.23Zm21.17-17c-.07.12-.16.2-.14.25a.27.27,0,0,0,.18.18s.17-.11.16-.15S203.73,27.83,203.64,27.7Zm-16.43-6.44-.15-.14-.3.44c.05,0,.12.08.13.06S187.1,21.39,187.21,21.26Zm-5,7.64a.85.85,0,0,0,0-.15h-.05l-.12.54s.12,0,.13,0S182.2,29.05,182.23,28.9Zm22.47-4.36-.16-.25a1.25,1.25,0,0,0-.16.24s.08.15.1.14A1,1,0,0,0,204.7,24.54Zm-22.62,1.52c-.11-.09-.17-.16-.24-.18s-.11.05-.16.09.1.14.17.18S182,26.11,182.08,26.06Zm3.41,4.74-.11-.23a.5.5,0,0,0-.1.21.81.81,0,0,0,.08.25Zm-.39,13.25a3.54,3.54,0,0,0-.29-.28s-.09.06-.09.07a1.43,1.43,0,0,0,.16.3Zm10.37,2.5a2.64,2.64,0,0,0,.07-.41s-.06-.1-.09-.15c0,.11-.12.21-.16.32S195.36,46.4,195.47,46.55ZM182.69,25.38c.05-.09.1-.15.13-.22s-.08-.09-.11-.08a1.31,1.31,0,0,0-.27.12Zm5.21-5.13c-.09,0-.15-.08-.17-.07a3.57,3.57,0,0,0-.28.27c.05,0,.11.05.14,0A1.75,1.75,0,0,0,187.9,20.25Zm15.37,14a1.67,1.67,0,0,0,.13-.21,1.31,1.31,0,0,0-.24-.17s-.07.08-.06.11A2.66,2.66,0,0,0,203.27,34.2ZM184.79,32l-.13-.11a1,1,0,0,0-.14.21s0,.08,0,.13ZM205,28.63l-.11-.09-.14.28s.08.1.09.1a1.54,1.54,0,0,0,.19-.17S205,28.67,205,28.63Zm-3.29,6.15c.1-.13.19-.19.2-.26s-.09-.13-.14-.2a1.2,1.2,0,0,0-.11.23A.72.72,0,0,0,201.69,34.78Zm-17.15-7.5c-.13-.05-.2-.1-.26-.09s-.13.09-.13.13a.23.23,0,0,0,.12.15S184.37,27.41,184.54,27.28Zm19.92.21-.15-.17a1.29,1.29,0,0,0-.16.18s.06.12.08.11A1,1,0,0,0,204.46,27.49Zm-19.92-5.32a.8.8,0,0,0-.1.22s.06.06.09.1a1.62,1.62,0,0,0,.1-.18S184.59,22.24,184.54,22.17Zm20.21,1.68.22-.24s0,0,0-.07l-.24.2S204.72,23.8,204.75,23.85ZM195,47.19c0,.07-.05.11,0,.13a1.24,1.24,0,0,0,.14.18s.11-.1.1-.11S195.12,47.28,195,47.19Zm4.79-20.1-.07-.06a2.76,2.76,0,0,0-.08.27.3.3,0,0,0,0,.13C199.73,27.31,199.78,27.2,199.82,27.09Zm3.78-3.74-.24-.39a.65.65,0,0,0,0,.14,2.33,2.33,0,0,0,.11.28S203.56,23.36,203.6,23.35Zm-8.83,26.32a.69.69,0,0,0,.13-.17s-.07-.09-.09-.09a.56.56,0,0,0-.17.09ZM203.68,22a.63.63,0,0,0,0-.2s-.07,0-.12-.07a1.22,1.22,0,0,0-.07.17S203.6,21.91,203.68,22Zm-7.89,28.46c-.09-.05-.16-.11-.2-.09s-.07.1-.08.15.08.1.1.09S195.71,50.49,195.79,50.42Zm5.59-16.53s-.07-.1-.1-.1a.28.28,0,0,0-.15,0l.1.16Zm-15.2,11.38c0-.05.11-.08.12-.12a.45.45,0,0,0,0-.16.48.48,0,0,0-.09.11A.94.94,0,0,0,186.18,45.27ZM204,27.17c-.09-.07-.14-.13-.2-.17s-.06,0-.1,0l.14.21S203.91,27.21,204,27.17ZM194,45.86l-.19-.18a.39.39,0,0,0-.1.16s.05.1.08.1A.8.8,0,0,0,194,45.86Zm-9.37-17.73a.79.79,0,0,0,.1-.21s0-.05-.05-.07a1.09,1.09,0,0,0-.08.15S184.64,28.07,184.65,28.13Zm-2.11,17.15-.13-.22a1.55,1.55,0,0,0,0,.21c0,.06,0,.1.08.16Zm1.72-19.78-.13-.09s-.06.05,0,.07a.67.67,0,0,0,.06.12ZM183.71,45l-.07.18s0,.05.05.07a1.62,1.62,0,0,0,.1-.18ZM204.5,23s0,.07,0,.08l.16.13s0,0,.06,0Zm-.41-.33-.09-.12s-.07.07-.06.09.05.07.08.11Zm-19.9,5.94-.14-.12s-.08.08-.07.11.06.09.1.14Zm18.69-2.3.08.06a.88.88,0,0,0,0-.15.32.32,0,0,0,0-.09s-.1,0-.12.05S202.87,26.26,202.88,26.3Zm-18.43,0s-.07,0-.09,0-.05,0-.07.06l.08,0S184.42,26.3,184.45,26.27Zm20.19.32-.11.09s.05.09.09.1.08,0,.12-.06Zm1.21-7.33a.37.37,0,0,0,0-.11.38.38,0,0,0,0-.1s-.05,0-.05,0A.68.68,0,0,0,205.85,19.26ZM195.06,50a1.24,1.24,0,0,0,0,.2.29.29,0,0,0,0,.09.77.77,0,0,0,0-.15S195.08,50.11,195.06,50Zm-7-20.07s0-.07,0-.08,0,0-.08,0l0,.13Zm10.6,20.74-.07-.12a.43.43,0,0,1,0,0l.06.12Zm2.47.18a1.1,1.1,0,0,0,0-.11l-.14,0s0,.11,0,.11A.5.5,0,0,0,201.12,50.87ZM187.21,30.51c-.05.06-.1.09-.1.13s0,.09.08.09a.15.15,0,0,0,.11-.08S187.25,30.57,187.21,30.51Zm9.86,20.78c.06-.1.11-.15.1-.17a.12.12,0,0,0-.1-.08s-.09.05-.09.08S197,51.21,197.07,51.29Zm4.63-17.81c.05-.09.09-.13.09-.17s0-.07-.07-.11-.09.06-.1.1S201.65,33.37,201.7,33.48Zm6,21.51,0-.08s-.08,0-.1,0,0,.05,0,.08Zm-3.28-23.51s-.05.07,0,.08l.11.11.06-.1Zm-18.83.95,0-.1s-.07,0-.09,0,0,0,0,.08ZM184.28,28a.65.65,0,0,0-.09-.14l-.22.11s.06.12.08.12Zm-1.13.21,0-.1a.25.25,0,0,0,0,.11s0,.05.05.08Zm16.24,0c0,.05-.06.09,0,.11a.45.45,0,0,0,.1.09s.06-.07.05-.08A.38.38,0,0,0,199.39,28.18Zm4.72,0c0,.07-.06.12,0,.15s.08.05.12.07.07-.09.06-.11S204.17,28.24,204.11,28.19Zm-16.74.48a.68.68,0,0,0-.24,0s0,.08,0,.12a.36.36,0,0,0,.14,0S187.29,28.74,187.37,28.67ZM185.23,24l0-.15s-.05.05-.05.07a.21.21,0,0,0,0,.11Zm-.41-1a.68.68,0,0,0-.15,0s0,.06,0,.07.05.06.08.09Zm18-.62-.1,0a.5.5,0,0,0,.05.13l.11-.05ZM187,43.74a.94.94,0,0,0-.12-.14s-.09,0-.09,0,0,.11.05.13S186.93,43.76,187,43.74Zm-4.74-19a.87.87,0,0,0,.19.11s.06-.06.05-.08,0-.1-.07-.1S182.34,24.67,182.26,24.71Zm5.58,19.61c-.12-.07-.17-.12-.2-.11a.13.13,0,0,0-.08.11s.06.08.1.08S187.75,44.36,187.84,44.32ZM182,27.46l.07.06s.06-.07,0-.07,0-.05-.08-.08ZM185.22,43l-.05.14s.05,0,.06,0a.1.1,0,0,0,.05-.08S185.25,43.05,185.22,43Zm19.34,8,.05,0a.43.43,0,0,1,0,0l-.07,0Zm1.58-23-.06-.05,0,0s0,0,0,0Zm-21.85-3.7-.06.06,0,0,.06-.06Zm19.58.15-.09,0s0,.07,0,.09.05,0,.08,0Zm-4,26.49-.11-.08s-.05.06,0,.08a.48.48,0,0,0,.09.11Zm3.51-5.87-.06-.07,0,0,.06.06ZM185.73,24.2h0l0,.07s0,0,0,0S185.73,24.22,185.73,24.2Zm-3.62,4L182,28.1s0,0,0,.06,0,0,0,.06Zm2.36,19.65a.18.18,0,0,0-.05.07s0,0,0,0l.07,0Zm1.66-24.28,0,.09.09-.07-.06-.07Zm7.41,26.73,0-.08s-.07,0-.09.09,0,0,0,.08Zm5.53.63,0-.1s-.09.07-.09.11.05.07.08.11Zm1.05-27-.1,0,.06.14s.09,0,.09-.05A.43.43,0,0,0,200.12,23.93Zm-.86,26.59s0,0,0,0h.07l0,0S199.28,50.52,199.26,50.52Zm-10.19-6.63,0-.09-.07.05a.21.21,0,0,0,0,.11ZM195,48.43s0-.08,0-.09-.06,0-.09,0,0,.08,0,.09S195,48.44,195,48.43Zm2.3.41s0-.07-.05-.08-.06,0-.09,0l.06.11ZM188,44.65l.06-.07a.08.08,0,0,0,0,0s-.06,0-.06,0S187.94,44.62,188,44.65ZM201.26,33l.13.07a.22.22,0,0,0,.05-.08l-.12-.09Zm2.52-10.57s-.05-.05-.07,0a.22.22,0,0,0-.06.07l.1.06Zm-.3,10.85,0-.06,0,0a.25.25,0,0,0,0,.07Zm1.85,20.12s-.06,0-.06,0,0,.06,0,.09l.1-.08Zm-.47-27.53.09,0,0-.09s-.08,0-.09,0S204.85,25.84,204.86,25.86Zm-11.74,19s.07.06.09.06a.18.18,0,0,0,.08-.07s0-.07,0-.06A.56.56,0,0,0,193.12,44.89Zm9-23.81s0-.07,0-.08-.06,0-.09,0l0,.12ZM203.42,26l-.07.06s.05.05.08.05,0,0,.06-.05Zm-2,6.41a.65.65,0,0,0-.12.11s0,.07.05.07a.17.17,0,0,0,.12,0S201.46,32.48,201.44,32.43Zm-.82-7.6a.84.84,0,0,0-.14-.06s0,.06,0,.07a.26.26,0,0,0,.11.07S200.58,24.87,200.62,24.83ZM184.23,46a.21.21,0,0,0,0,.09.34.34,0,0,0,0,.1l.05,0S184.23,46,184.23,46ZM202,27s0-.07,0-.08-.06,0-.09,0l0,.11ZM187.18,43.68l0,.06s0,0,0,0S187.2,43.69,187.18,43.68ZM201.36,33.4l0,0-.07,0,.06,0Zm5.9,21.82,0,0s0,0,0,0,0,0,0,0A.08.08,0,0,0,207.26,55.22Zm-11.19-5.09s0,0,0,0a.27.27,0,0,0-.09,0s0,0,0,0Zm7-16.66,0,0,0,0ZM184.18,44a.81.81,0,0,0,0,.15l0,0a.54.54,0,0,0,.05-.11S184.22,44,184.18,44Zm2.94.58,0-.08,0,0-.07.05Zm7.7,6.88v0h0v.07ZM182.61,47.2v0l.07,0s0,0,0,0Zm-.33.91h0l0,.06,0,0S182.29,48.12,182.28,48.11Zm5-4.87s-.07,0-.08,0,0,.06-.05.08.07,0,.09,0S187.29,43.27,187.3,43.24ZM192,48.83l0,0,0,0s0,0,.06,0Zm-4.68.51,0-.09,0,0s0,.06,0,.1Zm-2.79-5.84s0,0,0,0h-.05l0,.06Zm8.31,6.09-.07.06,0,0s0,0,.06-.06Zm-4.66-4.13-.05-.07s0,0,0,0,0,.06,0,.09Zm-1,4.49,0-.08,0,0a.18.18,0,0,0-.07,0Zm-2.9-7.25s-.06,0-.08,0,0,0-.05.07l.09,0S184.32,42.73,184.33,42.7ZM203.27,48l0,0,0,0,.05.05Zm-1.14-25.61,0,0,0,.06,0,0ZM199.76,25l0,.07s0,0,0,0l.08,0Zm-15.86-.13v-.05l-.08,0v0Zm16.73,6.28-.06,0s0,0,0,0l0,.08ZM205.4,20s0,0,0,0,0,0,0,0l0,0S205.4,20,205.4,20Zm-3.3,5,0,0s0,0,0,0,0,0,0,0Zm-14.7-4.12-.07-.05,0,0,.06.05Zm.29,8.8h-.05l0,.06,0,0S187.69,29.75,187.69,29.74ZM205.52,19.5v0l0,0s0,0,0,0ZM182.18,25v0l-.06,0s0,0,0,0Zm18.37-2.08,0,0-.05,0,0,0Zm2.87,6.66v0Zm-21.87-1.48-.07,0,0,0,.06.07Zm1.8-3.13,0,0a.43.43,0,0,1,0-.05l-.07,0Zm23.88-6.22,0,0,0,0,0,0Zm-20.48,5.7,0,.08s.06,0,.08,0,0,0,0-.07Zm-.93,2.7,0,0-.05,0,.06.05ZM184.27,29l0,0s0,0,0,0l0,0Zm17.22,2.75,0,0s0,0,0,0l0,0Zm4-6.62s0,0,0,0,0,0-.05,0l0,.07Zm-2.58-1.29,0,0,0,0,0,0Zm.49,7.74h0v0Zm-2.34,0,0,0,.06,0Zm1.85-8.35s0,.06,0,.09,0,0,.07,0,0-.06,0-.08A.18.18,0,0,0,202.87,23.2Zm0,1.88v0l0,.06,0,0Zm-17.32-3.76,0,0,0,0,.05,0Zm4.56,25,0,0h0Zm-6.72-18v0h0Zm17.28.14h0v.05ZM184.54,47.08l0,0h0Zm15.05-18.36h0s0,0,0,.05l.06,0Zm-15.28-4h0l0,0Zm19.06-3.57,0,0h0ZM201,24.84a.06.06,0,0,1,0,0h0l0-.05Zm1.77-3.92h0l0,0,0,0Zm-1.37,7.35-.07,0a0,0,0,0,1,0,0Zm-7.16,16.79,0,0v0Zm-6.53.22,0,0,0,0Zm15.8.75,0,0h0Zm-9.22.33v0h0Zm-4.57-1.82,0,0,0,0,0,.06Zm4.32,0v0h0Zm-2.68,1.24h0a.07.07,0,0,0,0,0l.06,0Zm-7.59.06v0l-.06,0s0,0,0,0Zm11.56,3.31h0v0h0S195.34,49.11,195.34,49.1Zm6.64.09,0,0h0Zm1.74-15h0v0Zm-9,15,0,0,0,0s0,0,0,0Zm-.62.32,0,0,0,0ZM183.55,30.18l0,0h0Zm15.35,2.31,0,0v0Zm2.43,16,0,0s0,0,0,0h0S201.34,48.45,201.33,48.46Zm-2.2-24.2,0,0h0Zm-15,6.44v0h0Zm.73.32s0,0,0,0h0V31Zm14.83,2.49v0l0,0s0,0,0,0Zm.69,17.34h0v.06l0,0S200.39,50.86,200.39,50.85Zm-.79-20v0h0Zm2,0,0,0s0,0,0,0l0,0Zm-1-7,0,0s0,0,0,0,0,0,0,0Zm2.63,9.35v0h-.06s0,0,0,0Zm1.39-.28v0l0,0Zm-2.3-2.72,0-.06h0Zm-1.41,2.84h0l0,0ZM184.27,24h0Zm12.14,26.75,0,0,0,0Zm4.09-18.91,0-.07,0,0a.19.19,0,0,0,0,.08Zm4.24.3-.07,0s0,0,0,0Zm-21.58-2.88v0h0Zm16.78,0h0l0,0Zm5.24,2.63,0,0s0,0,0,0h-.05A.1.1,0,0,0,205.18,31.89Zm-4.45-7.36a.05.05,0,0,0,0,0l0,0,0,0ZM183.81,47.66l0-.09,0,0a.41.41,0,0,0,0,.08Zm1.31-.08,0,0-.09,0,0,0Zm3.46-18.06,0,0v0Zm-1.66,14.54.07,0,0,0L187,44Zm4.3.35,0,0h0Zm8.9,3.69,0,0h0Zm-14.56.9,0,0v0Zm20.28,6.06,0,0h0Zm-13.62-5,0,0h0Zm4.27-4.23,0,0h0Zm4.06-13.5,0,0h0Zm-15.79-7.13,0,0h0Zm15-1,0,0h0ZM184,26.28l0,0v0Z"/><path class="cls-1" d="M0,66.29a18.16,18.16,0,0,0,1.88-.53,8,8,0,0,0,2-.86A3,3,0,0,0,5,64c.11-.22.36-.36.53-.55a4.62,4.62,0,0,0,1.17-1.72.31.31,0,0,1,0-.1A3.55,3.55,0,0,0,7.55,60c.22-.79.46-1.57.69-2.35a6.05,6.05,0,0,0,.2-.73c0-.21,0-.43,0-.64.11-.9.24-1.79.32-2.69,0-.54,0-1.08,0-1.62s-.05-.82,0-1.23c0-.74.08-1.47.12-2.21,0,0,0-.08,0-.1a3.7,3.7,0,0,1-.1-1.62c0-.21,0-.43,0-.64s0-.55,0-.82c0-.09-.07-.19,0-.26a5.08,5.08,0,0,0,0-2c0-1,0-2,.07-2.93.06-.55-.1-1.07,0-1.6a2.92,2.92,0,0,0,0-1.41,1,1,0,0,1,0-.38,2.91,2.91,0,0,0,.06-.65c-.11-1,0-2,0-3s0-1.77,0-2.66c0-.69,0-1.38,0-2.07,0-.93-.07-1.85-.11-2.77a.79.79,0,0,1,0-.22,5.16,5.16,0,0,0,0-1.24c0-1.48,0-3,0-4.43a7.1,7.1,0,0,0-.12-1.9,1.58,1.58,0,0,0-.33-.72,17.07,17.07,0,0,0-2.17-1.9c-.39-.3-.77-.61-1.15-.92L3.73,13.15A.67.67,0,0,1,3.65,13a.42.42,0,0,1,.16,0,7.32,7.32,0,0,0,.81,0,28.85,28.85,0,0,1,4.26,0c.36,0,.72,0,1.08,0,.79,0,1.59-.06,2.38-.06.59,0,1.18.06,1.77.07s1.09,0,1.64,0c.36,0,.72,0,1.08,0a5.54,5.54,0,0,0,.91,0c.43-.07.61,0,.67.46a5.94,5.94,0,0,1,.06,1.19,16.9,16.9,0,0,0,0,2.36c0,.34-.06.69-.07,1s0,.71,0,1.07,0,.73,0,1.1c0,.77,0,1.55,0,2.33,0,.16,0,.32,0,.49,0,.4,0,.8,0,1.19,0,.09,0,.19,0,.28a23,23,0,0,1,0,3.42c0,.32.1.65.09,1,0,.87-.11,1.74-.12,2.61,0,.54.08,1.07.12,1.61a.86.86,0,0,1,0,.27,3.49,3.49,0,0,0,0,1.29,14.94,14.94,0,0,1,0,1.64c0,.7,0,1.41,0,2.11a6.37,6.37,0,0,1-.06,1A18.84,18.84,0,0,0,18.51,42c0,.65-.08,1.3-.11,2,0,.4,0,.8,0,1.2,0,1.05,0,2.1,0,3.16,0,.43-.07.86-.09,1.29s0,1.06,0,1.59c0,.27-.09.53-.12.8s-.07.57-.1.85c0,0,0,.11,0,.16-.37,1.19-.8,2.37-1.09,3.58a16.18,16.18,0,0,1-.66,1.52,14,14,0,0,1-1.51,2.64c-.4.6-1,1.09-1.43,1.65a12.49,12.49,0,0,1-1.84,1.49,4.17,4.17,0,0,1-1.53.89,11.76,11.76,0,0,0-1.55.77,4.24,4.24,0,0,1-1,.32c-.63.14-1.28.21-1.9.37a13.79,13.79,0,0,1-2.47.31,3.85,3.85,0,0,0-.47.08H1l-1-.11ZM15.9,43.36h0l0,0ZM11,35.13v0l0,0Zm2,11.78v0h0Zm-.27-6.79,0,.15,0-.13-.11-.07ZM14,45.66l-.18.14.1.08.07-.22,0,0Zm-.28,4.9v.2s0,0,0,0a.83.83,0,0,0,0-.15V50.3s-.12.07-.11.08A.67.67,0,0,0,13.75,50.56Zm-1-9.4-.34.36v0h0c.38.08.39.06.32-.36h0Zm2.66,10.18,0,.13.05,0-.1-.09a1.18,1.18,0,0,0,0-.27c0-.11-.08-.28-.14-.29a1,1,0,0,0-.41.08s0,.07,0,.09.06.06.08,0C15.18,50.86,15.22,51.19,15.38,51.34Zm.4-2.36c.06-.1.11-.15.1-.18s-.07-.23-.1-.35l-.12.06C15.69,48.65,15.73,48.78,15.78,49Zm.47-5.09-.19-.17c0,.05-.08.1-.07.15a.76.76,0,0,0,.09.18Zm-3.44,5.55-.1-.16s-.06,0-.05.07a1.3,1.3,0,0,0,.08.17Zm.34-6.2c-.09-.06-.14-.13-.18-.12a.61.61,0,0,0-.21.11.67.67,0,0,0,.21.13S13.06,43.3,13.15,43.24Zm-2.22-3.48a1.35,1.35,0,0,0,.15-.27c0-.05,0-.11,0-.16a.55.55,0,0,0-.13.17S10.93,39.59,10.93,39.76Zm4.48,12.65a2.5,2.5,0,0,0,0,.31c0,.05.08.08.11.12s0-.1,0-.14A2.24,2.24,0,0,0,15.41,52.41Zm-.47-32.86a1.1,1.1,0,0,0-.11.22s.06.05.1.08a.66.66,0,0,0,.08-.13S15,19.64,14.94,19.55ZM14,40.05l.07-.21a.22.22,0,0,0-.08-.05.49.49,0,0,0-.11.14S14,40,14,40.05Zm1.23-8.69.09-.05-.05,0-.07.08Zm-3.88.76,0-.09-.08,0a.56.56,0,0,0,0,.12ZM16,49.6s-.06,0-.06.06a.54.54,0,0,0,.05.11s.05-.06.05-.09S16,49.63,16,49.6Zm-.2-7.74.1,0s-.06-.08-.1-.1-.06,0-.09,0ZM12,22.11S12,22,12,22s-.06,0-.09,0l0,.12Zm1.58,28.73-.09,0s0,0,0,0a.23.23,0,0,0,.07.07Zm-1.82-5.16.05-.08h-.09s0,0,0,0Zm3.6,1.1-.06-.05a.08.08,0,0,0,0,0s0,.06,0,.09Zm-3.2-.69-.06-.1a.47.47,0,0,0-.1.1s0,.07.05.07Zm.6-12.32a.35.35,0,0,0,0,.08l0,0,.07,0Zm2.77,19.91v0h-.07s0,0,0,0Zm-3.42-9.52v0h-.07l0,0S12.11,44.16,12.12,44.16Zm-1.25,1.18v0l.06,0s0,0,0,0S10.88,45.33,10.87,45.34Zm4.58-12.73,0,0a.08.08,0,0,0,0,0l0,0Zm-2.84,17.7v0h.07s0,0,0,0S12.62,50.3,12.61,50.31Zm-.19,3.95v.07h0ZM11.18,41.87v.05l.07,0s0,0,0,0S11.2,41.86,11.18,41.87Zm2.93,5,0,0,0,.06Zm-1.32-6.15,0,0a.05.05,0,0,0,0,0s0,0,0,0S12.79,40.66,12.79,40.67Zm-.45,8.63,0,0a.08.08,0,0,0,0,0,.08.08,0,0,0,0,0Zm.38-13.8v0h-.06s0,0,0,0ZM13.07,50l0,0h.06v0Zm3.79-23.28.08.06s0,0,0,0l0-.07ZM13.14,46.59l0,0v0ZM15.51,42h0l0,0Zm1.23-17,0,0h0ZM13.66,45.52l0,0h0Zm2.11-4.81h0v0ZM14.11,22.92h0l0,0Zm.22,23,0,0,0,0Zm1.78,2.71v0h-.07s0,0,0,0Zm-3.87,5,0,0h0ZM11.8,23.46l0,0h0ZM14,30.94l0,0v0Zm-.7.07-.06,0v0Zm1.29-12,0,0,0,0a.08.08,0,0,0,0,0Zm.44-.68h0v.05ZM11.53,35.05v0h0Zm2.37,17,0,0v0Zm2.73-35.14,0,0h0ZM12,50.32l0,0v0Z"/><path class="cls-1" d="M13.61,0c.56.19,1.13.35,1.69.57a6.34,6.34,0,0,1,.88.49,4.8,4.8,0,0,1,1.62,2,2.23,2.23,0,0,1,.29,1.56,3.65,3.65,0,0,1-.5,1.71c-.05.06-.06.15-.11.19-.69.49-.43,1.18-.36,1.8a7,7,0,0,0,.28,1.2c.06.23.18.44.25.66a.63.63,0,0,1,0,.27,1.09,1.09,0,0,1-.24-.07c-.68-.34-1.36-.7-2.05-1a4.46,4.46,0,0,0-1.1-.42,1.78,1.78,0,0,0-1,0,2.8,2.8,0,0,1-1.35,0,7.19,7.19,0,0,1-1.43-.32.19.19,0,0,1-.1-.05c-.61-.5-1.43-.74-1.85-1.46a3.66,3.66,0,0,1-.84-2.4.88.88,0,0,0,0-.28,2.34,2.34,0,0,1,.42-1.74c.13-.24.25-.48.39-.72a.69.69,0,0,1,.23-.22c.14-.12.3-.21.43-.33A4,4,0,0,1,11.79.21,4.21,4.21,0,0,0,12.62,0Zm-.2,3.61h0l-.05.23.15-.2a1.63,1.63,0,0,0,.19-.09l.12-.14c-.06,0-.14,0-.17,0a1,1,0,0,0-.13.22Zm.95,0s-.09-.06-.11-.05l-.47.42,0,0,.46-.32Zm-1-.77a1.08,1.08,0,0,0-.11.21s.05.07.09.1a.86.86,0,0,0,.1-.16S13.42,2.87,13.38,2.79ZM13.46,5c-.06,0-.1-.1-.14-.1s-.07.06-.1.1l.14.12ZM12.58,2.8a1.5,1.5,0,0,0,0,.2l.08,0,.06-.19S12.64,2.83,12.58,2.8Zm2,3.68s0,0,0,0,0,0,0,0l.07,0Z"/><path class="cls-1" d="M154.48,24.09a1.26,1.26,0,0,0,.69-.89,3.93,3.93,0,0,1,.75-1.45,9.67,9.67,0,0,1,2.36-2.33,10.68,10.68,0,0,1,2.93-1.4,6.05,6.05,0,0,1,1.13-.18c.79-.1,1.58-.2,2.38-.25a11.18,11.18,0,0,1,1.13.13,7.1,7.1,0,0,1,1.69.37,5.2,5.2,0,0,1,2.66,1.39c.38.43.85.8,1.23,1.23a6.61,6.61,0,0,1,1.48,2.34c.21.66.51,1.28.74,1.93a3.54,3.54,0,0,1,.2.9c.11.94.15,1.89.3,2.82a21.72,21.72,0,0,1,.09,3.42c0,.8,0,1.6.07,2.4a2.9,2.9,0,0,1,0,.66,6.17,6.17,0,0,0,0,2,10.18,10.18,0,0,1-.07,1.35c0,.38,0,.75,0,1.12,0,.6,0,1.2,0,1.8,0,1.09-.11,2.18-.09,3.27a3.54,3.54,0,0,0,1.78,2.72,8.47,8.47,0,0,1,1.74,1.64,1.67,1.67,0,0,1,.12.16.62.62,0,0,1-.24.1h-1.25c-.67,0-1.34-.08-2-.08s-1.18.09-1.77.1-1.36-.06-2-.07c-.34,0-.69.07-1,.07-.53,0-1-.06-1.58,0-1.13,0-2.26.06-3.39.06-.38,0-.77-.14-1.14-.1-.84.1-1.67-.06-2.5,0a2,2,0,0,1-.49,0,1.16,1.16,0,0,1-.26-.15l.2-.17,1.68-1.48a7.67,7.67,0,0,1,.75-.64,2.22,2.22,0,0,0,1-1.73c0-.45,0-.91,0-1.36s.09-1,.1-1.57c0-1,0-1.93,0-2.89,0-.33,0-.66,0-1s0-.68,0-1c0-.63,0-1.27,0-1.9s.12-1.23.12-1.85-.06-1.52-.09-2.29,0-1.67-.07-2.5a13.14,13.14,0,0,0-.45-2.14,13.4,13.4,0,0,0-.71-1.71,3.21,3.21,0,0,0-2-1.69c-.19-.07-.38-.12-.57-.2a2.83,2.83,0,0,0-2.21.07,12.48,12.48,0,0,0-1.23.56,3.16,3.16,0,0,0-.54.44c-.07.06-.12.15-.2.17-.41.11-.59.45-.82.76a3.17,3.17,0,0,0-.51,2.26c0,.71,0,1.43,0,2.14s0,1.33,0,2-.08,1.3-.06,1.94a8.55,8.55,0,0,0,.07,1.89,4,4,0,0,1,0,1.09c0,.89-.11,1.77-.15,2.66,0,.33,0,.66,0,1,0,1,0,2,0,3,0,.72,0,1.44,0,2.16a2.74,2.74,0,0,0,1,1.74c.52.53,1.06,1,1.61,1.54.28.26.59.48.88.73a.52.52,0,0,1,.12.22.65.65,0,0,1-.23.09l-3.06,0a4.64,4.64,0,0,0-1.78,0,.55.55,0,0,1-.22,0c-.61,0-1.22-.08-1.83-.1-.34,0-.69.08-1,.07-.72,0-1.44-.05-2.16-.07H146c-1.33,0-2.65,0-4,0-.44,0-.87,0-1.31,0a.67.67,0,0,1-.19-.05,1.62,1.62,0,0,1,.1-.18A4.37,4.37,0,0,1,142,47.76c.12-.07.19-.21.29-.31a2.88,2.88,0,0,1,.59-.57,2.51,2.51,0,0,0,1.1-1.25,3.18,3.18,0,0,0,.07-1.28c0-.13,0-.25,0-.38,0-1,.09-2,.1-3.06,0-.47-.11-.94-.11-1.41,0-.87.07-1.73.07-2.6,0-.58-.07-1.16-.06-1.74,0-1.38.06-2.77.06-4.15,0-.64,0-1.28-.07-1.91a2.62,2.62,0,0,1,0-.28c0-.57,0-1.15,0-1.73a8.68,8.68,0,0,0,.07-1.13c-.08-.86,0-1.72,0-2.56A3.35,3.35,0,0,0,143,20.79c-.85-.7-1.61-1.52-2.4-2.29a1.21,1.21,0,0,1-.15-.22l.23-.06a5.43,5.43,0,0,1,1.61,0c.49,0,1-.08,1.47-.08l3.94.06c.5,0,1-.08,1.49-.08s.83.1,1.25.1,1-.07,1.52-.1c.22,0,.44,0,.66,0,.41,0,.83,0,1.24,0s.58.08.6.53a35.23,35.23,0,0,0,0,4c.07.48.05,1,.08,1.46v0Zm12.13,16.29h0v0Zm5.94,2.18h0v0Zm-22.3-8.28h0v0ZM165,34.22h0l0,0,.08.15h0Zm1.4-.23.13-.07,0,0,0,0,0,.06-.15.07v0Zm6.47,0h0l0,0Zm-1-4.09h0l0,0ZM146,29.74l0,0v0h0Zm6.79,3.91h0v0Zm-4.89,4.19h0v0Zm1.4,8.71h-.14l-.15-.07v.05h.3Zm2.18-25.15,0,0v0h0Zm19.64,23,0,0h0Zm-21.6-.87s0,0,0,0h0l.06,0,0,0Zm20.93.13h0l0-.09ZM165.55,36l0,.29c-.18.18-.37.36-.55.55l0,0,.52-.6,0-.28h0Zm6-2.73.09-.1,0,0,0,.15ZM146.93,43.69h0l0,0,.13-.14h.14l0,0-.11.06Zm18.25-13.44v0l0,0,0,0Zm-17.45,3.88,0-.05h0l.08,0v.15l.05,0Zm18.86,5,0,0-.06,0h0Zm-16.33,7.23v0l-.07,0Zm-.7-7.85,0-.07s0,0,0,0l0,0,.06.06Zm-1,6.58-.07.06.06-.07.13-.14.31-.21.17,0,0,0-.14.11c-.23-.12-.34-.07-.31.21Zm24-7.83h0l.05.05ZM146.84,28l.11-.05,0,0-.07.09,0,0Zm-.78,9.87,0,0,0,0-.05-.08Zm7,.23h0l-.07-.26-.14-.27-.14.23-.1,0h-.15v0h.24l.3,0Zm-5,9.91-.19-.18-.16-.29h0c-.11.18,0,.26.15.27,0,.12-.05.31.19.17h0Zm.31-11.22a.84.84,0,0,0,.14.06s0,0,0,0l-.18,0-.1-.13,0,0Zm.1,3.55,0,0,0,0,.16.1,0-.08Zm17.44-2h.18l0,0-.14,0s0,0,0,.08,0,0,0,0Zm-17.1,3.79h0s0-.07,0-.1a.84.84,0,0,0-.05-.17,1.1,1.1,0,0,0,0,.18S148.77,42.12,148.8,42.15Zm16.71-.68,0-.12,0,.13,0,0Zm.62-9.36.19,0V32l-.18.09v0ZM145,33.65l.15,0s0,0,0,0l-.17.1v0Zm4.29,13.83v0l-.15-.16,0,0Zm-1.44-.74.21-.16-.07-.06-.13.23v0Zm2-25.57,0,0h0l-.16-.14,0,.09Zm0,3L150,24l-.07-.08-.08.2v0Zm-.52,12.65a.47.47,0,0,0,.16,0s.06-.07.1-.11a.54.54,0,0,0-.19,0s0,.08-.06.13a.29.29,0,0,0-.1,0l-.14,0s0,0,0,.08l.15,0S149.24,36.8,149.27,36.78Zm1.42,9v0l0,0-.08-.15-.07.06Zm18.77-10.68,0,.09,0-.07-.12-.09Zm-4.16,2.3,0,.14-.06-.13-.14-.12,0,0Zm-15.88-1.45v0a.48.48,0,0,0-.18-.08c-.06,0-.11.06-.17.09a.86.86,0,0,0,.21.07C149.33,36,149.37,36,149.42,35.93Zm18.26,1.4v0l0,0,.09.2.08-.11ZM151,21.27v0l-.12-.2-.08.06ZM149.62,47h.23l-.09-.17-.13.19-.18-.07,0,.08ZM166.8,34.43l.19-.3-.08,0-.09.29a.09.09,0,0,0,0,0v0Zm-14.68,9.73a.22.22,0,0,0-.21.29.3.3,0,0,0,0,.1,2.92,2.92,0,0,0,.14-.31.29.29,0,0,0,0-.1v0Zm20.75-2.35h0l0,.29L173,42ZM171,38.74l-.1-.13,0,0,.14.08.15.46h0Zm.64-2.61-.11-.21-.07.07.2.12c0,.06,0,.11,0,.16s-.06.1,0,.14a.33.33,0,0,0,.07.16c0-.12,0-.23,0-.35A.41.41,0,0,0,171.63,36.13Zm-19.92,1.21-.13.32h.12v-.33l.21-.34.35,0-.19-.24-.15.23C151.56,37,151.55,37,151.71,37.34Zm-.94,2v0l.16.22.13-.15Zm14.8,4.27,0,0v0c.5.15.5.15.45-.36.45.17.45.17.59-.36,0-.14.11-.26.15-.39a.65.65,0,0,0-.06-.23.6.6,0,0,0-.19.16.64.64,0,0,1-.81.24.62.62,0,0,0-.33,0s-.07.14-.1.22a1.35,1.35,0,0,0,.32.11c.22,0,.46,0,.44.31A.61.61,0,0,1,165.57,43.61Zm-14.12-4.86c-.06,0-.12,0-.16,0a.79.79,0,0,0-.18.14,1.33,1.33,0,0,0,.28,0s0-.13.05-.2l.21-.31s0,0,0-.07-.09.2-.13.29A1,1,0,0,1,151.45,38.75ZM150,38.29l.35-.34c-.09.3-.19.59-.26.89a.26.26,0,0,0,0,.18c.14,0,.31.19.43-.1s.11-.3-.16-.24c0-.08-.06-.21,0-.24a5.34,5.34,0,0,1,.48-.35c.08-.06.22-.15.21-.17a.54.54,0,0,1,.14-.7.13.13,0,0,0,0-.1c-.07-.07-.15-.18-.23-.19s-.14.13-.22.2.1.46-.22.55l0-.11.05.09c.08.2,0,.27-.2.31s-.3-.08-.33.33h-.23c.06-.18.14-.36.19-.54s-.05-.15-.08-.22-.21.09-.2.12a4.22,4.22,0,0,0,.1.62l.09.26Zm22.18-3.41.41.1s0-.13,0-.14a2.37,2.37,0,0,0-.35-.19l0,.24,0,0ZM150.69,44l0,0,.06.21c.06,0,.15-.09.16-.14a1.18,1.18,0,0,0,0-.37h-.19Zm18-.19c-.05.33.13.43.41.39.06,0,.1-.07.15-.11s-.11-.11-.15-.1-.36.12-.42-.16a.82.82,0,0,0-.18-.19,2.13,2.13,0,0,0-.27-.08c0,.14,0,.27,0,.41a.38.38,0,0,0,.23,0A1.1,1.1,0,0,0,168.72,43.84Zm-2.9-1.93.25.06-.11-.75-.1,0c0,.22,0,.44,0,.66l-.25.26.08.07Zm-13.38-2.32v0c-.26-.28-.31,0-.42.15s-.07.16-.05.18a.54.54,0,0,0,.25.09s.1-.08.12-.14A2.46,2.46,0,0,0,152.44,39.59Zm15.68,1c0-.08-.1-.15-.13-.23s-.25-.22-.38-.1,0,.17.15.21,0,.06,0,.09c.09.23.08.23.31,0a.8.8,0,0,0,.21.05.51.51,0,0,0,.21-.1s0-.16-.07-.17a.29.29,0,0,0-.24,0C168.16,40.41,168.15,40.52,168.12,40.6Zm-17.78-4.41c.23.11.46.23.69.32.06,0,.16,0,.24-.06a.85.85,0,0,1-.19-.06.21.21,0,0,1,0-.14,2.58,2.58,0,0,1,.08-.26,1,1,0,0,1-.26.12c-.09,0-.2,0-.3,0a1.22,1.22,0,0,0-.24.1l0,.09Zm18.47,6.15v.19h.07l-.08-.17c-.25-.33-.37-.33-.69,0v0c.06.13.69,0,.14.39,0,0,0,.15,0,.18s.18,0,.19,0a2.81,2.81,0,0,0,.17-.35A1.9,1.9,0,0,1,168.81,42.34Zm-20,1.25-.07-.23-.08,0,.16.19c-.06.08-.16.15-.19.24-.1.27-.09.28-.31.14s-.15-.16-.22-.15a.42.42,0,0,0-.26.14s0,.13,0,.19a.78.78,0,0,1,.21,0,.24.24,0,0,1,.16.09.88.88,0,0,1,.07.23,2.48,2.48,0,0,0,0,.27s0,0,0,.07l.16-.26-.24-.06c.22-.05.45-.09.67-.15.07,0,.18-.1.17-.11C149,44,148.9,43.79,148.8,43.59Zm1.42-4H150c0,.22.05.44.09.65s.07.1.11.15,0,0,.05,0l.48-.18c-.18-.34.12-.27.28-.32l-.1-.1a2.27,2.27,0,0,1-.35-.26c-.16-.22-.14-.23-.36.07Zm21.1,1.54-.13-.12a.81.81,0,0,0,.12-.82c0-.1-.16-.19-.14-.27a1,1,0,0,1,.19-.33,1.53,1.53,0,0,1,.18.18s.05.1.08.15.06-.1,0-.15,0-.32-.08-.48l-.43.21a.47.47,0,0,0-.11.13c-.11.19-.25.2-.38,0s-.59-.21-.88-.31c0,0-.13.09-.19.14.4.22.05.61.19.88a1,1,0,0,1-.69-.58c0-.1,0-.23,0-.34a1.73,1.73,0,0,1-.28.26c-.23.13-.14.3-.06.46a1.22,1.22,0,0,1,.19,1,.34.34,0,0,0,.07.33c.25.16.41.27,0,.36,0,0,0,.12,0,.18s.07.2.1.3v0c-.1.14-.14.28.08.33s.13-.14.14-.25c0-.4.06-.4.4-.17s.22.29,0,.65a1.32,1.32,0,0,0-.07.5l.28-.29s0,0,0,0c.12-.22.25-.46.39,0a.33.33,0,0,0,.14,0,1.13,1.13,0,0,0,.12-.18.69.69,0,0,1,.16.23,1.72,1.72,0,0,1,0,.32.31.31,0,0,0,.05.12s0-.06,0-.09c0-.32.07-.38.27-.09s.35-.08.53-.1c0,0,0,0,0,0h0l-.06,0c-.45-.24-.45-.24,0-.55l.08-.1s-.07,0-.1,0l-.27,0H171c.05-.1.1-.2.14-.3a.94.94,0,0,0,0-.16.34.34,0,0,0,.34-.34c.15.08.36-.16.48.1,0,0,.14,0,.19,0a2.88,2.88,0,0,0,.27-.22c-.34-.18-.17-.63-.45-.84,0,0-.11,0-.15,0a.81.81,0,0,1-.12-.18h0C171.64,40.82,171.62,41.11,171.32,41.17Zm-3-.09c-.15,0-.24,0-.3,0s-.39.3-.57.45a.16.16,0,0,0,0,.12.41.41,0,0,0,.58,0c.05-.05.08-.12.13-.18s.2-.17.28.1.12.23.24.06.16-.28.13-.3A4.1,4.1,0,0,0,168.31,41.08Zm-.95,1.34c-.05,0-.13,0-.15,0a1.07,1.07,0,0,0-.19.28s0,.12,0,.18a1,1,0,0,1,.18-.17c.06,0,.19-.08.22-.05a.85.85,0,0,1,.16.28c0,.1,0,.25.09.3s.2,0,.31,0c0-.08-.12-.15-.12-.23A.49.49,0,0,0,167.36,42.42Zm-.2.8a4.29,4.29,0,0,0-.48.36c-.05.05,0,.2,0,.31a1.3,1.3,0,0,0,.35-.11,1.54,1.54,0,0,0,.28-.29l.08-.11A1.4,1.4,0,0,0,167.16,43.22Zm-16.95-5.85c.16-.17.28-.28.37-.4a.37.37,0,0,0-.17-.19c-.3-.06-.1.25-.22.34S150.2,37.23,150.21,37.37Zm17.08-2a4,4,0,0,0,.38-.22s0-.08,0-.08-.27,0-.4,0a1.55,1.55,0,0,0-.23.07l-.11.06a.16.16,0,0,0,.07.07Zm5.55,10.73-.32-.39c0,.06-.08.14-.06.18a2.49,2.49,0,0,0,.25.38Zm-22-23.6-.18-.3c-.06.09-.17.18-.16.27s.11.16.18.24Zm.38,18.1.13.27.24-.42s-.07-.07-.1-.11Zm19.5-1.82-.24-.14a1.12,1.12,0,0,0-.11.26s.1.11.15.16Zm-4.8-2-.2-.3a.6.6,0,0,0-.06.22.89.89,0,0,0,.14.25Zm7,4-.19-.16a1.43,1.43,0,0,0-.14.2s.06.09.08.09ZM150.21,21.4c0,.06-.06.1-.05.12l.18.25.09-.09A2.2,2.2,0,0,0,150.21,21.4Zm-.62,18.71-.14.25s.05.06.08.09l.24-.25Zm19.87,3.07-.41-.12,0,.12a.91.91,0,0,0,.25.11C169.31,43.3,169.37,43.24,169.46,43.18ZM152.4,39l-.16-.28s-.1.09-.1.11a1.83,1.83,0,0,0,.16.26Zm14.73-7.72-.14-.18a.89.89,0,0,0-.13.23s.06.1.09.15ZM150,47.53c.06-.09.12-.16.16-.23s0,0-.06-.07-.08.09-.11.15A.86.86,0,0,0,150,47.53Zm19.09-1.19c-.08,0-.17-.1-.18-.09a.59.59,0,0,0-.12.22s.08.08.13.12Zm2.26-2.3c0-.11.06-.18,0-.21s-.09-.08-.14-.12-.09.11-.08.16S171.22,44,171.32,44Zm-22.6,3.07-.1-.2c0,.07-.07.13-.06.19a.78.78,0,0,0,.09.21Zm17.05-10c0,.08-.09.13-.08.16s.1.12.15.18.07-.11.07-.17S165.83,37.21,165.77,37.13ZM147.6,43.26l-.22-.2-.09.07.18.27Zm4-.87-.18-.29s0,.07,0,.1.1.22.15.33Zm.59,4.1c-.08,0-.13-.08-.15-.07a.23.23,0,0,0-.08.12s0,.07.08.11Zm-.27-10.05a2.92,2.92,0,0,0-.19-.23l-.1.07a.9.9,0,0,0,.14.2S151.81,36.46,151.89,36.44Zm18.35,2.48c-.08-.05-.13-.1-.15-.09s-.16.12-.24.18.1.09.12.08A1.59,1.59,0,0,0,170.24,38.92Zm1.24-.47c-.06-.05-.12-.1-.13-.09a.58.58,0,0,0-.11.15s.07.06.1.09Zm-25.87.26,0-.06-.12-.13s-.06,0-.1-.05a.89.89,0,0,0,.08.17S145.57,38.69,145.61,38.71Zm25.32-.77c0-.08.11-.16.15-.24l-.06,0-.2.21Zm-5.08,9.38a1,1,0,0,0-.17-.14s-.07,0-.1.08a.93.93,0,0,0,.13.15S165.78,47.37,165.85,47.32ZM152.7,45.14l-.15-.14s-.11.09-.11.13.06.11.1.16Zm12.92-7-.05-.11a.53.53,0,0,0-.15.11s0,.08.05.12ZM147.14,41a1,1,0,0,0-.07.21s.06.07.1.1a.51.51,0,0,0,.09-.16S147.21,41.06,147.14,41Zm20.13-.61a.89.89,0,0,0-.26-.1s-.07.06-.11.09.07.1.11.1A1.13,1.13,0,0,0,167.27,40.37Zm-1.43,4c-.05.05-.1.07-.11.11a.3.3,0,0,0,0,.13.75.75,0,0,0,.15-.09S165.87,44.47,165.84,44.4Zm.83-11.24-.2-.06s-.06.07-.05.08a.93.93,0,0,0,.15.13Zm-17.11,6.36-.08-.1s-.06.09,0,.12a.91.91,0,0,0,.1.13Zm1.49-3.8c0-.08.08-.12.07-.15a1.43,1.43,0,0,0-.08-.22s-.1.06-.09.08A1.43,1.43,0,0,0,151.05,35.72Zm17.55,11.1s0-.08-.08-.08a.12.12,0,0,0-.07,0s0,.06,0,.08Zm-17.2.07s-.05.08,0,.1a1.4,1.4,0,0,0,.09.17s.05,0,0-.07S151.43,47,151.4,46.89Zm14.93-17.24-.08-.13s-.07.06-.07.09,0,.07.07.1ZM168,34.51a.7.7,0,0,0-.14,0s0,.05,0,.08l.13.06Zm5.08-.83,0,0,0,.1,0,0Zm-25.46-3.19a1.21,1.21,0,0,0-.1.19.89.89,0,0,0,0,.14s.1-.06.13-.1S147.68,30.63,147.64,30.49Zm4.8,3.11c-.09,0-.14-.07-.18-.06a.31.31,0,0,0-.12.05s.08.09.12.09S152.35,33.64,152.44,33.6Zm13.92-2.32a.87.87,0,0,0,.11-.22s0-.08-.06-.12a.82.82,0,0,0-.11.17S166.33,31.19,166.36,31.28Zm1.7,7.09,0-.09-.09,0a.67.67,0,0,0,.06.12Zm-22.5-10.2-.1-.05-.09.1.08.05ZM153.11,37l0-.11a.62.62,0,0,0-.17.11s0,.08,0,.12Zm-1.56-1.16.15.09s.05-.06.05-.09,0-.06,0-.09Zm14.55-.18s-.11.08-.13.12,0,.09,0,.13a.21.21,0,0,0,.12-.08S166.11,35.75,166.1,35.68Zm3.08-.24s0-.07-.06-.09l-.07,0,.07.11ZM167,41.81s-.09.08-.09.12,0,.08.06.12a.41.41,0,0,0,.12-.11S167,41.87,167,41.81ZM150.69,42l-.06-.12-.11.08.1.12Zm18,1.48c.05-.05.1-.08.12-.12s0-.08,0-.12a.45.45,0,0,0-.13.1S168.71,43.46,168.73,43.52ZM152.75,23l-.06-.09a.91.91,0,0,0-.11.16s0,.05,0,.08ZM167.9,43.82l.1-.13-.08,0-.09.12Zm-17.27-20c.05-.06.1-.09.11-.13s0-.08-.05-.12-.08,0-.09.09S150.62,23.71,150.63,23.78Zm18.49,1.83s0,.05.07.05.05,0,.07-.05l-.09-.07ZM150,44.94l.14-.09s-.07-.1-.09-.1l-.16.09Zm20.9-.86a.46.46,0,0,0-.14-.1l-.14,0s.07.1.12.12S170.8,44.1,170.88,44.08Zm-2.37-9.53,0-.09-.08,0a.61.61,0,0,0,.05.12Zm-23.1,10.74,0-.08a.18.18,0,0,0,0,.09.12.12,0,0,0,0,.08Zm26.91-9.79v0s0,0,0,0l0,.08ZM170,35.44l0,.09H170s0,0,0,0Zm2.89-6.77,0-.07-.07.06s0,.06,0,.05ZM150,45.7l0,.09.06,0a.53.53,0,0,0,0-.12Zm16.6-9.16.07-.07-.09,0a.12.12,0,0,0,0,.08Zm-20.53,4.77s0,.06,0,.08.05,0,.08,0a.32.32,0,0,0,0-.09S146.1,41.32,146.07,41.31Zm5.42.13-.08,0s0,.05,0,.08.07,0,.08,0S151.48,41.47,151.49,41.44Zm-3.38,5.48L148,47l.09.09.09-.1S148.14,47,148.11,46.92Zm18.33-5.14s.05-.05.05-.07,0-.07,0-.1a.28.28,0,0,0-.07.09S166.43,41.76,166.44,41.78Zm-20.66-2.56c0,.05,0,.1.05.1l.15,0s0-.1-.06-.1A.43.43,0,0,0,145.78,39.22Zm-.46,0,0-.08,0,0-.06.06Zm1,1.39v.15h.06a.36.36,0,0,0,0-.1S146.36,40.66,146.33,40.63Zm19.09,4.25-.06-.05,0,0,.06.05Zm2-4a.69.69,0,0,0-.11-.12s-.08,0-.07.05a.15.15,0,0,0,0,.12S167.36,40.9,167.42,40.88Zm-18.54-.83-.11.06.1.12s.07,0,.07-.06A.67.67,0,0,0,148.88,40.05Zm21-2.16s0-.07,0-.08-.06,0-.09,0,0,.07,0,.09S169.8,37.9,169.83,37.89Zm-.18.77-.07,0a.15.15,0,0,0,0,.08s.05,0,.07,0Zm-3.82-6.35h-.05l0,.08s0,0,0,0S165.83,32.33,165.83,32.31Zm1.56,0h0s0,0,0,.07h0Zm-1.26.26s.08,0,.09,0,0-.06,0-.09a.16.16,0,0,0-.09,0S166.13,32.53,166.13,32.56ZM147.8,44.47l.07,0,0,0s0,0,0-.08Zm19.56-11-.07.06.07.08s0-.05,0-.08S167.38,33.51,167.36,33.49Zm-1.27,11.4.07.06,0,0-.07-.07Zm-.86-11.38,0,0-.05,0s0,0,0,0S165.23,33.5,165.23,33.51Zm4.88,10.16v0l-.07,0s0,0,0,0Zm-.34-10.15,0-.09-.08,0a.61.61,0,0,0,0,.11Zm-1.65.64s-.07,0-.07,0,0,.06,0,.09.07,0,.08,0S168.13,34.19,168.12,34.16Zm.62,10.36v-.08h0a.22.22,0,0,0,0,.08Zm1,.14.07.07a.07.07,0,0,1,0,0l-.06-.07Zm-3.25,0v.06h0v-.05Zm-20.29.24s-.07,0-.08.06a.47.47,0,0,0,0,.09.6.6,0,0,0,.08-.08S146.24,45,146.23,44.92Zm26-5.35,0-.07h-.08l0,0Zm-25.33,2,0,0,0,0,0,0Zm-.35.13s0,0,0,.05h0s0,0,0-.05Zm3.25-2.52,0-.08-.06.06v0Zm-.44-.35-.06-.06-.05.08a.31.31,0,0,0,.09.07Zm3.51,8.28,0-.09,0,0s0,.07,0,.1Zm-7.77-8.55-.07,0,0,0S145.08,38.61,145.1,38.58Zm4.1,2.08s-.07,0-.08.05,0,.06,0,.09.07,0,.07,0S149.21,40.7,149.2,40.66ZM172,40.23l-.07,0,0,0,.08,0ZM146.13,41l-.1,0s0,0,0,.07l0,0Zm21.17-.9.06.06,0,0-.06-.05Zm-.36-.17,0,0,0,0,0,.06Zm-16.37,1.17s-.07,0-.08,0,0,.07,0,.1l.08-.05S150.58,41.1,150.57,41.07Zm22.17.12,0,0,0,.06Zm-3.1-4.35,0-.08s0,0,0,0,0,0,0,.05S169.62,36.82,169.64,36.84Zm-2.37-.7s-.07,0-.08,0,0,.06,0,.1.07,0,.09-.06S167.28,36.17,167.27,36.14Zm3.42-.52a.29.29,0,0,1,0,.09l0,0a.29.29,0,0,1,0-.09Zm-22.82.12s0-.07-.05-.08-.06,0-.08,0a.69.69,0,0,0,0,.08Zm18.68-.16,0,0v0l0,0Zm-16,0,.06.06,0,0,0-.07Zm18.83,8.13,0-.09,0,0a.28.28,0,0,0,0,.09ZM151.64,35l0-.05a.11.11,0,0,0,0,.05.09.09,0,0,0,0,0Zm17.42,2.93s0,0,0,0l0,0v-.07Zm3.19,4.43,0,0v0Zm-20.18-4.44v0h0Zm1.31,9.61,0,0,0,.06Zm-5.11-9.69a.76.76,0,0,0,.1-.13s0-.06,0-.09-.09,0-.11.08S148.24,37.72,148.27,37.79ZM169,37.45l0,0s0,0,0,0l0,0ZM148.66,47.84a.3.3,0,0,1,0-.08s-.05,0-.05,0v.07ZM170.8,36.91l0,.06,0,0s0,0,.06,0ZM151.37,30.8l0-.05a.27.27,0,0,0-.09,0s0,0,0,0Zm-.36-9s.08,0,.09,0,0-.06,0-.09l-.11.07Zm15.88-1.89.07,0,0,0a.43.43,0,0,0,0-.07Zm6,12,0,0h0Zm-28-2.85,0,0,0,0,0,.07Zm20.89-4.88-.06-.05s0,0,0,0a.25.25,0,0,0,0,.07Zm5.6,13.72-.06,0s0,0,0,0l0,0Zm-.81.06,0,0h0Zm-5.65-.08v0h0Zm4.47-.27v0l0,0ZM167,41.53v0h0v-.06Zm-19.72,5-.09,0,0,0s0,.06.06.06S147.23,46.6,147.25,46.58Zm22.24-.19v.07l0,0Zm-4.39-2,0,0h0Zm-13.24,2.73,0,0,0,0s0,0,0,0Zm15.8-5h-.08l0,0Zm3.7-4.75h0s0,0,0,0l0,0S171.36,37.32,171.36,37.33ZM151.09,44.4s0,0,0,0,0,0,0,0l0,.06ZM147.32,47h0v0ZM170,37h0l0,.05Zm-2.87.08,0,0h0ZM152.81,42l0,0h0Zm15.39-4.77,0,0,0,0a.05.05,0,0,0,0,0ZM167,25.67h0v0ZM145.81,39.82h0v0Zm-.68.9,0,0h0Zm7.82.2,0,0V41Zm-4-1.59-.09,0v.07h.05Zm-.55.27,0,0,0,.09,0,0Zm3.79,1v0h0ZM146.52,46v0h0Zm20.57-4.72,0-.07h0Zm-.3-2.66,0,0,0,0,0,0Zm4.93-.09v0h0Zm-24.72.8,0-.06s0,0,0,0A.13.13,0,0,0,147,39.36Zm2.22-.08,0,0,0,0Zm-3.7-12.35h0s0,0,0,0h0A.1.1,0,0,0,145.52,26.93Zm.93,16.49,0,0,0,0Zm25.38.25v0h0v0Zm-22.74-9.48s0,0,0,0h0l0,.06Zm.37-.11s0,0,0,0,0,0,0,0h0S149.47,34.07,149.46,34.08Zm1.79.54,0,0-.07,0,.07,0S151.24,34.64,151.25,34.62Zm1.41,9,0,0,0,0Zm.88-10.25v0l0,0Zm18.39,9.7,0-.05-.06,0Zm-21.73.09s0,0,0,0h0s0,0,0,0Zm22,1.07,0,0h0Zm-2.07,3.45h0v0l0,0A.1.1,0,0,0,170.17,47.7ZM165.8,35.54l0,0,0,0,.05.06Zm-18.21,0,0,0,0,.07h0A.08.08,0,0,0,147.59,35.52Zm24.85-6.35h0v-.05ZM147.1,42.35v0Zm3.16,5.42,0,0,0,0Zm.46-.41v0l0,0s0,0,0,0S150.74,47.36,150.72,47.36ZM166.9,36h0s0,0,0,0,0,0-.05,0A.1.1,0,0,0,166.9,36Zm-17.25-4h0v0Zm16-2.44,0,0s0,0,0,0l0,0Zm6.26,5.37s0,0,0,0l-.09,0s0,0,0,0Zm-5.71-3.15,0,0h.05ZM151.5,35.27l-.08,0,0,0s0,0,.05,0S151.48,35.29,151.5,35.27Zm-1.3-13,0,0h0Zm20.07,10.47,0,0h0Zm-3.09,9.08,0,0v0Zm-20.72-.66,0,0h0Zm1.09-2.76,0,0h0Zm1.77-12.18,0,0h0Z"/><path class="cls-1" d="M34.42,17.72a9.44,9.44,0,0,1,1.29-.15,20.4,20.4,0,0,0,2,.15,10.59,10.59,0,0,1,2.11.13,12.83,12.83,0,0,1,1.49.34c.59.16,1.19.33,1.77.54a9,9,0,0,1,3.31,2.14,7.74,7.74,0,0,1,1,1.47,6.92,6.92,0,0,1,.66,1.19,10.11,10.11,0,0,1,.33,1.26c.2.77.44,1.54.59,2.32a10.82,10.82,0,0,1,.14,2c0,1.2-.08,2.4-.13,3.6a4.68,4.68,0,0,0,0,.65,24.54,24.54,0,0,1-.18,3c0,.26.06.51,0,.77,0,.73-.08,1.47-.1,2.21,0,.43,0,.87,0,1.3a16.49,16.49,0,0,0-.07,1.72,14.87,14.87,0,0,0,.29,2.11,1.47,1.47,0,0,0,1.45.84,2.78,2.78,0,0,0,1.53-.78s.11,0,.16-.08a.49.49,0,0,1,0,.16,4.09,4.09,0,0,1-.83,2.63,6.72,6.72,0,0,1-2.17,1.94,16.73,16.73,0,0,1-1.67.49h-.11a6.43,6.43,0,0,1-2.89.17,4.66,4.66,0,0,1-2.46-.72,8.35,8.35,0,0,1-1.45-.94A6.14,6.14,0,0,1,38.91,45a5.46,5.46,0,0,1,0-.7.72.72,0,0,0-.09-.2s-.11.08-.13.13A12.11,12.11,0,0,1,38,45.57a9.76,9.76,0,0,1-1.34,1.65c-.54.5-1.21.87-1.78,1.34a8.34,8.34,0,0,1-1.79.9,2.25,2.25,0,0,1-.69.17c-.35.07-.71.1-1.07.16a2,2,0,0,1-1.12.06c-.25-.1-.57,0-.86,0a8.9,8.9,0,0,1-3.64-1.13,7.57,7.57,0,0,1-2.95-2.83A11.31,11.31,0,0,1,22,43.72c-.16-.53-.26-1.09-.38-1.63a1.76,1.76,0,0,1-.06-.38c.06-.8.11-1.6.21-2.39a6.86,6.86,0,0,1,1.21-3c.24-.36.45-.74.7-1.1a4.26,4.26,0,0,1,1.55-1.43,2.48,2.48,0,0,0,.51-.41,1.63,1.63,0,0,1,1-.56.67.67,0,0,0,.4-.16,7,7,0,0,1,2.65-.87,5.47,5.47,0,0,1,.7-.16c.35,0,.71-.07,1.06-.09.51,0,1-.06,1.51-.06a8.24,8.24,0,0,1,.85.11,3.41,3.41,0,0,0,.43.06,4.2,4.2,0,0,1,1.81.37c.36.17.76.24,1.13.39s.83.37,1.23.58c.19.09.36.2.34-.13a22.93,22.93,0,0,0,0-3A6.22,6.22,0,0,1,39,28.1a8.47,8.47,0,0,0-.05-2c-.08-.55,0-1.13,0-1.68a4.15,4.15,0,0,0-.29-2.06,1.54,1.54,0,0,1-.19-.46,4.29,4.29,0,0,0-1.78-2.52,3,3,0,0,0-1.25-.5,3.42,3.42,0,0,0-2.19.11,1.56,1.56,0,0,0-.57.62c-.31.6-.54,1.24-.85,1.83-.72,1.33-1.48,2.63-2.2,4-.51.92-1,1.87-1.46,2.8a6.93,6.93,0,0,1-.48.72c-.11.15-.18.07-.24,0s-.11-.27-.17-.4c-.27-.6-.54-1.19-.8-1.79-.11-.25-.2-.51-.31-.76s-.15-.36-.23-.54-.11-.11-.13-.18a27,27,0,0,0-1.35-3.07.69.69,0,0,0,0-.1,6.49,6.49,0,0,0-.78-1.79c-.17-.22-.09-.36.17-.43.87-.25,1.73-.52,2.59-.78.32-.09.63-.2.95-.28s.74-.15,1.11-.22c.75-.14,1.51-.26,2.26-.41a13,13,0,0,1,2.84-.4,5.73,5.73,0,0,0,.91-.14Zm-9.2,28.05h0l-.07-.06Zm.58-.66h0l.14.06v0Zm.43-1.58,0,0v0l-.15-.07,0,0Zm16.6-19s-.11,0-.15,0-.07.08-.1.13.1,0,.13,0,.07-.07.11-.11v0Zm-.55-1.72,0,.1,0-.09a.08.08,0,0,0,0-.05c0-.07,0-.13.05-.2h-.07ZM35.55,45.22a3,3,0,0,0,1.7-.57c.25-.17.43-.45.68-.62a2.2,2.2,0,0,0,.69-1c.46-1,.07-2,.17-3a8.82,8.82,0,0,1,.08-1.77A1.17,1.17,0,0,0,39,38c0-.53-.07-1.05-.09-1.57a6.32,6.32,0,0,1,0-.87,8.85,8.85,0,0,0,.06-1c-.06-.68-.22-.81-.91-.92l-.21,0a2.75,2.75,0,0,0-2.16,0c-.09,0-.22,0-.33,0a1.36,1.36,0,0,0-.41.08,5,5,0,0,0-2,1.63,8.59,8.59,0,0,0-1.17,2.65,4.46,4.46,0,0,0-.22,1.18,12.27,12.27,0,0,0,.19,2.56,3.36,3.36,0,0,0,.5,1.41.22.22,0,0,1,.06.15c0,.76.68,1.12,1.16,1.5A2.88,2.88,0,0,0,35.55,45.22Zm7.51-21a1.12,1.12,0,0,0,.12-.29c0-.07-.09-.13-.14-.19L42.8,24ZM25.91,44.51l-.25-.25s-.1.09-.09.11.11.21.17.32ZM44.22,30.16l-.11-.09a.35.35,0,0,0,0,.13s0,.08.06.12Zm.18-8.07,0-.08s-.08.06-.07.07a.34.34,0,0,0,.07.11Zm.19,1.31-.07-.06s0,.06,0,.08.05,0,.07.06ZM25.81,45.55l0,0a.35.35,0,0,0-.05.08l0,0ZM29,46l.07-.06s-.07,0-.1,0,0,0-.06.06Zm-4.24.14-.05.07.07,0,0,0S24.82,46.13,24.8,46.11ZM44,31.25v.07s0,0,0,0S44,31.26,44,31.25Zm2.26-8.16,0,0h0Zm-4.72-.16,0,0s0,0,0,0,0,0,0,0ZM30.66,47.39v0Zm-2.07,0,0,0h0ZM46.37,25.88V26a0,0,0,0,0,0-.08Zm-2.54,1.48h0a0,0,0,0,1,0,0h0ZM27.69,44.69h0v0ZM42.84,25.36l0,0v0ZM30.9,44.89l0,0h0Zm-6.5-1.13,0,0v0ZM44.18,23.37l0,0h0ZM25.07,42.51l0,0,0,0,0,0A.23.23,0,0,0,25.07,42.51Z"/><path class="cls-1" d="M118.53,31.33c.92.11,1.83.25,2.75.34a7.28,7.28,0,0,1,2.23.67c.54.24,1.1.47,1.65.7a.22.22,0,0,0,.17-.09,2.38,2.38,0,0,0,0-.38c0-.45-.17-.91.08-1.34a.07.07,0,0,0,0-.05,5.89,5.89,0,0,1-.08-2.05,9.1,9.1,0,0,0,0-1l-.06-2.66a2.41,2.41,0,0,1,0-.38,5.61,5.61,0,0,0-.7-3.56c-.19-.33-.35-.68-.53-1a1.79,1.79,0,0,0-1.17-1.06.79.79,0,0,1-.35-.15,2.09,2.09,0,0,0-1.62-.48,2.3,2.3,0,0,0-1.12.13,2.13,2.13,0,0,0-.74.85c-.55.93-1.07,1.89-1.59,2.84s-1.14,2.12-1.72,3.18a24.32,24.32,0,0,1-1.64,3c0,.07-.11.13-.17.2a1.37,1.37,0,0,1-.18-.24c-.24-.59-.46-1.18-.72-1.76-.18-.42-.43-.8-.62-1.21s-.2-.62-.34-.91-.28-.42-.38-.65c-.27-.65-.5-1.32-.78-2-.19-.42-.43-.82-.63-1.24s-.26-.63-.37-1c0,0,.07-.12.12-.14a5.9,5.9,0,0,1,.67-.23,7.25,7.25,0,0,0,1.72-.46c.74-.42,1.6-.31,2.34-.69a2.57,2.57,0,0,1,.7-.11,3.28,3.28,0,0,0,.7-.1,13.08,13.08,0,0,1,1.36-.27,6.85,6.85,0,0,0,1.63-.26.8.8,0,0,1,.37-.08c.47,0,.93,0,1.4,0a8.79,8.79,0,0,1,1.78-.05,7,7,0,0,0,1.12,0,22.32,22.32,0,0,1,3.47.37,3.44,3.44,0,0,1,1.79.57,1.08,1.08,0,0,0,.46.18,3.6,3.6,0,0,1,1.63.82c.32.26.72.42,1,.7a8.53,8.53,0,0,1,1.8,2.29c.25.46.38,1,.59,1.4a10,10,0,0,1,.73,3.23c.07.56.22,1.12.26,1.69s0,1.31,0,2c0,1.08,0,2.15,0,3.23,0,.52-.1,1-.14,1.57a5.62,5.62,0,0,0,0,.58,1.24,1.24,0,0,1,0,.27,15,15,0,0,0-.16,2.2c-.1.63.06,1.25-.07,1.88a8.64,8.64,0,0,0,0,1.76c0,.21-.14.44-.1.63a9.65,9.65,0,0,0,.52,1.6,1.24,1.24,0,0,0,.63.48,1.64,1.64,0,0,0,2.2-.74c0-.07.11-.11.16-.17a.52.52,0,0,1,0,.21,2.06,2.06,0,0,1-.26,1.37.55.55,0,0,0-.11.3,2.42,2.42,0,0,1-.66,1.4,4.72,4.72,0,0,1-1,1A7.88,7.88,0,0,1,132,49.91a5.18,5.18,0,0,1-2.15-.31A7.56,7.56,0,0,1,127,48a4.44,4.44,0,0,1-.65-.65,11.61,11.61,0,0,1-.89-1.67,6.38,6.38,0,0,1-.23-1.17,1.13,1.13,0,0,0-.13-.2.7.7,0,0,0-.16.13c-.22.38-.42.76-.65,1.13a11.35,11.35,0,0,1-.73,1.08c-.19.24-.47.41-.65.65a5.43,5.43,0,0,1-2.06,1.6,4.63,4.63,0,0,1-1.69.66c-.56,0-1.09.27-1.65.33a12.37,12.37,0,0,1-1.61,0c-.25,0-.51,0-.76,0a13.78,13.78,0,0,1-2.21-.57,1.67,1.67,0,0,1-.57-.31,4.51,4.51,0,0,0-.74-.46,3.1,3.1,0,0,1-1.37-1.13,8.27,8.27,0,0,1-1.22-1.8,8,8,0,0,1-.73-2.09c-.08-.81-.25-1.61-.38-2.41a.86.86,0,0,1,0-.16,9.6,9.6,0,0,1,.74-3.29c.2-.44.37-.91.59-1.35.09-.19.31-.32.4-.51a4.39,4.39,0,0,1,1.28-1.43c.56-.44,1.09-.91,1.65-1.35a2.46,2.46,0,0,1,.59-.28c.63-.23,1.26-.46,1.89-.67a3.72,3.72,0,0,1,.75-.17A13,13,0,0,1,118.53,31.33Zm13.93-5,0,0h0ZM110.53,40l-.06.07,0-.08,0,0ZM130.25,24.3v0l0,0h0ZM113.14,42.68h0l0,0s0,0,0,0Zm14.49-17.35h0Zm.88-.64h0v0Zm-15,10.8v0l0,0h0Zm16.69,1.08h0l0,0h0ZM133,46.21h0ZM128,21.53h0v0h0Zm.45.24h0v0ZM113.78,43.54l0,0v0l.18,0,.19.23,0-.12-.24-.1Zm1.45,4.31-.07.07h.06v-.09h0Zm17.51-18.27,0-.14,0,0v.1h0Zm-2.48,2.67.05-.09,0,.1v0Zm-1.19,3.29h0l0,0h0ZM112.39,43.7l0,0h0l.11.06,0,0Zm16.12-9v0h0l-.05-.07Zm-.15,8.18h.14l-.14,0s0,0,0,0,0,0,0,0Zm-.28,0-.1,0,0,.05,0-.09.11-.06,0,0Zm4.5,3.14v0l-.07,0Zm-17.12-1.28,0,0h0v.26c-.4.12-.4.12-.19.42.06.09.11.19.16.28l.09.12a.77.77,0,0,0,0-.15l-.09-.69h.12c0,.07,0,.16,0,.21a1.88,1.88,0,0,0,.22.26s.05,0,.05-.07a1.3,1.3,0,0,0-.08-.34s-.15,0-.24,0Zm15,.61.11-.1,0,0-.09.14v0Zm-17.32-4.79a.09.09,0,0,0,0,0h0l-.06,0,0-.13,0,0Zm20.55,5,0,0h0l-.07-.06v.06Zm-19.57-1.07.14,0,0-.06-.08.1h0l0,0ZM115,47h0l0-.08Zm18.77-5.48,0,.08v-.09Zm-2.61-20.84-.13.06,0,0,.09-.11Zm-18.59,1.12,0-.23,0,0a1.39,1.39,0,0,0,.06.19h0Zm18.89.4.14.11a.52.52,0,0,1-.06.15c-.4.29-.39.31-.12.7.06.09,0,.24.06.36-.15,0-.28.09-.13.23s.25.06.38.09l-.18-.2a1,1,0,0,1-.09-.13c.2-.13.33,0,.45.13s.12,0,.19,0a.14.14,0,0,0,0-.09c-.14-.27-.13-.65-.52-.76h0c-.32,0-.18-.14,0-.21s.24-.18,0-.28l-.14-.12,0-.18s0,0,0,0Zm-3.12,6.09h.2v-.05l-.18.06s0,.06,0,.1a.76.76,0,0,0,0,.15h0c0-.06,0-.12,0-.18S128.36,28.29,128.34,28.26Zm4.89,12.24a.06.06,0,0,0,0,0h0l.05,0,.19.1,0-.05Zm-2.95-1.64v0h0V39l0,0ZM116,46.21h0l0,.13.14-.11h.2l.25,0c0-.06-.07-.16-.1-.16a.78.78,0,0,0-.24.09s-.07.08-.1.12Zm15.9-14.08h.24l0,0-.21.07v0ZM113.35,21.65l0-.1,0,.08.09.17.09-.05Zm3.42,23.78.09,0a1,1,0,0,0,.1-.18l-.07,0a1.63,1.63,0,0,0-.11.17.4.4,0,0,0,0,.11h0s0,0,0,0ZM128.61,24l0,.09c0,.05,0,.1,0,.15a.88.88,0,0,0,0-.15V24h.13l0-.07Zm-.86,11.2.08.09,0,0-.12,0c0-.19-.14-.27-.31-.1h0l0,0Zm-1-5.87,0-.1,0,.08.22.09v-.05Zm3.54-5.64-.09.19.08,0V23.7l.11-.09-.05,0Zm2.09,18.75h0l0,0,.18.12,0,0-.18-.07Zm-17.89-18.3v0l.06.15.06-.06Zm-.93-.63a.47.47,0,0,0,.09.06l.18,0,0-.09-.19,0-.09,0s0,.07,0,.1a.75.75,0,0,1-.06.13h.08v-.15A.34.34,0,0,0,113.54,23.53ZM111.82,43.2a.43.43,0,0,0,.16,0,.4.4,0,0,0,.15,0s-.08-.08-.12-.08a.84.84,0,0,0-.2.08h0Zm17.4-5.73s.09,0,.11,0a1.15,1.15,0,0,0,.14-.17l-.08-.06-.11.16-.05.09v0l0,.09Zm-1.36,2.8,0,0h0a.41.41,0,0,0-.19,0s-.06.07-.09.11a.43.43,0,0,0,.16,0A.6.6,0,0,0,127.86,40.27Zm-15.07,3.22,0,0v0l.14.22.07-.24ZM129,41.38l0,0h0c0,.05-.06.1-.07.14a1.81,1.81,0,0,0,0,.23.76.76,0,0,0,.13-.2S129,41.44,129,41.38Zm-1,.11,0,0h0a.34.34,0,0,0,0,.1l.1.17.08,0a1.4,1.4,0,0,0-.1-.16A.16.16,0,0,0,128,41.49Zm4.47-6.8h0l-.29-.17,0,.09.28.08Zm-2.06-7.59-.25.06.11.16.12-.24h.23l-.08-.18Zm-2.6,12.37v.19h0l-.06-.18a1.17,1.17,0,0,0-.06-.2,2.15,2.15,0,0,0-.18-.24ZM111.32,44l0,.14h0l0-.13-.37-.31,0,.06.33.24Zm.64-4.69s-.08-.09-.13-.09a1.7,1.7,0,0,0-.22,0s0,.09,0,.09a.59.59,0,0,0,.19,0l.15-.05a2.81,2.81,0,0,0-.08.31s0,0,0,.08l.24-.26Zm21.81-6.36c.17-.06.24-.15.1-.3a.48.48,0,0,0-.17-.1c0,.11,0,.21,0,.32s0,.06,0,.09a1,1,0,0,0-.2,0,.34.34,0,0,0-.08.17s.08.09.11.08a.22.22,0,0,0,.15-.11C133.8,33.06,133.77,33,133.77,32.92ZM129,27.33l0,0h0v.42s.06,0,.1.06C129,27.64,129.33,27.4,129,27.33Zm-1.91-3.65-.07.08c-.17.17,0,.28.09.39l.08.05c0-.11,0-.22-.07-.33s0-.13,0-.2.07,0,.1,0l.33,0v-.1l-.32.09Zm3.25,17.56h0c0,.07,0,.14,0,.21s0,.24,0,.36l.07,0a2.67,2.67,0,0,0,0-.4A.91.91,0,0,0,130.3,41.24Zm-19.21,4.4h0c.09.22.22.13.33,0s0-.12,0-.18l-.28.09Zm17.33-22.57c-.32-.06-.13.2-.19.31l.15.08a1.55,1.55,0,0,0,.06-.31s0-.06,0-.09v0Zm3.25,12.62h0l.26-.24L132,36a1.21,1.21,0,0,0,.05.14,1.42,1.42,0,0,0,0-.16,2.2,2.2,0,0,0,.06-.37c0-.2-.12-.23-.29-.19l0-.33c-.09.07-.22.12-.26.21A.88.88,0,0,0,131.67,35.69Zm-.21-8.41a2.09,2.09,0,0,0,.28.24.2.2,0,0,0,.18,0,.15.15,0,0,0,.07-.13c0-.05-.08-.13-.12-.13a2.7,2.7,0,0,0-.41.06v0Zm-3.92,14.29a3.42,3.42,0,0,0-.13.34c0,.05,0,.14,0,.18a.17.17,0,0,0,.18,0s.11-.12.09-.16a2.18,2.18,0,0,0-.18-.38s.08-.1.07-.14,0-.3-.06-.45c0,0-.12,0-.12,0a3.87,3.87,0,0,0,0,.48S127.51,41.55,127.54,41.57Zm5-8.89c-.19,0-.51-.07-.26.31,0,0,0,.07,0,.11s0,.28,0,.42a1.89,1.89,0,0,0,.27-.38,1.37,1.37,0,0,0,0-.45h0Zm-2.71,9.77v0h0a1.66,1.66,0,0,0,0-.32q-.1-.42-.24-.81c0-.05-.09-.07-.15-.1s-.05.22,0,.23c.24.12.11.35.18.49S129.48,42.46,129.84,42.45Zm-16.41-6c.17,0,.52.06.42-.24-.18-.5.34,0,.28-.23,0,0,0-.11,0-.14a.28.28,0,0,0-.51,0,2.82,2.82,0,0,0-.15.57l0,.14Zm13.79-10.58.22-.24c-.14-.06-.36-.2-.39-.16a2.41,2.41,0,0,0-.32.54l0,.08.45-.23Zm7.1,7.81c-.1.17-.19.34-.45.16-.08,0-.25.06-.38.1a2.18,2.18,0,0,1,.21.22,3.18,3.18,0,0,0,.16.32.27.27,0,0,0,.21,0c.09-.27.16-.55.24-.84h0Zm-4.61-11.85-.08-.3c0,.26-.43-.24-.34.19h-.2c.08.27.08.47-.3.44-.09,0-.19.12-.28.18a2.28,2.28,0,0,0,.44.15c.06,0,.14-.1.21-.16s.19-.12.26.06.14.18.19,0c0-.05.11-.09.16-.14l.2-.18Zm2.85,25.64c.34,0,.45-.29.61-.53a.65.65,0,0,1,.17-.16.73.73,0,0,0-.27-.15s-.14.1-.18.17,0,.21-.07.22c-.26.05-.59.19-.79.09-.53-.27-.25.16-.31.3a3.15,3.15,0,0,0-.42.09.23.23,0,0,0-.1.16s.06.11.1.11a.25.25,0,0,0,.17-.08,3.5,3.5,0,0,0,.24-.3.68.68,0,0,0,.7-.06l.16.16h0ZM113,44.64a1.77,1.77,0,0,0,0,.2.65.65,0,0,0,0,.2.89.89,0,0,0,.06-.2.46.46,0,0,0-.08-.19c.09-.16.18-.31.26-.47s0-.11,0-.16l-.12.08c-.11.06-.23.37-.32,0l-.1,0c-.06.35-.3.34-.57.31a.3.3,0,0,0-.24.12.23.23,0,0,0,0,.23c.06.05.17,0,.26,0s.2-.05.26,0,.08.15.11.24a1,1,0,0,1,.16-.27A1,1,0,0,1,113,44.64Zm10-11.22a6,6,0,0,0-1.38.13,3.84,3.84,0,0,0-2.36,1.81,8.69,8.69,0,0,1-.55.88,2.57,2.57,0,0,0-.56,1.62,1,1,0,0,1-.11.58c-.39.64-.1,1.32-.15,2a2.08,2.08,0,0,0,.07.86c.25.73.56,1.44.82,2.18a2.92,2.92,0,0,0,2.75,1.78c1.42.28,3.7-1.41,3.69-3,0-.56,0-1.13,0-1.69l.06-2.1a2.44,2.44,0,0,0,0-.38c-.07-.7.24-1.4-.07-2.09a.45.45,0,0,1,0-.32,4,4,0,0,0,0-1.46.57.57,0,0,0-.51-.62C124.06,33.52,123.43,33.47,122.93,33.42Zm8.5-9.23-.09-.11a1.48,1.48,0,0,0-.13.08c-.1.05-.16.31-.31.05s-.15-.27-.23-.4l.13.42s0,0,0,.06,0,.35.19.27S131.29,24.32,131.43,24.19Zm-18.07,14-.23-.2c-.13-.12-.26-.23-.38-.36a1.53,1.53,0,0,1-.14-.21c0,.13-.1.32,0,.38a2.77,2.77,0,0,0,.55.4S113.23,38.16,113.36,38.15Zm-3.26,2.71-.15-.34a1.17,1.17,0,0,0-.14.3,2.16,2.16,0,0,0,0,.44s.09,0,.09,0ZM128.42,25.1l0-.14c-.06,0-.14,0-.18,0-.21.17-.23.08-.21-.13,0-.06-.07-.13-.11-.19a.83.83,0,0,0-.06.21.57.57,0,0,0,.08.26c0,.08.17.2.22.19A1.14,1.14,0,0,0,128.42,25.1Zm3.32,7.34s-.09.07-.09.09c0,.25.09.51.15.76,0,0,.11.05.18.07a1.49,1.49,0,0,0,0-.21c-.05-.19-.11-.39-.17-.59A.61.61,0,0,0,131.74,32.44Zm-3.5,2.9-.08-.2a.67.67,0,0,1-.06.15c-.09.16-.2.31-.29.47a1.7,1.7,0,0,0-.09.24c.1,0,.25,0,.27,0C128.09,35.78,128.16,35.56,128.24,35.34ZM115,22.36l-.36.22a1,1,0,0,0,.36.16c.08,0,.18-.11.27-.17Zm18.22,12.41a.82.82,0,0,0-.07.28.86.86,0,0,0,.11.29l.38-.19Zm0-.34c-.08-.18-.15-.35-.24-.51s-.11,0-.12,0-.12.22-.09.27a2.45,2.45,0,0,0,.36.36Zm-18.33,3.68.14.32c.1-.18.21-.35.3-.53,0,0-.12-.12-.12-.12ZM131,40.93l.34-.29a.71.71,0,0,1,.14-.1l-.15,0c-.3-.09-.33.12-.35.33C131,40.86,131,40.9,131,40.93Zm1.09-7.14-.18.12c.08.08.16.2.26.22s.19-.07.29-.11ZM112.44,39.1s0-.05,0-.06-.29-.23-.44-.34-.06,0-.1.07l.33.25.13.08Zm.91-.48-.39.56s0,0,0,0a3.3,3.3,0,0,0,.35-.28.91.91,0,0,0,.15-.23Zm13.8-2.27c.17-.35.29-.58.4-.82a.12.12,0,0,0-.08-.05.15.15,0,0,0-.09,0,6.26,6.26,0,0,0-.34.55S127.08,36.17,127.15,36.35Zm.32-7.29s0,0,0,.1.07.11.1.17.06-.09.06-.14a.38.38,0,0,0,0-.21c0-.12-.08-.23-.12-.35Zm-15,6.08c-.11-.13-.15-.23-.23-.27s-.14,0-.22.05a1,1,0,0,0,.15.25S112.36,35.16,112.52,35.14Zm-1.76,9.72-.17-.23a.82.82,0,0,0-.16.22s0,.11.07.17Zm16.71-2.15c0,.07-.07.14-.06.16l.31.32s.07-.1.06-.12Zm7,4.33.33-.37s-.09-.08-.11-.07-.25.15-.37.22Zm-.43.92c.06-.15.09-.19.08-.21s-.08-.33-.3-.32c0,0-.06,0-.09,0s.11.13.15.2S134,47.83,134.07,48Zm-5.93-1.73,0-.09c-.08.12-.16.23-.23.36s0,.1,0,.15ZM131.3,34.7c.11-.17.18-.22.18-.28a.73.73,0,0,0,0-.25c-.05,0-.13.06-.14.1A2.9,2.9,0,0,0,131.3,34.7ZM113,46.06c-.16-.11-.27-.19-.39-.26s-.09,0-.14.05.18.23.28.33A1.63,1.63,0,0,0,113,46.06ZM112.24,38l-.12.06a.92.92,0,0,0-.08.27s.13.12.17.1.17-.11.17-.17S112.29,38.09,112.24,38Zm2.25-17.45-.13.06.24.26s.07-.08.06-.09A2,2,0,0,0,114.49,20.55Zm19.6,12.85a4.05,4.05,0,0,0,.21-.42l-.11-.06a3,3,0,0,0-.16.31S134.05,33.3,134.09,33.4Zm-2.5-5.16c.07,0,.14.09.16.08s.19-.2.29-.3L132,28Zm-1.45,9.36,0-.06a1.28,1.28,0,0,0-.27.05.53.53,0,0,0-.15.11c.07,0,.15.09.21.07A1,1,0,0,0,130.14,37.6Zm-2.87-9.33c.08-.15.14-.21.13-.26a1,1,0,0,0-.07-.23s-.11.09-.12.14A1.29,1.29,0,0,0,127.27,28.27Zm-.18,14.15-.14-.34c0,.08-.12.14-.13.22s.07.13.13.17S127,42.44,127.09,42.42Zm.19-15.59a2.36,2.36,0,0,0-.38-.15s-.06.1-.09.15a1.43,1.43,0,0,0,.27.09S127.17,26.88,127.28,26.83Zm-11.55,12-.26.31s.1,0,.12,0a.91.91,0,0,0,.18-.21S115.75,38.86,115.73,38.8Zm-4.13,0-.13-.16c0,.05-.14.1-.15.16s.06.13.1.2Zm.16,4.9c-.08.15-.14.21-.14.28s.06.11.09.16a.55.55,0,0,0,.13-.18S111.81,43.87,111.76,43.72Zm.29,1.51a1,1,0,0,0-.23,0c-.06,0-.16.07-.16.09a2.44,2.44,0,0,0,.1.24Zm5-11.71-.13.12a2.2,2.2,0,0,0,.15.26s.09,0,.09-.07A1.67,1.67,0,0,0,117,33.52Zm-2.85,6.28c-.12,0-.19-.11-.26-.11s-.09.08-.13.13A.8.8,0,0,0,114,40S114.09,39.88,114.19,39.8Zm17-1.31a1.37,1.37,0,0,0,0-.3s-.05-.06-.08-.09a1.19,1.19,0,0,0-.08.22S131.13,38.39,131.2,38.49Zm.47-11.69a1.69,1.69,0,0,0-.23-.2s-.08,0-.12,0a1.3,1.3,0,0,0,.15.18S131.56,26.82,131.67,26.8Zm2.82,4.34,0-.1a1.45,1.45,0,0,0-.17.18s0,.06,0,.1Zm-5.32,3.14c-.1-.09-.14-.14-.16-.14a3,3,0,0,0-.32.09s.08.07.12.07A2.64,2.64,0,0,0,129.17,34.28Zm.76-7.69-.18-.21-.15.13.23.19A.59.59,0,0,0,129.93,26.59Zm-15.37,8.25c-.08.06-.15.09-.15.12a2,2,0,0,0,0,.24s.12-.05.12-.09A.85.85,0,0,0,114.56,34.84Zm-.78,10.72a.7.7,0,0,0,.14-.19s-.09-.15-.11-.14a2.34,2.34,0,0,0-.27.15Zm13.79-18.81c0,.07-.08.11-.07.13l.2.25.11-.1ZM128,47a.56.56,0,0,0-.16,0,.28.28,0,0,0-.11.08s.08.1.09.09A1.55,1.55,0,0,0,128,47ZM113,38.7l-.14-.17c0,.06-.12.11-.13.18s.06.13.09.2Zm.46-1.06.11-.14c-.12-.07-.24-.14-.37-.2s-.07.05-.07.05a3.06,3.06,0,0,0,.21.29S113.39,37.64,113.43,37.64Zm.36-.49-.19-.08s0,.07,0,.08a1.49,1.49,0,0,0,.12.14ZM128.22,22a1,1,0,0,0-.16.22s.06.06.09.1a1.25,1.25,0,0,0,.16-.17S128.27,22,128.22,22Zm1.57,3-.33.17c.07,0,.14.06.2,0a.94.94,0,0,0,.24-.13Zm-.13,20.83-.1,0,.2.2s.08,0,.11-.06Zm1.71-24.41-.1-.11a2.09,2.09,0,0,0-.14.17.73.73,0,0,0,.09.09Zm1,25.34.15-.17a.48.48,0,0,0-.16-.08s-.08,0-.12.07Zm.7-18.94.09-.13a1,1,0,0,0-.22-.13s0,.05-.08.09Zm-3.66,2.45c-.07,0-.13-.09-.14-.08a.65.65,0,0,0-.16.17s0,.09,0,.13Zm-1.11,13.93-.22-.2S128,44,128,44l.21.22Zm-10.42,3.11-.06-.09a.36.36,0,0,0-.11.1s.06.07.08.1Zm-6.57-9.08s-.07.07-.06.09a1,1,0,0,0,.07.15s.06-.07.06-.1S111.3,38.2,111.28,38.15Zm19.79,7.69c-.06.08-.11.12-.1.15a.54.54,0,0,0,.1.16s.09-.06.08-.09A.75.75,0,0,0,131.07,45.84Zm-2.64-18.38-.09.18.08,0,.11-.15ZM112.68,46.83l-.14.09s0,.1.09.1.08,0,.13-.05Zm15.43-21.12-.18-.12s-.07.08-.06.11a.18.18,0,0,0,.11.1S128,25.76,128.11,25.71ZM129.8,41l-.16.12s.09.09.13.08a.45.45,0,0,0,.18-.07Zm-14-7.92-.13-.19s-.09,0-.1.07a.17.17,0,0,0,.07.13S115.76,33.08,115.84,33.07ZM129.73,33c0-.06-.09-.13-.11-.13a.71.71,0,0,0-.18.08s.05.1.07.1A.74.74,0,0,0,129.73,33Zm2.32,7.79.09.13s.08-.07.08-.1,0-.1-.06-.16Zm-4.84-5.46a.45.45,0,0,0-.18-.08s-.09.09-.08.1a.36.36,0,0,0,.14.11S127.15,35.38,127.21,35.31Zm-10.92,0c-.07.08-.14.13-.13.14a1,1,0,0,0,.13.22.48.48,0,0,0,0-.14A1.56,1.56,0,0,0,116.29,35.27Zm16-5.25a.65.65,0,0,0-.19-.09S132,30,132,30l.19.15Zm-17.71,10.6c-.08,0-.13-.07-.16-.06s-.09,0-.13.07.08.08.12.08S114.49,40.67,114.58,40.62Zm16-14.46.2-.17a.53.53,0,0,0-.15-.11s-.11.05-.11.08A.56.56,0,0,0,130.6,26.16Zm-14.67-5.05,0-.09-.08,0a.43.43,0,0,0,0,.12Zm-1.62,18.06s-.1.08-.11.12,0,.08.07.12.1-.07.13-.12S114.35,39.22,114.31,39.17Zm12-5.43-.08,0s0,.07,0,.09,0,.06.07.09Zm3.33-.21,0-.12a.57.57,0,0,0-.13.14s0,.06,0,.1Zm2.41-2.6S132,31,132,31a1,1,0,0,0,.08.14s0,0,0-.07A.53.53,0,0,0,132.05,30.93ZM116.8,38.7l0,.1s0,0,.07,0a.36.36,0,0,0,0-.09S116.82,38.7,116.8,38.7Zm9.56-11.26,0,.07.09.06s0,0,.07-.05Zm-14.53,9.79a1.82,1.82,0,0,0-.12-.15.76.76,0,0,0-.15,0s0,.12,0,.13Zm3.78-1.74s-.07.07-.06.08a.83.83,0,0,0,.08.12s.07-.06.06-.07A.66.66,0,0,0,115.61,35.49Zm-3.35,8.41-.15-.1s0,.06,0,.08a.52.52,0,0,0,.08.11Zm2.07-2.74-.08-.08s-.08.07-.08.11,0,.06.07.09Zm17.15,5.3-.09,0a.46.46,0,0,0,.14.07s0,0,.07-.06Zm-4.31-2.64-.16,0s0,.08,0,.09h.1Zm7.09,2,0,.09.09-.07a.16.16,0,0,0-.07-.07Zm-4.47-22.48c-.07,0-.11-.07-.15-.07s-.06,0-.09,0,0,.1.07.1A.5.5,0,0,0,129.79,23.34Zm-3.35,20.1s.07-.07.08-.11,0-.06,0-.09l-.13.12ZM126.82,25l-.14-.05s-.05.06,0,.08a.84.84,0,0,0,.06.14Zm3.9-3.13c-.07,0-.12-.08-.15-.06s-.06.07-.07.11,0,.08.07.12ZM128,40.75a.34.34,0,0,0,.14,0s0-.06,0-.09l-.14,0S128,40.7,128,40.75ZM115.32,23.23l0-.09s0,.05,0,.07,0,.06.05.09Zm13.14,23.62,0-.1s-.1,0-.13.07,0,.08,0,.11ZM113.63,24.29l-.08-.06s0,.05,0,.08,0,0,.06.05Zm13.13,18.65s-.06,0-.09,0l-.07.07.09,0S126.74,43,126.76,42.94Zm-8.54,5,.12.08s0-.07,0-.08a.45.45,0,0,0-.1-.09Zm-.78-3.84s-.06-.07-.09-.07l-.13,0s0,.06.08.06A.43.43,0,0,0,117.44,44.07Zm-1.25-6.55h.15s0,0,0-.07a.32.32,0,0,0-.13,0S116.22,37.47,116.19,37.52Zm-2.74-3,0-.1s-.07,0-.08,0,0,.07,0,.09Zm3-.13-.08.1s.07.05.08,0a.94.94,0,0,0,.1-.1Zm12.2,1.44-.11-.08s0,.07,0,.08.07.06.1.09Zm-15.38,7.61-.07,0s0,0,0,0l0,.06Zm-.21-8.57,0-.1s-.08.06-.1.1,0,.06,0,.1Zm19.07-5.51a.52.52,0,0,0-.11.1s0,.05,0,.08a.48.48,0,0,0,.11-.09S132.19,29.39,132.18,29.35ZM131.53,35s-.07,0-.08,0,0,.05,0,.08.07,0,.08,0S131.54,35.06,131.53,35Zm1.35-4.67s0-.07,0-.08-.05,0-.08,0a.3.3,0,0,0,0,.08S132.85,30.38,132.88,30.37Zm-1.12-1.64-.08,0s0,.06,0,.08,0,0,.08.05Zm-4.58,7.89,0,.09a.18.18,0,0,0,.1,0s0-.07,0-.08S127.21,36.64,127.18,36.62Zm-13.46,3.19-.15-.1-.06.06.13.15Zm1.47-18.33-.07,0a0,0,0,0,0,0,0l0,.06Zm-5.92,20.26-.07,0s0,0,0,0l.06.06ZM129.08,25s-.08,0-.08.05a.58.58,0,0,0,.05.14s.1,0,.1-.06A.33.33,0,0,0,129.08,25Zm2.11,1.27s-.06-.05-.07,0a.14.14,0,0,0-.05.08s.05,0,.06,0S131.17,26.29,131.19,26.27Zm.73-4.83a.08.08,0,0,0,0,0l0,0,0,.07ZM118.08,32.78l0,0,.07,0s0,0,0,0ZM132.33,22.5v-.05l-.08,0v.05ZM114.65,33.66a.9.9,0,0,0,.1-.12s0-.06,0-.09a.32.32,0,0,0-.1.1S114.63,33.61,114.65,33.66Zm-2.17-12.87,0-.08s0,0,0,0,0,.05,0,.08ZM131,27.2s0-.07-.06-.08,0,0-.08,0l.09.11Zm2.53,17.05s-.07,0-.08,0a.47.47,0,0,0,0,.09l.11-.07Zm-4,3.16,0-.1,0,0a.34.34,0,0,0,0,.1Zm-16.37-5.24.2.13s0-.06,0-.09,0-.1-.07-.11A.87.87,0,0,0,113.22,42.17ZM128.56,46l-.06-.11s-.08.06-.1.1,0,.06,0,.09Zm-1-21.12-.09,0s0,0,0,0a.18.18,0,0,0,0,.07Zm-14,19.52,0,0-.06,0,0,0Zm18.29-9.68,0-.07,0,0a.29.29,0,0,0,0,.09Zm-.78,10.34,0-.1A.41.41,0,0,0,131,45s0,.07,0,.07ZM116.37,34.92s0,.07,0,.08.06,0,.09,0,0-.06,0-.07S116.4,34.91,116.37,34.92ZM131,33.42a.16.16,0,0,0,.05.08s.06,0,.09,0l-.07-.11ZM129.9,44s0,.06.06.08,0,0,.08,0l-.07-.11Zm-16.15-9.08.09,0s0-.07,0-.08,0,0-.08,0Zm14.84-1.4s-.06,0-.08,0,0,0,0,.07.06,0,.08,0S128.58,33.52,128.59,33.49Zm-10-.33v.07l0,0A.08.08,0,0,0,118.58,33.16Zm11.14.79-.06,0s0,0,0,0l.06,0Zm-15.87,5.44s0-.07,0-.07,0,0-.08,0l0,.1ZM112,46.24l0,0,0,.07,0,0ZM133.4,46l0,0,.05,0s0,0,0,0S133.42,46,133.4,46Zm-18-7.56s0-.07,0-.08-.06,0-.09,0,0,.07,0,.08S115.38,38.49,115.41,38.48Zm-5.15,0,0,0s0,0,0,0,0,0,0,.05Zm1.42-.25,0-.09,0,0a.28.28,0,0,0,0,.09ZM130,40.75l0-.07,0,0-.06,0Zm.26-.37s0-.07-.05-.08-.06,0-.09,0,0,.07,0,.08S130.19,40.38,130.22,40.38Zm-13.81.51,0,0v0Zm15.88-.77s0,.07.06.08.05,0,.08,0l-.07-.11ZM115.42,40l0-.09s-.06,0-.07,0,0,.06,0,.08Zm11.92,6.94h0l0,0Zm3,0-.08,0s0,.05,0,.07,0,0,.05,0A.21.21,0,0,0,130.38,46.89Zm-14.63-7v0s0,0,0,.06,0,0,0,0Zm-2,6.58s0,0,0,0,0,0,0,0l0,.06ZM134,47l-.07,0a.15.15,0,0,0,0,0l.05.06Zm-4,1.42v.08l0,0A.08.08,0,0,0,130,48.41Zm1.19-.07h0l0,.07,0,0A.08.08,0,0,0,131.19,48.34Zm2.65-12.56,0,.09s0,0,0,0l0-.09Zm-21.15,9.71,0,0a.36.36,0,0,0,0,.09l0,0Zm1.17-10.3s0,0,0,0a.3.3,0,0,0,0,.1l0,0ZM128,42.29l0,0,0,0,0,0Zm-13.35-4.5h0v0h0Zm-.92.08,0,0h0Zm-1.45,4.71,0-.07,0,0a.16.16,0,0,0,0,.07Zm-.34-4.87-.05,0,0,0,0,0Zm-.37-.1s0-.07,0-.08-.06,0-.09,0l0,.11Zm7.26,10.27,0,0h0Zm.22,0,0,0s0,0,0,0l-.06,0Zm10.22-4.78,0-.09,0,0s0,.06,0,.1Zm1.51-6.19s-.05,0-.08,0,0,0,0,0l.05.07ZM113.23,22l0,0,0,0,0,.06Zm14.71,5.68,0,0,0,0a.21.21,0,0,0,0,.06Zm3.28-2.59.09,0s0-.07,0-.08-.06,0-.09,0Zm1.85-1v-.05H133v0Zm.05,6.18,0,.05a0,0,0,0,0,0,0s0,0,.08,0Zm-2.25-4.93a.12.12,0,0,0,0-.08s0,0,0-.08a.2.2,0,0,0,0,.08S130.86,25.37,130.87,25.39Zm-.73-2.19.06,0h0S130.15,23.18,130.14,23.2ZM129,26.1l0,0a.1.1,0,0,1,0,0s0,0,0,0Zm4,2.68,0,0,0,.07s0,0,0,0Zm-4.93-5.13,0-.09-.09,0,0,.1Zm2.27,4.22,0,0h0ZM133.4,46.4l0,0h0Zm-20.76-8.31v0l0,0Zm14.5,8.36,0,0h0Zm2.65-18.9a.08.08,0,0,0,0,0l0,0s0,0,0,0Zm1,10s0,0,0,0,0,0,0,0l0,0Zm-20.38,4,0,0s0,.05,0,.08,0,0,0,0ZM127.67,38h0l0-.05Zm-15.41-.3,0-.09s0,0,0,0a.32.32,0,0,0,0,.09ZM109.82,42h0s0,0,0,0l0,0S109.82,42,109.82,42Zm5.74,5.16a.06.06,0,0,0,0,0h0v.07Zm16.95-18.34s0,0,0,0,0,0-.05,0l0,.06Zm.15,7.54,0-.05,0,0,.05,0Zm-3.87,5.74s0,0,0,0,0,0,0,0l0,0Zm1.33,5.23,0,0a.05.05,0,0,0,0,0v0Zm-14.05-2.87s0,0,0-.05h0v0Zm-1.28-7.17v0h0ZM127,41.75v0h-.06a.08.08,0,0,0,0,0ZM130.1,37l0,0h0Zm-3.28-8.74,0,0h0Zm-12.57-6.29,0,0h-.09Zm13.15,17.9,0,0,0,0,0,0Zm-14.53.1,0,0h0Zm-2.3-.54,0,0h0Zm2.78.23,0,0v.07Zm17.41,1.14h0a.23.23,0,0,0,0,0h.05Zm-18.21.11,0,0,0,0Zm19.85,4.42v0h.05a.06.06,0,0,0,0,0Zm-16.24,0,0,0,0,0Zm-2.73-23,0,0h0Zm15.7,23.2v0h0s0,0,0,.05ZM129,40.16l0,0h0Zm-16.92,0h0v0h0Zm1.31,4.55v0h0a.06.06,0,0,0,0,0Zm.69-6.46,0,0h0Zm18.65,8v0h0Zm-20.41,0,0,0h0ZM130,38.48a.06.06,0,0,0,0,0h0l0,.07Zm-1.72-15.9,0,0a.2.2,0,0,0,0,.08s0,0,0,0ZM110.38,39.3l0,0,0,0a.05.05,0,0,0,0,0Zm20.16-16.87-.09,0v.08h0Zm1.17,22.27-.05,0v.08l.05,0ZM110.8,38.79v.09l0,0A.17.17,0,0,0,110.8,38.79Zm4.19.08,0,0,0,0,0,0Zm.26-.07-.06,0v0Zm15-4.4,0,0h0a.08.08,0,0,0,0,0Zm-1.44,9.06,0,0,0,0,0,0Zm-1.22.57v0l0,0Zm-12.32-1.39v0h0s0,0,0,0Zm19-12.78,0,0h0ZM112.49,43.17v0h0Zm15-12.07a.29.29,0,0,0-.1,0l0,0s0,0,.07.05S127.46,31.12,127.48,31.1Zm1.14-.27-.05-.08s0,.05,0,.07a.12.12,0,0,0,0,.08Zm4.38-.06,0,0,0,.08,0,0ZM110.79,43.33l0,0h0Zm19.73,0,0,0h.06a.06.06,0,0,0,0,0Zm.71-9.52h0l0,.05Zm1.57,8.52s0,0,0,0h0l0,.05Zm-4.72-21.75,0,0h0Zm1.59,0,0,0h0ZM112.43,42.31l0-.07h0A.35.35,0,0,1,112.43,42.31Zm20.21-6.46,0,0h0Zm-1.32,0,0,0v.07h0S131.32,35.83,131.32,35.82Zm1.85,12.09,0,0,0-.06Zm-18.29-4.25,0,0,0,0s0,0,0,.05Zm17.32-8.48,0-.08,0,0s0,0,0,.06Zm-4.49-10.76s0,0,0,0l-.09,0,0,0ZM117.06,35.11h0v0Zm14.9,9,0,0H132v-.05Zm-1.19,0v.07s0,0,0,0S130.77,44.09,130.77,44.08Zm-.11-8.81,0,0,0,.09,0,0A.29.29,0,0,0,130.66,35.27Zm-1.52,0s0,0,0,0h0v-.05Zm-16.5.09,0,0s0,0,0,0l0,0Zm4,9.71v0h0Zm13.83-1,0,0h0Zm-16.27,3.54,0,0v0Zm16.14-9.66,0,0v0Zm2.22,3.64,0,0h0ZM111,41.43l0,0s0,0,0,0a.08.08,0,0,0,0,0Zm18.43-15.25,0,0v0Z"/><path class="cls-1" d="M68,19.92c0,.66.11,1.31.13,2,0,.36,0,.73,0,1.09,0,.58,0,1.16,0,1.74a5.93,5.93,0,0,1-.07.59,1.55,1.55,0,0,0,0,.21s.13-.08.15-.13c.1-.25.18-.51.28-.76s.2-.51.32-.75c.28-.58.58-1.15.88-1.73a3.76,3.76,0,0,0,.23-.55,2.46,2.46,0,0,1,.81-1.21c.32-.29.58-.64.88-.94a5.43,5.43,0,0,1,1.6-1.12,7.78,7.78,0,0,1,2.7-.75,5.71,5.71,0,0,1,1.07.14l0,0c.68-.25,1.18.25,1.71.49a3.12,3.12,0,0,1,1.55,1.37.51.51,0,0,1,0,.32c-.17.58-.36,1.16-.56,1.74-.06.19-.19.36-.23.55-.31,1.32-.86,2.55-1.29,3.82a11.46,11.46,0,0,0-.67,2,5.24,5.24,0,0,1-.6,1.46.29.29,0,0,1-.19,0c-.38-.42-.74-.85-1.11-1.27L74.38,26.7c-.34-.4-.68-.81-1-1.23a12.57,12.57,0,0,0-1.84-2.08.56.56,0,0,0-.8,0,6.35,6.35,0,0,0-2.09,2.71,5.06,5.06,0,0,1-.47.8.91.91,0,0,0-.13.83,1.08,1.08,0,0,1,.07.47C68,29.59,68,31,68,32.4c0,1,.08,2,.09,3,0,.78,0,1.56,0,2.34s0,1.73.07,2.59a.84.84,0,0,1,0,.27A15,15,0,0,0,68,43.25a4.46,4.46,0,0,0,.26,1.59.79.79,0,0,0,.25.41c.4.29.81.56,1.23.82.67.41,1.35.82,2,1.22.89.52,1.8,1,2.7,1.54a3,3,0,0,1,.45.43c-.22,0-.44.06-.66.07a11.15,11.15,0,0,0-2.38.05.91.91,0,0,1-.33,0,15.54,15.54,0,0,0-1.67-.06,34.23,34.23,0,0,0-3.65,0,9.5,9.5,0,0,1-1.84,0l-.27,0-3.65,0c-1.06,0-2.11.06-3.17.06-.56,0-1.12-.1-1.69-.1a9.26,9.26,0,0,1-1.29,0c-.3,0-.25-.14-.12-.29a6,6,0,0,1,.51-.49,9.11,9.11,0,0,0,.94-.81,7.27,7.27,0,0,1,1.48-1.34,1.53,1.53,0,0,0,.55-1.47q0-.37,0-.75c0-.4,0-.8,0-1.19s0-.72,0-1.08,0-.51,0-.76c0-.51,0-1,0-1.53,0-.83,0-1.66,0-2.5,0-.23,0-.47,0-.7s-.1-.72-.11-1.08,0-1,.07-1.48,0-.89,0-1.34c0-.74-.06-1.47-.06-2.2a10.27,10.27,0,0,1,.07-1.47,3.82,3.82,0,0,0-.08-.9c0-.48.06-1,.06-1.46,0-1,0-1.93,0-2.89,0-.43.15-.88-.12-1.28a6.11,6.11,0,0,0-.36-.61,7.27,7.27,0,0,0-1.37-1.59c-.66-.47-.92-1.28-1.64-1.66-.05,0-.06-.11-.1-.17a.44.44,0,0,1,.15,0c.58,0,1.16-.08,1.74-.07a22,22,0,0,0,2.28.11c1.17-.1,2.33.07,3.49,0,1-.07,2,0,3,0,.63,0,1.25-.08,1.88-.09a8.64,8.64,0,0,1,1.24.1s.13.11.13.17C68,18.91,68,19.42,68,19.92ZM64.84,44.41a.42.42,0,0,0,.16,0,.25.25,0,0,0,.12-.08l0,0-.13,0-.12.11v0Zm.37-.48a.61.61,0,0,0,.14-.07.45.45,0,0,0,.06-.12s-.12,0-.16.06,0,.09,0,.14L65,43.88v0Zm-1.48.85-.18-.17s-.06.06,0,.08l.13.21ZM63.82,24c0,.09-.08.13-.07.16s.06.08.09.12.1-.07.09-.09A.67.67,0,0,0,63.82,24Zm-3.24-2.89-.06-.1a.48.48,0,0,0-.11.09s0,.08,0,.08Zm4.07,25.07a.18.18,0,0,0,0-.07l0,0-.08,0Zm-2.5-14.06h.06l0-.07s0,0,0,0A.07.07,0,0,1,62.15,32.13Zm2.7,1.22V33.3l-.06,0,0,0ZM62.11,46.9l.06.05s0,0,0,0,0,0,0,0Zm4.22-6,0-.07h0Zm-.67.15a.15.15,0,0,0-.07,0s0,0,0,0l0,.06Zm-1.17-3.7s0,0,0,0h0v.06ZM65,20.47l0,0v0Zm0,1.37v0l0,0Zm9.88-1.27,0,0s0,0,0,.06l0,0Zm-9.69.8,0,0h0Zm1.33,15.2a0,0,0,0,1,0,0h0l0,0Zm9.21-14.1s0,0,0,0a.08.08,0,0,0,0,0l0,0A.08.08,0,0,0,75.79,22.47Zm-9.91-.81,0,0,0,0Zm-.74,14.06v0l-.05,0Zm.74-12.84,0,0v0ZM63.06,38.37v0h0Z"/><path class="cls-1" d="M95,20.39c0,.52.07,1.05.09,1.58,0,.23-.06.47-.06.7s0,.68,0,1c0,.09.06.2,0,.27A3.78,3.78,0,0,0,95,25.53a1.1,1.1,0,0,0,0,.16c0-.05.11-.09.13-.15.2-.51.37-1,.58-1.54s.59-1.24.84-1.88A6.41,6.41,0,0,1,98,20.07a6.34,6.34,0,0,1,1.9-1.51c.2-.1.4-.19.58-.3a6,6,0,0,1,2.11-.61,7.61,7.61,0,0,1,2.78.37,1.81,1.81,0,0,1,.64.39c.34.24.64.53,1,.74.55.34.39.82.25,1.25-.29.89-.65,1.77-1,2.66-.11.32-.14.67-.26,1-.37,1-.77,2-1.14,3-.12.34-.16.71-.28,1.05s-.4.93-.61,1.39c0,0-.17.05-.22,0a3,3,0,0,1-.5-.5,14.71,14.71,0,0,0-1.57-1.86,5.21,5.21,0,0,1-.36-.55c-.17-.23-.36-.44-.55-.67l-.94-1.1c0-.06,0-.17-.1-.2-.47-.23-.62-.73-.93-1.1a.52.52,0,0,0-.58-.21,2,2,0,0,0-.74.31,11.88,11.88,0,0,0-1,1.11,1.75,1.75,0,0,0-.28.33c-.18.27-.34.55-.5.83,0,.09,0,.22-.12.3-.77.84-.48,1.88-.52,2.85,0,.2,0,.39,0,.59a4.72,4.72,0,0,0,0,.65,14.66,14.66,0,0,1,0,2.48,16.9,16.9,0,0,0,0,3.1,8.22,8.22,0,0,1,0,1.57c0,.41,0,.83,0,1.25,0,.25,0,.51,0,.76,0,.47,0,.94,0,1.41s0,.92-.08,1.38c0,.16-.06.32-.06.48,0,.53,0,1.06.09,1.59a1.21,1.21,0,0,0,.3.67A3.57,3.57,0,0,0,97,46.14a6.77,6.77,0,0,1,1.42.9c.31.19.65.33,1,.52L102,49.14a.36.36,0,0,1,.1.11.5.5,0,0,1-.14.08,5.69,5.69,0,0,1-.82.08c-1.09,0-2.18-.1-3.27-.12-.59,0-1.18.07-1.78.09-.25,0-.5,0-.76,0-.85,0-1.7.09-2.55,0s-1.47,0-2.21,0-1.32-.06-2-.06-1.25,0-1.87.08h-.16l-3.16-.1a.82.82,0,0,0-.22,0,5.6,5.6,0,0,1-2,0s-.07-.11-.06-.16.06-.1.1-.13c.66-.48,1.13-1.15,1.77-1.65a6.46,6.46,0,0,0,1.14-.92c.34-.44.76-.9.55-1.57a2.42,2.42,0,0,1,0-.76c0-.71.06-1.41.07-2.12,0-.92,0-1.84,0-2.76,0-.45-.06-.9-.06-1.35s0-.73,0-1.1c0-.52-.07-1-.06-1.57,0-.76,0-1.51.07-2.27,0-.29,0-.58,0-.87,0-.83-.07-1.66-.07-2.49,0-.45.06-.9.07-1.34s0-1.06,0-1.59c0-.32,0-.65,0-1s0-.91-.06-1.36a4.4,4.4,0,0,1,0-1.09,1.72,1.72,0,0,0-.47-1.61c-.77-.85-1.59-1.65-2.39-2.48-.17-.18-.34-.38-.51-.57L81,18.26a1.86,1.86,0,0,1,.46-.13h1.68l1.79.08s.07,0,.1,0a6.41,6.41,0,0,1,2.27,0c.65,0,1.31,0,2,0,.29,0,.58,0,.87-.06s.44-.05.66-.05a15.59,15.59,0,0,1,2.27,0,11.83,11.83,0,0,0,1.34-.05c.5,0,.57.08.57.58s0,1.13,0,1.69Zm-2.84,6.18h0l0,0Zm-.68.2h0v0h0ZM87.17,23.9l-.15,0-.1.16h0l0-.18.17,0v0Zm6.32,18.35h0ZM86.37,24.81h0v0h0Zm4.29,7v0h0Zm-2,1.33h0l0,0v0Zm4.62-2v0h0ZM88.58,28V28l0,0Zm1.2-.75-.14,0c-.18.18-.08.35,0,.52h0c0-.14,0-.29,0-.44a.54.54,0,0,0,0-.1l.16,0v0ZM93,38l0,0v0h0Zm-.93-17.74v0h0Zm-.25,23.45h0v0h0ZM87.35,22.28h0ZM86.16,43h0l.09,0ZM93,31.18v0l-.15.1a1.79,1.79,0,0,0-.24.12,1,1,0,0,0-.16.12h.23l.16,0a.25.25,0,0,0,0,.09l.16.1s0,0,0-.06l-.17-.11h-.1v-.23Zm-1.66,3h0l.08.24,0,.1,0-.05-.09,0ZM91.2,45.88l0,.08v-.09l0,0Zm-.87-18.76,0,.08,0-.1Zm3.14-.43h0ZM89.19,27h0l0-.13Zm-1.52.15-.1-.17,0-.24h0l0,0-.07,0-.12-.1-.06.39.2-.07.08.19,0,0s0,0,0,0Zm5.8-1.65v-.08a.05.05,0,0,1,0,0l0,0,.26.15v0h0ZM88,38.88l-.12,0,0,.07.07-.11.12-.13c.32.22.4-.13.57-.25s.06-.07.09-.11l-.15,0c-.32,0-.37.23-.5.41Zm2.85-6.54.14,0s0,0,0,0l-.16.07v0ZM86.72,20.66l-.17.08.06.07.09-.16,0,0h0ZM88.55,35l0-.18,0,0,.1.15,0,.2.06,0Zm3.83-5.53-.16.07,0,.05.12-.12h0ZM87.49,43.1v.21h0l-.07-.18,0-.13s.11-.06.12-.1a2.29,2.29,0,0,0,0-.37s-.06,0-.09,0,0,.24,0,.36,0,.11,0,.16l-.19,0Zm-.34-5.8a.36.36,0,0,0,0-.09s0-.05-.06-.07l.12.15a.88.88,0,0,0,0,.15.76.76,0,0,0,0,.15h.09a.38.38,0,0,0,0-.18S87.19,37.34,87.15,37.3Zm5.07,6.79h0l.08.29h.09l-.14-.27ZM89.5,20.89a.37.37,0,0,0,.15,0,1.66,1.66,0,0,0,.14-.13.42.42,0,0,0-.19,0s-.06.12-.09.18h0ZM91.36,41l-.44-.11s0,.1,0,.1h.4c0-.09.07-.18.09-.27l-.08,0c0,.09,0,.18,0,.27S91.35,41,91.36,41Zm.52-5.08.25-.06-.08-.13-.16.2h0Zm1,.86c-.06,0-.14.06-.18.12a.4.4,0,0,0,0,.19l.09,0a.76.76,0,0,0,.09-.18.86.86,0,0,0,0-.16h0ZM89,34.56l-.09-.06,0,0,.13,0c0,.05,0,.11,0,.15a.86.86,0,0,0,.13.23.72.72,0,0,0,0-.25S89.08,34.6,89,34.56Zm.75-.87.2-.07a.8.8,0,0,0,.16-.08L90,33.43l-.17.27-.13.06,0,0ZM92,27.57l0,0h0v0c0,.06.07.14.13.17a2.14,2.14,0,0,0,.34.09l0,0-.28-.12Zm-.84.12a1,1,0,0,0-.15-.07l-.23,0,.1.24.26-.16v0Zm.4,9.42.12.15.06-.18-.19,0s0-.08,0-.1a2.53,2.53,0,0,0-.33-.16s0,0-.07,0a3.65,3.65,0,0,0,.34.18S91.49,37.1,91.52,37.11Zm0-8.65c-.38.09-.09.34-.12.51h0a.37.37,0,0,0,.13-.51ZM87.89,42l.19.18.13.11s.07-.11.06-.15c-.07-.2-.15-.38-.37-.13l-.08.08a1.25,1.25,0,0,0-.08.12l.08,0a.59.59,0,0,0,.06-.14S87.88,42,87.89,42Zm3.94-21,.48-.08s.07-.08.08-.12a.14.14,0,0,0-.09-.11c-.29-.09-.44,0-.45.32Zm-1.51,2.67c.11.3.24.09.35,0s0-.13,0-.19l-.26.1a.6.6,0,0,0-.13.09c.06-.27-.12-.37-.33-.44,0,0-.08.1-.07.11a3.73,3.73,0,0,0,.36.32Zm1.23-1.85.29.06a.92.92,0,0,1-.13-.21,1.87,1.87,0,0,1-.08-.34,1.18,1.18,0,0,1,0-.2,1.16,1.16,0,0,0,0,.18v.53l-.18,0v.05Zm-4,15.33.24.13a1,1,0,0,0,.18,0A1.61,1.61,0,0,0,88,37s-.13-.08-.17,0a1.08,1.08,0,0,0-.22.21v0Zm2.66.88.11.21.08-.06-.21-.14a.44.44,0,0,0,0-.15c0-.16,0-.31-.07-.46,0,0-.1,0-.1.05a2.78,2.78,0,0,0,0,.5S90.17,38.05,90.22,38.07Zm1.11,4.44a3.27,3.27,0,0,0-.28.37s0,.14.09.17.13,0,.2,0a1.34,1.34,0,0,0,0-.2c0-.12,0-.24,0-.36a.32.32,0,0,0,0-.09.25.25,0,0,0,0-.08ZM90,44l.33-.29h0c0-.19,0-.36-.28-.28s0,.21,0,.31A.58.58,0,0,0,90,44l0,.09Zm-2.41-5.82a2.65,2.65,0,0,0,.11.3.22.22,0,0,0,.14.05c.12-.21.23-.43.34-.64l-.52.22s0,.06,0,.09l-.16.1.11.07Zm2.32-2.6a.45.45,0,0,0-.51.47s.11.08.15.07.11-.14.12-.13c.36.2.21-.08.21-.22a1.49,1.49,0,0,1,0-.21h0ZM91.32,23a3.36,3.36,0,0,0-.24-.29s-.1,0-.15,0c.08.3-.1.27-.3.24,0,0-.1.07-.15.1s.12.18.16.18c.23-.05.44-.13.66-.2l.35-.26-.09-.1ZM88.47,23v0l0,0,0-.07a1.22,1.22,0,0,0,.06-.26,2.81,2.81,0,0,0,0-.29c-.15.08-.31.15-.45.24a.45.45,0,0,0,.12.23A.94.94,0,0,0,88.47,23Zm.28,18.16,0,0v0c-.11,0-.23.08-.34.14s-.12.11-.11.15c.06.3.16.34.41.17l.52-.36v0ZM87.33,24.94l0-.1,0,.09c0,.08,0,.23.06.23.43,0,.54-.08.63-.54a.66.66,0,0,0,0-.27c0-.07-.1-.13-.17-.19s-.06,0-.1,0a1,1,0,0,1,.17.19,1.11,1.11,0,0,1,.07.26c-.11,0-.31.1-.32.06-.25-.42-.19,0-.26.09Zm4.39-1.49.71-.55v.15a.88.88,0,0,0,0,.16l.07,0a.7.7,0,0,0,0-.14c0-.05,0-.09-.07-.14l-.26-.38c-.07.12-.14.24-.22.35a.52.52,0,0,1-.18.1c-.17.12-.22.21,0,.25l-.07.23v0Zm.47,1.67a2.34,2.34,0,0,0,0-.26c0-.09-.06-.18,0-.26,0-.35.08-.7.12-1.05,0,0,0-.07-.07-.11l-.27.42c.29.12.05.31.05.46a1.18,1.18,0,0,0,.19.82ZM89,22v0l-.24-.87,0-.1s-.11,0-.11.06a2.5,2.5,0,0,1-.11.57c-.15.29.11.26.21.39.25.33.22.35.54.1a.47.47,0,0,1,.06-.09l.13-.1c.16-.13.16-.28.06-.22a1.25,1.25,0,0,0-.24.37s0,0,0,.06Zm1.75,14.87a4.9,4.9,0,0,0-.1-.5s-.08,0-.1,0a1.58,1.58,0,0,0-.1,1.34c0,.06.17.06.26.08s0-.23,0-.25c-.27-.12-.18-.24,0-.4A.85.85,0,0,0,90.74,36.89Zm.5-13.33,0,0c-.07.11-.21.23-.2.33a2.27,2.27,0,0,0,.19.61.31.31,0,0,0,.14,0,1,1,0,0,0,0-.91A.38.38,0,0,0,91.24,23.56Zm-.14,21-.4-.26a.87.87,0,0,0-.08.26,4.42,4.42,0,0,0,0,.63.23.23,0,0,0,.08.16.14.14,0,0,0,.15,0,.15.15,0,0,0,0-.16.25.25,0,0,1,.09-.41A1.39,1.39,0,0,0,91.1,44.52Zm2.43-10.73.38-.38a.84.84,0,0,1-.39-.44s-.09,0-.09.05c0,.23,0,.46,0,.69C93.39,33.73,93.45,33.74,93.53,33.79ZM87.24,41c-.06-.1-.14-.24-.24-.38s-.06,0-.1,0,0,.26,0,.39,0,0,0,.06.17.29.26.44c0-.13,0-.25,0-.38S87.19,41.07,87.24,41ZM89.82,24c0-.13,0-.28-.08-.34a1,1,0,0,0-.36-.14s-.07.05-.1.07.14.11.21.18.12.17.19.25a1.09,1.09,0,0,0,.11.1Zm0-1.47c.15-.14.31-.28.45-.43s0-.13-.06-.13-.28,0-.32.09a1.63,1.63,0,0,0-.1.46Zm3.34,2.1-.1-.2c0,.05-.14.1-.16.17s0,.24-.06.35a.91.91,0,0,1-.17.23A1.19,1.19,0,0,0,93,25,1.34,1.34,0,0,0,93.18,24.67ZM90,25.85l-.33-.41c-.05.08-.16.2-.14.24a1,1,0,0,0,.28.27S89.9,25.89,90,25.85ZM88.05,40.11,87.83,40a2.31,2.31,0,0,0-.21.45s0,.08.07.12Zm3-6a.74.74,0,0,0,0-.18s-.07-.08-.09-.07l-.31.16,0,.09c.26-.1.31,0,.27.25,0,0,0,.07.07.11a.43.43,0,0,0,0-.11A1.38,1.38,0,0,0,91,34.14ZM89,42.88l-.3-.29a2.19,2.19,0,0,0-.12.33s.09.12.13.11A1.62,1.62,0,0,0,89,42.88ZM87.9,23.19a.52.52,0,0,0,0,.16s0,.14.06.16a1.4,1.4,0,0,0,.35.1.26.26,0,0,0,.12,0ZM89,27.87l-.25.14.23.25c.06-.06.14-.12.16-.2S89.08,28,89,27.87ZM90,45.17a2.18,2.18,0,0,0,.22-.39c0-.05-.1-.12-.15-.19a.87.87,0,0,0-.15.26C89.86,44.91,89.91,45,90,45.17Zm1.67-11.71a2.79,2.79,0,0,0-.06-.33s0-.07-.08-.11a.84.84,0,0,0-.06.14,1.15,1.15,0,0,0,0,.32.91.91,0,0,0,.15.21Zm1.22-10c-.08.14-.17.23-.17.31s.11.13.17.19.15-.12.15-.17S92.92,23.57,92.85,23.42ZM89.06,46.56a2.48,2.48,0,0,0,.18-.42s0-.13-.06-.19c-.08.13-.16.26-.23.4S89,46.42,89.06,46.56Zm-2.41-8.24c0,.07-.06.14-.05.14a1.73,1.73,0,0,0,.3.16s0-.06.07-.09Zm.24-12.4.51.13s.09-.09.09-.09-.12-.21-.18-.21A1.84,1.84,0,0,0,86.89,25.92Zm4.26-.6.15.3a1.06,1.06,0,0,0,.14-.33c0-.06-.09-.14-.14-.2Zm.76,19.13s-.1.09-.1.12.09.21.14.32l.16-.11A2.42,2.42,0,0,0,91.91,44.45ZM86.75,25.26l-.16-.11a3.14,3.14,0,0,0-.18.31l.09.07A3.45,3.45,0,0,0,86.75,25.26ZM92,42.68l-.14-.28c0,.05-.12.12-.11.16a.83.83,0,0,0,.15.23Zm.75-8.52c-.16-.11-.23-.18-.3-.19s-.13.07-.19.11a.61.61,0,0,0,.16.12A1.4,1.4,0,0,0,92.79,34.16Zm-3.7-10-.28.1a3.37,3.37,0,0,0,.34.1s.11-.06.16-.1Zm2,19.4.15.26c0-.06.08-.13.07-.18a1.77,1.77,0,0,0-.15-.31ZM90,37.79a.93.93,0,0,0-.17-.09,1.46,1.46,0,0,0-.17.3s0,0,0,.08ZM87.52,36l-.14-.23s-.11.11-.1.14a.9.9,0,0,0,.15.19Zm2.93,6.8c-.06.1-.11.16-.1.18s.13.19.2.29c0-.06.06-.13,0-.18A2.37,2.37,0,0,0,90.45,42.77Zm-3-1.46.09.2a.75.75,0,0,0,.08-.24c0-.05-.07-.1-.12-.14Zm5.36-7.88c0,.07-.08.13-.06.15a.3.3,0,0,0,.14.11s.08,0,.12-.06Zm-2.09,9-.28-.16s-.07,0-.1,0l.2.2S90.63,42.52,90.73,42.47Zm-1.6,1.21v.08l.07,0,.21-.06s0-.08-.06-.08Zm-1.89,1.47c-.06.11-.11.16-.11.22s.06.09.1.14.11-.09.11-.14S87.3,45.26,87.24,45.15ZM92.52,34.8c0,.09-.08.14-.06.17s.08.09.12.13.09-.09.08-.11A.65.65,0,0,0,92.52,34.8Zm-2-13.47-.06-.1s0,0-.06.07a1.84,1.84,0,0,0-.09.25s0,.07,0,.11.07,0,.08-.06S90.53,21.43,90.56,21.33Zm.32,7.22c-.09-.07-.14-.15-.18-.14s-.11.08-.14.13,0,.09,0,.13Zm.27-7.77-.13-.1a2.13,2.13,0,0,0-.16.25s0,.07.08.11ZM87,40.12l-.23-.19s0,.06,0,.07a2.2,2.2,0,0,0,.2.23Zm-.66-15.89-.08-.16s-.09.05-.09.07a.39.39,0,0,0,0,.14Zm-.26,15.33c0,.07-.09.12-.09.17s.06.07.09.11a.88.88,0,0,0,.12-.15S86.17,39.63,86.11,39.56Zm3-16.73a.94.94,0,0,0-.2-.12s-.07,0-.07.05a.53.53,0,0,0,.11.15S89.07,22.87,89.16,22.83Zm4,0,0-.11-.2.15.05.08Zm-2.44-2c-.06-.07-.1-.13-.12-.13a.76.76,0,0,0-.18.09s.08.12.13.14S90.62,20.86,90.69,20.82Zm.72,23.83-.13.11s.06.09.1.1a.15.15,0,0,0,.1-.09S91.44,44.7,91.41,44.65Zm1.76.59,0-.2a1.17,1.17,0,0,0,0,.11,2.28,2.28,0,0,0,0,.26Zm.23,2.21a.51.51,0,0,0-.18-.11s-.09.08-.08.1a.23.23,0,0,0,.12.12S93.33,47.5,93.4,47.45Zm-1-22.69c.06,0,.13-.05.14-.08a.33.33,0,0,0,0-.17s-.1,0-.12.08A.44.44,0,0,0,92.45,24.76Zm.3,1.1c.08-.11.13-.16.12-.19s-.07-.08-.1-.08a.18.18,0,0,0-.09.1A.87.87,0,0,0,92.75,25.86Zm-3.88-2.71s-.05.08,0,.09a.43.43,0,0,0,.09.1s.07-.07.06-.09A.52.52,0,0,0,88.87,23.15Zm4,3.7-.23-.2s-.05.06-.05.08a.38.38,0,0,0,.11.16S92.83,26.87,92.91,26.85Zm-1.64,2.41c-.06,0-.08,0-.11,0H91s0,.07,0,.07Zm-4.6,14.39c0,.09-.1.13-.11.18s0,.08.08.12.1-.09.12-.15S86.72,43.73,86.67,43.65Zm5-2.46a.93.93,0,0,0-.07.15.59.59,0,0,0,0,.14.28.28,0,0,0,0-.13A.71.71,0,0,0,91.63,41.19ZM91,26.3c0,.07-.08.1-.09.14s0,0,0,.08a.23.23,0,0,0,.11-.08S91,26.37,91,26.3ZM87.06,27l-.16-.07s0,.08,0,.08a.83.83,0,0,0,.15.11Zm5.59,8.51.06-.08-.09-.06a.2.2,0,0,0,0,.08S92.63,35.44,92.65,35.46Zm-4.74-2-.08-.07-.08.09.1,0S87.89,33.52,87.91,33.5ZM89.83,33l-.09.12s.05,0,.07,0a.09.09,0,0,0,.07-.06S89.85,33,89.83,33Zm-.35-.62s0-.05-.07,0,0,0-.07.06l.1.06Zm.06,5.53a.72.72,0,0,0-.2-.13s-.06,0-.06.07a.23.23,0,0,0,.09.12S89.45,37.91,89.54,37.88ZM88,35.58l-.08-.08-.11.09.09.1Zm3.89-6.29c-.07.09-.13.13-.12.16a.13.13,0,0,0,.1.09s.11-.05.11-.08S91.93,29.36,91.88,29.29ZM89.2,44.86l0-.09-.07.12s0,0,0,0Zm0-20.92-.11-.1s0,0-.08.05a.94.94,0,0,0,.09.12Zm1,18.14-.08,0a.18.18,0,0,0,0,.09s0,.05,0,.08Zm-.21-.73s0,0-.08,0,0,0,0,0,0,0,.07,0S89.9,41.37,89.92,41.35Zm-3.46.56-.08,0,0,0a.25.25,0,0,0,0,.07Zm4.17-19.84-.11.11a.8.8,0,0,0,.06.08l.12-.11Zm1.18,24c0-.05.08-.08.1-.12s0-.07,0-.11a.94.94,0,0,0-.09.12S91.79,46.05,91.81,46.1ZM88,23.74s-.07,0-.08,0,0,.06,0,.09l.12-.05Zm-1.13.8-.07,0a.18.18,0,0,0,0,.09s0,0,.06,0Zm1.59,3.85-.11-.09s0,.06,0,.08a.12.12,0,0,0,.07.07Zm.23-3.64,0-.14s-.07,0-.09,0a.11.11,0,0,0,0,.09S88.64,24.74,88.69,24.75ZM92.1,30.4l0,0,.08,0,0,0Zm-5.4,7.22-.07-.07s0,.06,0,.08,0,0,.06.07Zm5.73,5h0l0,.07,0,0Zm1.08,2.42s-.05,0-.07,0-.06,0-.08,0,0,0,.06,0S93.48,45.09,93.51,45.07ZM90.05,30.55l0,0-.07.06,0,0Zm.4-1.25,0-.05s-.05,0-.06.06,0,0,0,.05Zm2.28-7.19,0,.06,0,0,.08,0ZM88.27,35.34s0,0,0,0,0,0,0,0l0,.06Zm3.44,7.92s0-.07,0-.09,0,0-.09,0l0,.11Zm-2.48,1.82c0,.09-.06.13-.07.18s0,.05,0,.08.08-.05.1-.09S89.28,45.2,89.23,45.08ZM90,36.44l0,.1h.08s0,0,0,0Zm0-13.51L90,23l0,0s0-.05,0-.08Zm.12,16.3a.21.21,0,0,0-.1,0l-.06.06a.29.29,0,0,0,.1,0S90,39.25,90.06,39.23Zm-.49-12.3v-.05H89.5l0,.08Zm-3.46,15,0,0v0l0,0Zm1-.13a.16.16,0,0,0-.08.05.41.41,0,0,0,0,.08s.07,0,.08,0A.32.32,0,0,0,87.08,41.8Zm4-3-.08,0s0,0,0,0a.35.35,0,0,0,0,.08ZM88.62,32.3l0,0s0,.06,0,.09l0,0S88.62,32.33,88.62,32.3ZM94.1,44.77a.19.19,0,0,0-.08,0s0,0,0,0a.18.18,0,0,0,0,.07Zm-1-4.87c0,.06-.08.09-.09.13s0,.08,0,.07a.14.14,0,0,0,.1-.05A.51.51,0,0,0,93.1,39.9ZM89.3,26.45l.07.06s0,0,0,0l-.06-.06Zm-.19,6.19-.08,0a.21.21,0,0,0,0,.1l.1-.07Zm-.76,7.14h0l0,.07,0-.06ZM86,38.37s-.06,0-.07.06,0,0,0,.08a.16.16,0,0,0,.08,0S86,38.4,86,38.37Zm3.22-13.71s0-.06-.07-.06l-.07.06.07.07ZM87.56,41.93l0-.09a.52.52,0,0,0-.11.1s0,.05,0,.08Zm2.86-8.25,0,.06,0,0,0,0Zm-3.16-.28-.06-.07,0,0,0,.07ZM88.1,45l0-.07h-.05Zm2.47-12.58,0,0h0ZM87,34.12l-.07.06,0,0,.06-.06ZM93.63,34v0h0Zm-3.58.07,0,0-.07.05,0,0Zm-.51-1.25s-.07,0-.08,0a.73.73,0,0,0,0,.09l.09,0Zm-.73,11.79s0,0,0,.06l0,0,.07,0Zm-2-3.1,0,0,0,0Zm3.79-2.05,0,0,0,0,0,0Zm-3.3-.07h0v0Zm1.64-.58,0-.08,0,0,0,.07Zm.82,3.35,0-.08a.08.08,0,0,0,0,0l0,0A.32.32,0,0,0,89.71,42.14Zm1-1.49.08,0a.19.19,0,0,0,0-.07l0,0Zm-.81-.09-.08,0,0,0,0,.06Zm3.95,6.35,0,0v0ZM89.66,36.75l0,0s0,0,0,0l-.07,0ZM87,36.12l0,0L87,36l0,0Zm5.49-.32,0,0,.06.05,0,0Zm1.15-.64h0v.1h0ZM88.25,45.45l0,0,0,.06s0,0,0,0S88.25,45.47,88.25,45.45Zm3,2,0,0,0,0ZM89.68,43s0,0,0,0l0,0,0-.06Zm0-18.12,0,0,.06,0s0,0,0,0S89.69,24.91,89.67,24.9Zm1.61-4.46,0-.09-.06,0s0,0,0,0ZM87.74,21h0s0,0,0,0h.07Zm1.7,10.17-.07.06,0,0a.13.13,0,0,0,.07-.06Zm.58.1a.18.18,0,0,0-.07-.05s0,0,0,0,0,0,0,.08Zm.36-3.17s0,0,0,0,0,0,0,0l0,.05Zm-4-6.74.08,0s0,0,0,0h-.08Zm4,4.22,0-.07,0,0,0,.06Zm2.6-5.38.06,0h0S93.07,20.21,93.06,20.23Zm-.77,5.48-.06.05s0,0,.08,0,0,0,0,0ZM89.2,27.37l.07,0,0,0S89.21,27.35,89.2,27.37ZM92,29.8h0l0,.06,0,0S92,29.82,92,29.8Zm-4.91-8.26,0,0,.06,0s0,0,0-.05S87.07,21.54,87.06,21.54ZM88.68,32l0-.06a.08.08,0,0,0,0,0Zm-2.07-6,0,0-.06-.06,0,0Zm.24,1.48s0,0,0,0l0,0s0,0,0,0S86.86,27.5,86.85,27.49Zm2.07,19.85,0,0h0Zm-2.78-9.88,0,0,0,0Zm5,0,0,0,0,0ZM91,28.4v0l0,0ZM89.48,39.74l0,0v0Zm1.61.35v0h0ZM93.23,27l0,0h0Zm-1.3-1.68h0v.05Zm-5.38,6.21v0h0s0,0,0,0Zm.78-8h0v0Zm4,8.93,0,0v.07Zm1.28-8.29s0,0,0,.05h0v-.07Zm.1,12,0,.05,0-.05ZM88.39,20.64h0s0,0,0,0h0S88.39,20.62,88.39,20.64Zm.92,2.57,0,0v0Z"/><path class="cls-1" d="M183.13,25.87v0l-.06,0a.07.07,0,0,1,0-.05Z"/><path class="cls-1" d="M185.23,24.55l0,.29-.13-.06.16-.21Z"/><path class="cls-1" d="M171.21,41l.11.11c-.12.29.12.46.22.67l-.33.33c-.07-.06-.2-.11-.2-.17,0-.36,0-.68-.48-.76,0,0-.06-.09-.05-.13.12-.32-.23-.26-.33-.4s-.13,0-.18,0,0,.1,0,.14c.06.24.13.47.18.71,0,0,0,.11-.09.16s-.09-.1-.1-.16a.58.58,0,0,0-.46-.58.17.17,0,0,1,0-.17c.09-.15.21-.29.31-.43l.09-.2.19-.42c.13.07.33.12.38.24s.13.1.22,0,.33,0,.34.22.08.38,0,.52C170.86,41.09,171.16,41,171.21,41Zm-.43-.62-.06-.06s0,0,0,0a.12.12,0,0,0,.05.05Z"/><path class="cls-1" d="M170.81,42a2.24,2.24,0,0,0,0,.31c.05.31-.13.35-.37.3l-.34-.11.26-.25a3.08,3.08,0,0,0,.27-.24,1.43,1.43,0,0,0,.14-.2Z"/><polygon class="cls-1" points="169.11 42.37 169.13 42.37 169.12 42.35 169.11 42.37"/><path class="cls-1" d="M150.42,39.92l0,.06,0,0s0-.05,0-.08Z"/><polygon class="cls-1" points="150.2 39.64 150.24 39.63 150.22 39.63 150.2 39.64"/><path class="cls-1" d="M150.69,44l0,0Z"/><path class="cls-1" d="M131.6,22.8l0,.07v-.08Z"/><path class="cls-1" d="M129.27,21.72l.46.12C129.46,22.08,129.43,22.07,129.27,21.72Z"/><polygon class="cls-1" points="127.23 25.88 127.19 25.89 127.22 25.89 127.23 25.88"/><polygon class="cls-1" points="89 22.02 88.99 22.06 88.99 22.04 89 22.02"/></g></g></svg>