<svg xmlns="http://www.w3.org/2000/svg" viewBox="0 0 1187.9 964.32"><defs><style>.cls-1,.cls-2{fill:#f5eeda;}.cls-1{stroke:#b08310;stroke-width:7px;}.cls-1,.cls-4{stroke-miterlimit:10;}.cls-3{fill:#212222;}.cls-4,.cls-5{fill:none;stroke:#666;stroke-linecap:round;stroke-width:6.3px;}.cls-5{stroke-linejoin:round;}</style></defs><g id="Layer_2" data-name="Layer 2"><g id="Layer_1-2" data-name="Layer 1"><g id="Layer_2-2" data-name="Layer 2"><g id="Layer_1-2-2" data-name="Layer 1-2"><circle class="cls-1" cx="593.95" cy="337.46" r="196.15"/><circle class="cls-2" cx="1057.75" cy="544.77" r="130.15"/><path class="cls-3" d="M484.22,310.23a1.78,1.78,0,0,1,.72-2.41,1.71,1.71,0,0,1,1-.21h10.31a1.85,1.85,0,0,1,1.71,1.11l19.39,43.43h.71l19.39-43.43a1.86,1.86,0,0,1,1.72-1.11h10.3a1.78,1.78,0,0,1,1.93,1.62,1.74,1.74,0,0,1-.21,1l-31.31,68a1.81,1.81,0,0,1-1.72,1.11h-1a1.81,1.81,0,0,1-1.72-1.11Z"/><path class="cls-3" d="M566.43,308.11a1.7,1.7,0,0,1,1.82-1.51h1.62a1.82,1.82,0,0,1,1.71,1l22.22,47.67h.31l22.22-47.67a1.73,1.73,0,0,1,1.71-1h1.62a1.7,1.7,0,0,1,1.82,1.51L633.39,376a1.75,1.75,0,0,1-1.07,2.23,1.86,1.86,0,0,1-.74.09h-9.2a2.18,2.18,0,0,1-1.91-1.51l-6-38.28h-.31L596.53,378.2a1.71,1.71,0,0,1-1.72,1.11H593a1.81,1.81,0,0,1-1.71-1.11L573.4,338.51h-.3l-5.86,38.28a2,2,0,0,1-1.82,1.51h-9.09a1.85,1.85,0,0,1-2-1.71,2.07,2.07,0,0,1,.06-.61Z"/><path class="cls-3" d="M636.73,310.23a1.77,1.77,0,0,1,.72-2.41,1.74,1.74,0,0,1,1-.21h10.3a1.84,1.84,0,0,1,1.71,1.11l19.4,43.43h.7L690,308.72a1.86,1.86,0,0,1,1.72-1.11H702a1.78,1.78,0,0,1,1.93,1.62,1.74,1.74,0,0,1-.21,1l-31.31,68a1.81,1.81,0,0,1-1.72,1.11h-1a1.81,1.81,0,0,1-1.71-1.11Z"/><path class="cls-3" d="M1025.25,500.37a13.89,13.89,0,0,1,9.68,3.72.74.74,0,0,1,.08,1l-.08.08-1.76,1.8c-.28.36-.64.36-1,0a10.83,10.83,0,0,0-6.92-2.68,10.39,10.39,0,0,0,0,20.76,10.71,10.71,0,0,0,6.88-2.64.74.74,0,0,1,1,0l1.84,1.8a.76.76,0,0,1,0,1.07h0a13.71,13.71,0,0,1-9.72,3.88,14.4,14.4,0,0,1,0-28.8h0Z"/><path class="cls-3" d="M1039.05,501.53a.8.8,0,0,1,.76-.76h2.28a.8.8,0,0,1,.76.76V528a.8.8,0,0,1-.76.76h-2.28a.8.8,0,0,1-.76-.76Z"/><path class="cls-3" d="M1047.61,503.93a2.3,2.3,0,0,1,2.24-2.36h0a2.34,2.34,0,0,1,0,4.68h0a2.3,2.3,0,0,1-2.28-2.3Zm.44,9.6a.8.8,0,0,1,.76-.76h2.28a.8.8,0,0,1,.76.76V528a.8.8,0,0,1-.76.76h-2.28a.8.8,0,0,1-.76-.76Z"/><path class="cls-3" d="M1063.89,512.37a7.2,7.2,0,0,1,7.36,7v.36a9.81,9.81,0,0,1-.08,1.08.74.74,0,0,1-.72.68h-10.88a4.63,4.63,0,0,0,4.6,4.28,6.88,6.88,0,0,0,3.56-1.16c.48-.28.76-.44,1.08,0l1.12,1.52a.62.62,0,0,1,.07.87.47.47,0,0,1-.15.13,9.15,9.15,0,0,1-5.92,2c-4.84,0-8-3.8-8-8.4S1059.09,512.37,1063.89,512.37Zm3.64,6.64a3.78,3.78,0,0,0-3.68-3.56,4,4,0,0,0-4.08,3.56Z"/><path class="cls-3" d="M1075.09,513.53a.8.8,0,0,1,.76-.76H1077a.64.64,0,0,1,.64.48l.48,1.36a8.21,8.21,0,0,1,5.6-2.24c4.88,0,6.68,3.44,6.68,7.6v8a.8.8,0,0,1-.76.76h-2.28a.76.76,0,0,1-.76-.76h0v-8.2c0-2.56-1.24-4-3.32-4a5.3,5.3,0,0,0-4.44,2.4V528c0,.52-.24.76-.92.76h-2.08a.8.8,0,0,1-.76-.76Z"/><path class="cls-3" d="M1096.33,516.09h-1.68a.76.76,0,0,1-.76-.76h0v-1.8a.74.74,0,0,1,.72-.76h1.72v-4.44a.8.8,0,0,1,.76-.76h2.28a.74.74,0,0,1,.72.76v4.48h4.08a.74.74,0,0,1,.76.72v1.84a.76.76,0,0,1-.76.76h-4.08V524c0,1.36.52,1.6,1.28,1.6a6.55,6.55,0,0,0,2.44-.72.6.6,0,0,1,.83.16.72.72,0,0,1,.09.2l.72,1.76a.67.67,0,0,1-.18.92l-.18.08a12.32,12.32,0,0,1-4.68,1.2c-3.16,0-4.08-1.92-4.08-4.76Z"/><path class="cls-3" d="M960.69,549a.82.82,0,0,1,.72-.6h.64a.79.79,0,0,1,.68.44l8.36,20.44h.16l8.32-20.44a.75.75,0,0,1,.68-.44h.64a.82.82,0,0,1,.72.6l4.92,26.88a.68.68,0,0,1-.39.88.73.73,0,0,1-.33,0h-2.6a.82.82,0,0,1-.76-.56l-3-17.88h-.12l-7.2,18.4a.68.68,0,0,1-.68.44h-.72a.71.71,0,0,1-.68-.44l-7.24-18.4h-.16l-2.88,17.88a.77.77,0,0,1-.72.56h-2.6a.72.72,0,0,1-.79-.65.83.83,0,0,1,0-.27Z"/><path class="cls-3" d="M996.05,566.65a11.31,11.31,0,0,1,3.16.48c0-2.52-.44-3.52-2.48-3.52a17,17,0,0,0-4.48.72c-.48.12-.76-.2-.88-.64l-.32-1.48a.73.73,0,0,1,.47-.91h.05a16.44,16.44,0,0,1,5.52-.92c5.12,0,5.6,3.12,5.6,7.12V576a.8.8,0,0,1-.76.76h-1.12c-.36,0-.52-.16-.68-.56l-.4-1.08a6.88,6.88,0,0,1-4.92,2c-3,0-5.16-2-5.16-5.36C989.65,568.89,992,566.65,996.05,566.65Zm-.48,7.68a4.73,4.73,0,0,0,3.6-2v-2.56a5.93,5.93,0,0,0-2.8-.64c-1.92,0-3.24,1-3.24,2.64a2.42,2.42,0,0,0,2.26,2.56Z"/><path class="cls-3" d="M1007.73,561.53a.8.8,0,0,1,.76-.76h1.16a.64.64,0,0,1,.64.48l.48,1.36a8.21,8.21,0,0,1,5.6-2.24c4.88,0,6.68,3.44,6.68,7.6v8a.8.8,0,0,1-.76.76H1020a.76.76,0,0,1-.76-.76h0v-8.2c0-2.56-1.24-4-3.32-4a5.3,5.3,0,0,0-4.44,2.4V576c0,.52-.24.76-.92.76h-2.08a.8.8,0,0,1-.76-.76Z"/><path class="cls-3" d="M1033.29,566.65a11.31,11.31,0,0,1,3.16.48c0-2.52-.44-3.52-2.48-3.52a17,17,0,0,0-4.48.72c-.48.12-.76-.2-.88-.64l-.32-1.48a.73.73,0,0,1,.47-.91h0a16.44,16.44,0,0,1,5.52-.92c5.12,0,5.6,3.12,5.6,7.12V576a.8.8,0,0,1-.76.76h-1.12c-.36,0-.52-.16-.68-.56l-.4-1.08a6.88,6.88,0,0,1-4.92,2c-3,0-5.16-2-5.16-5.36C1026.89,568.89,1029.21,566.65,1033.29,566.65Zm-.48,7.68a4.73,4.73,0,0,0,3.6-2v-2.56a5.93,5.93,0,0,0-2.8-.64c-1.92,0-3.24,1-3.24,2.64a2.42,2.42,0,0,0,2.25,2.56Z"/><path class="cls-3" d="M1046.21,571.25a6.43,6.43,0,0,1-1.24-3.88,6.86,6.86,0,0,1,6.7-7h7.18a.74.74,0,0,1,.76.72v1c0,.28-.16.64-.44.68l-2.2.6a5.36,5.36,0,0,1,1.72,4.28,6.55,6.55,0,0,1-6.55,6.53h-.25a11.76,11.76,0,0,1-3.48-.64,2.21,2.21,0,0,0-1.64,2,1.71,1.71,0,0,0,1.77,1.65h5.59c3.48,0,6.28,1.88,6.28,5.35s-3.2,6.64-8.52,6.64c-5.64,0-7.92-2.88-7.92-5.48a4.38,4.38,0,0,1,2.36-3.75v-.12a4.15,4.15,0,0,1-3-4A5.52,5.52,0,0,1,1046.21,571.25Zm5.64,14.63c2.44,0,4.56-1.24,4.56-3.16,0-.63-.4-2.28-3-2.28-1.16,0-2.36,0-3.52.08-.24.08-2.2.72-2.2,2.52C1047.69,584.68,1049.41,585.88,1051.85,585.88Zm3.44-18.43a3.38,3.38,0,0,0-3-3.67h-.31a3.68,3.68,0,0,0,0,7.36,3.37,3.37,0,0,0,3.37-3.37c0-.1,0-.21,0-.31Z"/><path class="cls-3" d="M1070.21,560.37a7.2,7.2,0,0,1,7.36,7v.36a9.81,9.81,0,0,1-.08,1.08.74.74,0,0,1-.72.68h-10.88a4.63,4.63,0,0,0,4.6,4.28,6.88,6.88,0,0,0,3.56-1.16c.48-.28.76-.44,1.08,0l1.12,1.52a.62.62,0,0,1,.07.87.47.47,0,0,1-.15.13,9.15,9.15,0,0,1-5.92,2c-4.84,0-8-3.8-8-8.4S1065.41,560.37,1070.21,560.37Zm3.64,6.64a3.78,3.78,0,0,0-3.68-3.56,4,4,0,0,0-4.08,3.56Z"/><path class="cls-3" d="M1081.41,561.53a.8.8,0,0,1,.76-.76h1.12a.7.7,0,0,1,.68.48l.44,1.36a7.44,7.44,0,0,1,5.28-2.24,5.93,5.93,0,0,1,5.16,2.56,8.87,8.87,0,0,1,5.8-2.56c4.88,0,6.6,3.44,6.6,7.6v8a.76.76,0,0,1-.76.76h-2.24a.76.76,0,0,1-.76-.76h0v-8.2c0-2.52-1.16-4-3.32-4a5.76,5.76,0,0,0-4.12,2,10.32,10.32,0,0,1,.12,1.92V576a.8.8,0,0,1-.76.76h-2.12a.76.76,0,0,1-.76-.76h0v-8.2c0-2.56-1.16-4-3.4-4a4.54,4.54,0,0,0-4,2.4V576a.8.8,0,0,1-.76.76h-2.24a.8.8,0,0,1-.76-.76Z"/><path class="cls-3" d="M1119.09,560.37a7.2,7.2,0,0,1,7.36,7v.36a9.81,9.81,0,0,1-.08,1.08.74.74,0,0,1-.72.68h-10.88a4.63,4.63,0,0,0,4.6,4.28,6.88,6.88,0,0,0,3.56-1.16c.48-.28.76-.44,1.08,0l1.12,1.52a.62.62,0,0,1,.07.87.47.47,0,0,1-.15.13,9.15,9.15,0,0,1-5.92,2c-4.84,0-8-3.8-8-8.4S1114.29,560.37,1119.09,560.37Zm3.64,6.64a3.78,3.78,0,0,0-3.68-3.56,4,4,0,0,0-4,3.55Z"/><path class="cls-3" d="M1130.29,561.53a.8.8,0,0,1,.76-.76h1.16a.64.64,0,0,1,.64.48l.48,1.36a8.21,8.21,0,0,1,5.6-2.24c4.88,0,6.68,3.44,6.68,7.6v8a.8.8,0,0,1-.76.76h-2.28a.76.76,0,0,1-.76-.76h0v-8.2c0-2.56-1.24-4-3.32-4a5.3,5.3,0,0,0-4.44,2.4V576c0,.52-.24.76-.92.76h-2.08a.8.8,0,0,1-.76-.76Z"/><path class="cls-3" d="M1151.53,564.09h-1.68a.76.76,0,0,1-.76-.76h0v-1.8a.74.74,0,0,1,.72-.76h1.72v-4.44a.8.8,0,0,1,.76-.76h2.28a.74.74,0,0,1,.72.76v4.48h4.08a.74.74,0,0,1,.76.72v1.84a.76.76,0,0,1-.76.76h-4.08V572c0,1.36.52,1.6,1.28,1.6a6.55,6.55,0,0,0,2.44-.72.6.6,0,0,1,.83.16.72.72,0,0,1,.09.2l.72,1.76a.67.67,0,0,1-.18.92l-.18.08a12.32,12.32,0,0,1-4.68,1.2c-3.16,0-4.08-1.92-4.08-4.76Z"/><circle class="cls-2" cx="1057.75" cy="130.15" r="130.15"/><path class="cls-3" d="M994.47,87.91a.76.76,0,0,1,.76-.76h9c4.84,0,8.32,3.2,8.32,7.4,0,3.08-2.28,5.28-4.16,6.36,2.12.88,5,2.84,5,6.52,0,4.48-3.68,7.72-8.72,7.72h-9.4a.76.76,0,0,1-.76-.76h0Zm10.12,23.56a4.26,4.26,0,0,0,4.32-4.2v-.16c0-2.44-2.32-4.2-4.92-4.2h-5.48v8.56ZM1004,99.31a4,4,0,0,0,4.13-3.87c0-.14,0-.27,0-.41a3.85,3.85,0,0,0-3.58-4.12H998.6v8.4Z"/><path class="cls-3" d="M1017.23,99.91a.8.8,0,0,1,.76-.76h2.28a.8.8,0,0,1,.76.76v8.2c0,2.6,1.24,4,3.28,4a4.26,4.26,0,0,0,4-2.64V99.91c0-.64.32-.76.88-.76h2.08a.8.8,0,0,1,.76.76v14.48a.8.8,0,0,1-.76.76h-1.12c-.4,0-.6-.28-.72-.64l-.4-1.16a7.23,7.23,0,0,1-5.28,2.2c-4.8,0-6.48-3.4-6.48-7.56Z"/><path class="cls-3" d="M1036.23,113.07l.84-1.56a.7.7,0,0,1,1-.24l0,0a8.33,8.33,0,0,0,3.72,1c1.2,0,2-.48,2-1.36,0-1.08-.88-1.6-3.08-2.6-2.48-1.08-4.56-2.6-4.56-5.24,0-2,1.64-4.4,5.48-4.4a9,9,0,0,1,4.72,1.24.89.89,0,0,1,.32,1.16l-.72,1.36a.84.84,0,0,1-1,.32,9.08,9.08,0,0,0-3.28-.84c-1.36,0-1.8.6-1.8,1.2,0,1,1,1.48,2.56,2.16,2.92,1.28,5.32,2.52,5.32,5.52,0,2.48-2.36,4.68-5.92,4.68a8.33,8.33,0,0,1-5.28-1.64A.67.67,0,0,1,1036.23,113.07Z"/><path class="cls-3" d="M1051.07,90.31a2.3,2.3,0,0,1,2.24-2.36h0a2.34,2.34,0,1,1,0,4.68,2.3,2.3,0,0,1-2.28-2.3Zm.44,9.6a.8.8,0,0,1,.76-.76h2.28a.8.8,0,0,1,.76.76v14.48a.8.8,0,0,1-.76.76h-2.28a.8.8,0,0,1-.76-.76Z"/><path class="cls-3" d="M1060.51,99.91a.8.8,0,0,1,.76-.76h1.16a.64.64,0,0,1,.64.48l.48,1.36a8.21,8.21,0,0,1,5.6-2.24c4.88,0,6.68,3.44,6.68,7.6v8a.8.8,0,0,1-.76.76h-2.28a.76.76,0,0,1-.76-.76h0v-8.2c0-2.56-1.24-4-3.32-4a5.3,5.3,0,0,0-4.44,2.4v9.76c0,.52-.24.76-.92.76h-2.08a.8.8,0,0,1-.76-.76Z"/><path class="cls-3" d="M1087.67,98.75a7.2,7.2,0,0,1,7.36,7v.36a9.81,9.81,0,0,1-.08,1.08.74.74,0,0,1-.72.68h-10.88a4.63,4.63,0,0,0,4.6,4.28,6.88,6.88,0,0,0,3.56-1.16c.48-.28.76-.44,1.08,0l1.12,1.52a.62.62,0,0,1,.07.87.47.47,0,0,1-.15.13,9.15,9.15,0,0,1-5.92,2c-4.84,0-8-3.8-8-8.4S1082.87,98.75,1087.67,98.75Zm3.64,6.64a3.78,3.78,0,0,0-3.68-3.56,4,4,0,0,0-4.08,3.56Z"/><path class="cls-3" d="M1097.91,113.07l.84-1.56a.7.7,0,0,1,1-.24l0,0a8.33,8.33,0,0,0,3.72,1c1.2,0,2-.48,2-1.36,0-1.08-.88-1.6-3.08-2.6-2.48-1.08-4.56-2.6-4.56-5.24,0-2,1.64-4.4,5.48-4.4A9,9,0,0,1,1108,100a.89.89,0,0,1,.32,1.16l-.72,1.36a.84.84,0,0,1-1,.32,9.08,9.08,0,0,0-3.28-.84c-1.36,0-1.8.6-1.8,1.2,0,1,1,1.48,2.56,2.16,2.92,1.28,5.32,2.52,5.32,5.52,0,2.48-2.36,4.68-5.92,4.68a8.35,8.35,0,0,1-5.28-1.64A.67.67,0,0,1,1097.91,113.07Z"/><path class="cls-3" d="M1112.23,113.07l.84-1.56a.7.7,0,0,1,1-.24l0,0a8.33,8.33,0,0,0,3.72,1c1.2,0,2-.48,2-1.36,0-1.08-.88-1.6-3.08-2.6-2.48-1.08-4.56-2.6-4.56-5.24,0-2,1.64-4.4,5.48-4.4a9,9,0,0,1,4.72,1.24.89.89,0,0,1,.32,1.16l-.72,1.36a.84.84,0,0,1-1,.32,9.08,9.08,0,0,0-3.28-.84c-1.36,0-1.8.6-1.8,1.2,0,1,1,1.48,2.56,2.16,2.92,1.28,5.32,2.52,5.32,5.52,0,2.48-2.36,4.68-5.92,4.68a8.33,8.33,0,0,1-5.28-1.64A.67.67,0,0,1,1112.23,113.07Z"/><path class="cls-3" d="M1002.07,135.91a.76.76,0,0,1,.76-.76H1012a8.92,8.92,0,1,1,0,17.84h-5.81v9.4a.8.8,0,0,1-.76.76h-2.6a.76.76,0,0,1-.76-.76h0Zm9.64,13.16a5.1,5.1,0,0,0,5.08-5.12h0a4.93,4.93,0,0,0-5.06-4.8h-5.54v9.92Z"/><path class="cls-3" d="M1023.59,147.91a.8.8,0,0,1,.76-.76h1.16a.76.76,0,0,1,.68.56l.44,1.36a5.71,5.71,0,0,1,4.68-2.32c1.52,0,3.36.4,2.92,1.48l-1,2a.67.67,0,0,1-.86.42.35.35,0,0,1-.14-.06,3.71,3.71,0,0,0-1.36-.28,4.21,4.21,0,0,0-3.6,2v10.16c0,.68-.44.76-1.08.76h-1.92a.8.8,0,0,1-.76-.76Z"/><path class="cls-3" d="M1043.79,146.75a8.41,8.41,0,1,1-8.07,8.73c0-.12,0-.25,0-.37A8.27,8.27,0,0,1,1043.79,146.75Zm0,13.36a4.76,4.76,0,0,0,4.52-5h0a4.53,4.53,0,1,0-9,0A4.76,4.76,0,0,0,1043.79,160.11Z"/><path class="cls-3" d="M1063.07,146.75a7.09,7.09,0,0,1,5.8,2.84.78.78,0,0,1-.13,1.1l0,0-1.32,1.2c-.48.44-.76.12-1.08-.16a4.44,4.44,0,0,0-3.2-1.52,4.94,4.94,0,1,0,3.68,8,.72.72,0,0,1,1-.13l.06.05,1.08.88c.4.32.56.72.28,1.12a7.08,7.08,0,0,1-6.2,3.36,8.33,8.33,0,0,1-8.36-8.3v-.06A8.52,8.52,0,0,1,1063.07,146.75Z"/><path class="cls-3" d="M1080.07,146.75a7.2,7.2,0,0,1,7.36,7v.36a9.81,9.81,0,0,1-.08,1.08.74.74,0,0,1-.72.68h-10.88a4.63,4.63,0,0,0,4.6,4.28,6.88,6.88,0,0,0,3.56-1.16c.48-.28.76-.44,1.08,0l1.12,1.52a.62.62,0,0,1,.07.87.47.47,0,0,1-.15.13,9.15,9.15,0,0,1-5.92,2c-4.84,0-8-3.8-8-8.4S1075.27,146.75,1080.07,146.75Zm3.64,6.64a3.78,3.78,0,0,0-3.68-3.56,4,4,0,0,0-4.08,3.56Z"/><path class="cls-3" d="M1090.31,161.07l.84-1.56a.7.7,0,0,1,.95-.24l.05,0a8.33,8.33,0,0,0,3.72,1c1.2,0,2-.48,2-1.36,0-1.08-.88-1.6-3.08-2.6-2.48-1.08-4.56-2.6-4.56-5.24,0-2,1.64-4.4,5.48-4.4a9,9,0,0,1,4.72,1.24.89.89,0,0,1,.32,1.16l-.72,1.36a.84.84,0,0,1-1,.32,9.08,9.08,0,0,0-3.28-.84c-1.36,0-1.8.6-1.8,1.2,0,1,1,1.48,2.56,2.16,2.92,1.28,5.32,2.52,5.32,5.52,0,2.48-2.36,4.68-5.92,4.68a8.35,8.35,0,0,1-5.28-1.64A.67.67,0,0,1,1090.31,161.07Z"/><path class="cls-3" d="M1104.63,161.07l.84-1.56a.7.7,0,0,1,1-.24l0,0a8.33,8.33,0,0,0,3.72,1c1.2,0,2-.48,2-1.36,0-1.08-.88-1.6-3.08-2.6-2.48-1.08-4.56-2.6-4.56-5.24,0-2,1.64-4.4,5.48-4.4a9,9,0,0,1,4.72,1.24.89.89,0,0,1,.32,1.16l-.72,1.36a.84.84,0,0,1-1,.32A9.23,9.23,0,0,0,1110,150c-1.36,0-1.8.6-1.8,1.2,0,1,1,1.48,2.56,2.16,2.92,1.28,5.32,2.52,5.32,5.52,0,2.48-2.36,4.68-5.92,4.68a8.35,8.35,0,0,1-5.28-1.64A.67.67,0,0,1,1104.63,161.07Z"/><circle class="cls-2" cx="130.15" cy="130.15" r="130.15"/><circle class="cls-2" cx="130.15" cy="544.77" r="130.15"/><path class="cls-3" d="M96.61,505.53H90.1a.76.76,0,0,1-.76-.76h0v-2.24a.76.76,0,0,1,.76-.76h17.19a.76.76,0,0,1,.76.76h0v2.24a.76.76,0,0,1-.76.76h-6.52V529a.8.8,0,0,1-.76.76H97.37a.8.8,0,0,1-.76-.76Z"/><path class="cls-3" d="M115.05,513.37a7.2,7.2,0,0,1,7.36,7v.36a9.81,9.81,0,0,1-.08,1.08.74.74,0,0,1-.72.68H110.73a4.63,4.63,0,0,0,4.6,4.28,6.88,6.88,0,0,0,3.56-1.16c.48-.28.76-.44,1.08,0l1.12,1.52a.62.62,0,0,1,.07.87.47.47,0,0,1-.15.13,9.15,9.15,0,0,1-5.92,2c-4.84,0-8-3.8-8-8.4S110.25,513.37,115.05,513.37Zm3.64,6.64a3.78,3.78,0,0,0-3.68-3.56,4,4,0,0,0-4.08,3.56Z"/><path class="cls-3" d="M131.49,519.65a11.31,11.31,0,0,1,3.16.48c0-2.52-.44-3.52-2.48-3.52a17,17,0,0,0-4.48.72c-.48.12-.76-.2-.88-.64l-.32-1.48a.73.73,0,0,1,.47-.91H127a16.44,16.44,0,0,1,5.52-.92c5.12,0,5.6,3.12,5.6,7.12V529a.8.8,0,0,1-.76.76h-1.12c-.36,0-.52-.16-.68-.56l-.4-1.08a6.88,6.88,0,0,1-4.92,2c-3,0-5.16-2-5.16-5.36C125.09,521.89,127.41,519.65,131.49,519.65Zm-.48,7.68a4.73,4.73,0,0,0,3.6-2v-2.56a5.93,5.93,0,0,0-2.8-.64c-1.92,0-3.24,1-3.24,2.64a2.42,2.42,0,0,0,2.26,2.56H131Z"/><path class="cls-3" d="M143.17,514.53a.8.8,0,0,1,.76-.76h1.12a.7.7,0,0,1,.68.48l.44,1.36a7.44,7.44,0,0,1,5.28-2.24,5.93,5.93,0,0,1,5.16,2.56,8.87,8.87,0,0,1,5.8-2.56c4.88,0,6.6,3.44,6.6,7.6v8a.76.76,0,0,1-.76.76H166a.76.76,0,0,1-.76-.76h0v-8.2c0-2.52-1.16-4-3.32-4a5.76,5.76,0,0,0-4.12,2,10.32,10.32,0,0,1,.12,1.92V529a.8.8,0,0,1-.76.76H155a.76.76,0,0,1-.76-.76h0v-8.2c0-2.56-1.16-4-3.4-4a4.54,4.54,0,0,0-4,2.4V529a.8.8,0,0,1-.76.76h-2.24a.8.8,0,0,1-.76-.76Z"/><path class="cls-3" d="M32.5,550.53a.76.76,0,0,1,.76-.76h9.11a8.92,8.92,0,0,1,0,17.84H36.62V577a.8.8,0,0,1-.76.76h-2.6a.76.76,0,0,1-.76-.76h0Zm9.63,13.16a5.1,5.1,0,0,0,5.08-5.12h0a4.93,4.93,0,0,0-5.06-4.8H36.62v9.92Z"/><path class="cls-3" d="M60.38,561.37a7.2,7.2,0,0,1,7.35,7v.35a9.81,9.81,0,0,1-.08,1.08.74.74,0,0,1-.72.68H56.06a4.63,4.63,0,0,0,4.6,4.28,6.81,6.81,0,0,0,3.55-1.16c.48-.28.76-.44,1.08,0l1.12,1.52a.62.62,0,0,1,.07.87.47.47,0,0,1-.15.13,9.19,9.19,0,0,1-5.91,2c-4.84,0-8-3.8-8-8.4S55.58,561.37,60.38,561.37ZM64,568a3.78,3.78,0,0,0-3.67-3.56A4,4,0,0,0,56.26,568Z"/><path class="cls-3" d="M71.58,562.53a.8.8,0,0,1,.76-.76H73.5a.76.76,0,0,1,.67.56l.44,1.36a5.71,5.71,0,0,1,4.68-2.32c1.52,0,3.36.4,2.92,1.48l-1,2a.67.67,0,0,1-.86.42.35.35,0,0,1-.14-.06,3.71,3.71,0,0,0-1.36-.28,4.18,4.18,0,0,0-3.59,2V577c0,.68-.45.76-1.09.76H72.34a.8.8,0,0,1-.76-.76Z"/><path class="cls-3" d="M86.25,565.09H84.38a.76.76,0,0,1-.76-.74v-1.82a.73.73,0,0,1,.7-.76h1.93v-5c0-5,3-7.44,6.8-7.44a7.2,7.2,0,0,1,4.56,1.6.75.75,0,0,1,.16.92l-1,1.8c-.2.36-.6.4-1,.12a5.51,5.51,0,0,0-2.64-1c-1.76,0-3,1.28-3,4v5h4.32a.74.74,0,0,1,.76.72v1.84a.76.76,0,0,1-.76.76H90.13V577a.8.8,0,0,1-.76.76H87a.8.8,0,0,1-.76-.76Z"/><path class="cls-3" d="M105.29,561.37a8.41,8.41,0,1,1-8.07,8.73c0-.12,0-.25,0-.37A8.27,8.27,0,0,1,105.29,561.37Zm0,13.36a4.76,4.76,0,0,0,4.52-5h0a4.53,4.53,0,1,0-9,0A4.76,4.76,0,0,0,105.29,574.73Z"/><path class="cls-3" d="M117.37,562.53a.8.8,0,0,1,.76-.76h1.16a.76.76,0,0,1,.68.56l.44,1.36a5.71,5.71,0,0,1,4.68-2.32c1.52,0,3.36.4,2.92,1.48l-1,2a.67.67,0,0,1-.86.42.35.35,0,0,1-.14-.06,3.71,3.71,0,0,0-1.36-.28,4.21,4.21,0,0,0-3.6,2V577c0,.68-.44.76-1.08.76h-1.92a.8.8,0,0,1-.76-.76Z"/><path class="cls-3" d="M130.81,562.53a.8.8,0,0,1,.76-.76h1.12a.7.7,0,0,1,.68.48l.44,1.36a7.44,7.44,0,0,1,5.28-2.24,5.93,5.93,0,0,1,5.16,2.56,8.87,8.87,0,0,1,5.8-2.56c4.88,0,6.6,3.44,6.6,7.6v8a.76.76,0,0,1-.76.76h-2.24a.76.76,0,0,1-.76-.76h0v-8.2c0-2.52-1.16-4-3.32-4a5.76,5.76,0,0,0-4.12,2,10.32,10.32,0,0,1,.12,1.92V577a.8.8,0,0,1-.76.76h-2.12a.76.76,0,0,1-.76-.76h0v-8.2c0-2.56-1.16-4-3.4-4a4.54,4.54,0,0,0-4,2.4V577a.8.8,0,0,1-.76.76h-2.24a.8.8,0,0,1-.76-.76Z"/><path class="cls-3" d="M166.89,567.65a11.31,11.31,0,0,1,3.16.48c0-2.52-.44-3.52-2.48-3.52a17,17,0,0,0-4.48.72c-.48.12-.76-.2-.88-.64l-.32-1.48a.73.73,0,0,1,.47-.91h0a16.44,16.44,0,0,1,5.52-.92c5.12,0,5.6,3.12,5.6,7.12V577a.8.8,0,0,1-.76.76h-1.12c-.36,0-.52-.16-.68-.56l-.4-1.08a6.88,6.88,0,0,1-4.92,2c-3,0-5.16-2-5.16-5.36C160.49,569.89,162.81,567.65,166.89,567.65Zm-.48,7.68a4.73,4.73,0,0,0,3.6-2v-2.56a5.93,5.93,0,0,0-2.8-.64c-1.92,0-3.24,1-3.24,2.64a2.42,2.42,0,0,0,2.26,2.56Z"/><path class="cls-3" d="M178.57,562.53a.8.8,0,0,1,.76-.76h1.16a.64.64,0,0,1,.64.48l.48,1.36a8.21,8.21,0,0,1,5.6-2.24c4.88,0,6.68,3.44,6.68,7.6v8a.8.8,0,0,1-.76.76h-2.28a.76.76,0,0,1-.76-.76h0v-8.2c0-2.56-1.24-4-3.32-4a5.3,5.3,0,0,0-4.44,2.4V577c0,.52-.24.76-.92.76h-2.08a.8.8,0,0,1-.76-.76Z"/><path class="cls-3" d="M206.09,561.37a7.09,7.09,0,0,1,5.8,2.84.78.78,0,0,1-.13,1.1l0,0-1.32,1.2c-.48.44-.76.12-1.08-.16a4.44,4.44,0,0,0-3.2-1.52,4.94,4.94,0,1,0,3.68,8,.72.72,0,0,1,1-.13l.06,0,1.08.88c.4.32.56.72.28,1.12a7.1,7.1,0,0,1-6.2,3.36,8.33,8.33,0,0,1-8.36-8.3v-.06A8.52,8.52,0,0,1,206.09,561.37Z"/><path class="cls-3" d="M223.09,561.37a7.2,7.2,0,0,1,7.36,7v.36a9.81,9.81,0,0,1-.08,1.08.74.74,0,0,1-.72.68H218.77a4.63,4.63,0,0,0,4.6,4.28,6.88,6.88,0,0,0,3.56-1.16c.48-.28.76-.44,1.08,0l1.12,1.52a.62.62,0,0,1,.07.87.47.47,0,0,1-.15.13,9.15,9.15,0,0,1-5.92,2c-4.84,0-8-3.8-8-8.4S218.29,561.37,223.09,561.37Zm3.64,6.64a3.78,3.78,0,0,0-3.68-3.56A4,4,0,0,0,219,568Z"/><circle class="cls-2" cx="593.95" cy="834.17" r="130.15"/><path class="cls-3" d="M504.55,823.85a.76.76,0,0,1,.76-.76h9.12a8.92,8.92,0,0,1,.6,17.83h-6.4v9.4a.8.8,0,0,1-.76.76h-2.6a.76.76,0,0,1-.76-.76h0ZM514.19,837a5.1,5.1,0,0,0,5.08-5.12h0a4.93,4.93,0,0,0-5.06-4.8h-5.54V837Z"/><path class="cls-3" d="M526.08,835.85a.8.8,0,0,1,.76-.76H528a.76.76,0,0,1,.67.55l.44,1.37a5.68,5.68,0,0,1,4.68-2.33c1.52,0,3.36.41,2.92,1.49l-1,2a.67.67,0,0,1-.86.42.35.35,0,0,1-.14-.06,3.71,3.71,0,0,0-1.36-.28,4.18,4.18,0,0,0-3.59,2v10.16c0,.68-.45.76-1.09.76h-1.91a.8.8,0,0,1-.76-.76Z"/><path class="cls-3" d="M546.27,834.68a8.41,8.41,0,1,1-8.07,8.73c0-.12,0-.25,0-.37A8.27,8.27,0,0,1,546.27,834.68Zm0,13.36a4.76,4.76,0,0,0,4.52-5h0a4.53,4.53,0,1,0-9,0,4.76,4.76,0,0,0,4.48,5Z"/><path class="cls-3" d="M559.59,838.4h-1.88a.74.74,0,0,1-.75-.73v-1.82a.73.73,0,0,1,.7-.76h1.93v-5c0-4.76,3.24-7.44,7.2-7.44a12.47,12.47,0,0,1,6,1.8.74.74,0,0,1,.2,1l-1,1.8c-.24.48-.6.44-1,.2a10.2,10.2,0,0,0-4.16-1.28c-1.64,0-3.32,1.16-3.32,3.92v5h10.68a.8.8,0,0,1,.76.76v14.47a.8.8,0,0,1-.76.76h-2.28a.8.8,0,0,1-.76-.76V838.4h-7.64v11.92c0,.6-.64.76-1.12.76h-2a.8.8,0,0,1-.76-.76Z"/><path class="cls-3" d="M581.15,838.4h-1.68a.76.76,0,0,1-.76-.74v-1.81a.74.74,0,0,1,.72-.76h1.72v-4.44a.8.8,0,0,1,.76-.76h2.28a.74.74,0,0,1,.72.76v4.48H589a.74.74,0,0,1,.76.72v1.83a.76.76,0,0,1-.74.76h-4.1v7.92c0,1.36.52,1.6,1.28,1.6a6.55,6.55,0,0,0,2.44-.72.6.6,0,0,1,.83.16.72.72,0,0,1,.09.2l.72,1.76a.67.67,0,0,1-.18.92l-.18.08a12.32,12.32,0,0,1-4.68,1.2c-3.16,0-4.08-1.92-4.08-4.76Z"/><path class="cls-3" d="M599.19,841a11.31,11.31,0,0,1,3.16.48c0-2.52-.44-3.51-2.48-3.51a17.45,17.45,0,0,0-4.48.71c-.48.13-.76-.2-.88-.63l-.32-1.49a.73.73,0,0,1,.47-.91h.05a17,17,0,0,1,5.52-.92c5.12,0,5.6,3.13,5.6,7.12v8.52a.8.8,0,0,1-.76.76H604c-.36,0-.52-.16-.68-.56l-.4-1.08a6.88,6.88,0,0,1-4.92,2c-3,0-5.16-2-5.16-5.36C592.79,843.2,595.11,841,599.19,841Zm-.48,7.68a4.73,4.73,0,0,0,3.6-2v-2.56a5.93,5.93,0,0,0-2.8-.64c-1.92,0-3.24,1-3.24,2.64a2.41,2.41,0,0,0,2.3,2.52h.14Z"/><path class="cls-3" d="M610.87,823.85a.8.8,0,0,1,.76-.76H614a.8.8,0,0,1,.76.76v11.71a9.79,9.79,0,0,1,3.84-.88c4.44,0,7.88,3.72,7.88,8.4s-3.24,8.4-7.48,8.4a7.13,7.13,0,0,1-5.08-2.24l-.32,1.16c-.12.4-.36.68-.72.68h-1.2a.8.8,0,0,1-.76-.76Zm7.6,24.19c2.56,0,4.24-2.28,4.24-5a4.65,4.65,0,0,0-4.37-4.91h-.19a6.87,6.87,0,0,0-3.48.92v6.56a4.29,4.29,0,0,0,3.8,2.4Z"/><path class="cls-3" d="M630,826.25a2.3,2.3,0,0,1,2.24-2.36h0a2.34,2.34,0,0,1,0,4.68h0a2.3,2.3,0,0,1-2.28-2.3Zm.44,9.6a.8.8,0,0,1,.76-.76h2.28a.8.8,0,0,1,.76.76v14.47a.8.8,0,0,1-.76.76H631.2a.8.8,0,0,1-.76-.76Z"/><path class="cls-3" d="M639.47,823.85a.8.8,0,0,1,.76-.76h2.28a.8.8,0,0,1,.76.76v26.47a.8.8,0,0,1-.76.76h-2.28a.8.8,0,0,1-.76-.76Z"/><path class="cls-3" d="M648,826.25a2.3,2.3,0,0,1,2.24-2.36h0a2.34,2.34,0,0,1,0,4.68h0a2.3,2.3,0,0,1-2.28-2.3Zm.44,9.6a.8.8,0,0,1,.76-.76h2.28a.8.8,0,0,1,.76.76v14.47a.8.8,0,0,1-.76.76H649.2a.8.8,0,0,1-.76-.76Z"/><path class="cls-3" d="M658.51,838.4h-1.68a.76.76,0,0,1-.76-.74v-1.81a.74.74,0,0,1,.72-.76h1.72v-4.44a.8.8,0,0,1,.76-.76h2.28a.74.74,0,0,1,.72.76v4.48h4.08a.74.74,0,0,1,.76.72v1.83a.76.76,0,0,1-.74.76h-4.1v7.92c0,1.36.52,1.6,1.28,1.6a6.55,6.55,0,0,0,2.44-.72.6.6,0,0,1,.83.16.72.72,0,0,1,.09.2l.72,1.76a.67.67,0,0,1-.18.92l-.18.08a12.32,12.32,0,0,1-4.68,1.2c-3.16,0-4.08-1.92-4.08-4.76Z"/><path class="cls-3" d="M669.15,836.13a.69.69,0,0,1,.33-.93.61.61,0,0,1,.35-.07h2.64a.9.9,0,0,1,.68.43l5,10.64h0l4.8-10.64a.81.81,0,0,1,.84-.43h2.28a.68.68,0,0,1,.76.59.72.72,0,0,1-.08.41L674.51,862.6a.81.81,0,0,1-.68.48h-2.4a.73.73,0,0,1-.78-.66.77.77,0,0,1,.1-.42l5.36-11.48Z"/><line class="cls-4" x1="267.83" y1="189.11" x2="393.52" y2="241.4"/><polyline class="cls-5" points="272.19 205.93 264.72 187.82 282.83 180.35"/><polyline class="cls-5" points="390.89 225.31 398.36 243.42 380.25 250.88"/><line class="cls-4" x1="266.88" y1="476.2" x2="392.72" y2="424.29"/><polyline class="cls-5" points="281.85 485 263.77 477.48 271.29 459.39"/><polyline class="cls-5" points="379.49 414.77 397.58 422.29 390.05 440.38"/><line class="cls-4" x1="920.54" y1="189.11" x2="794.85" y2="241.4"/><polyline class="cls-5" points="916.18 205.93 923.64 187.82 905.54 180.35"/><polyline class="cls-5" points="797.47 225.31 790 243.42 808.11 250.88"/><line class="cls-4" x1="594.32" y1="548.14" x2="593.6" y2="684.27"/><polyline class="cls-5" points="608.11 558.7 594.33 544.77 580.41 558.55"/><polyline class="cls-5" points="579.8 675.59 593.57 689.52 607.5 675.74"/><line class="cls-4" x1="921.49" y1="476.2" x2="795.64" y2="424.29"/><polyline class="cls-5" points="906.51 485 924.6 477.48 917.07 459.39"/><polyline class="cls-5" points="808.87 414.77 790.79 422.29 798.31 440.38"/></g><path d="M55.08,114.4a.81.81,0,0,1,.72-.6h.64a.81.81,0,0,1,.68.44l8.36,20.44h.16L74,114.24a.76.76,0,0,1,.68-.44h.64a.81.81,0,0,1,.72.6l4.92,26.88a.68.68,0,0,1-.72.92H77.6a.83.83,0,0,1-.76-.56l-3-17.88h-.12l-7.2,18.4a.68.68,0,0,1-.68.44h-.72a.72.72,0,0,1-.68-.44l-7.24-18.4h-.16L54.2,141.64a.78.78,0,0,1-.71.56h-2.6a.71.71,0,0,1-.76-.92Z"/><path d="M90.44,132.08a11.51,11.51,0,0,1,3.16.48c0-2.52-.44-3.52-2.48-3.52a17,17,0,0,0-4.48.72c-.48.12-.76-.2-.88-.64l-.31-1.48a.71.71,0,0,1,.51-.92,16.5,16.5,0,0,1,5.52-.92c5.12,0,5.6,3.12,5.6,7.12v8.52a.79.79,0,0,1-.76.76H95.2c-.36,0-.52-.16-.68-.56l-.4-1.08a6.9,6.9,0,0,1-4.92,2c-3,0-5.16-2-5.16-5.36C84,134.32,86.36,132.08,90.44,132.08ZM90,139.76a4.73,4.73,0,0,0,3.6-2V135.2a6,6,0,0,0-2.8-.64c-1.92,0-3.24,1-3.24,2.64A2.41,2.41,0,0,0,90,139.76Z"/><path d="M102.12,127a.79.79,0,0,1,.76-.76H104a.76.76,0,0,1,.68.56l.44,1.36a5.7,5.7,0,0,1,4.68-2.32c1.52,0,3.36.4,2.92,1.48l-1,2a.68.68,0,0,1-1,.36,3.66,3.66,0,0,0-1.36-.28,4.22,4.22,0,0,0-3.6,2v10.16c0,.68-.44.76-1.08.76h-1.92a.79.79,0,0,1-.76-.76Z"/><path d="M115.56,115a.79.79,0,0,1,.76-.76h2.32a.79.79,0,0,1,.76.76v17.32l6.24-5.6a1.58,1.58,0,0,1,1-.48h2.8a.62.62,0,0,1,.44,1.08l-6.64,6,7.84,7.84a.59.59,0,0,1-.44,1h-3.28a1,1,0,0,1-.72-.32l-7.24-7.44v7a.79.79,0,0,1-.76.76h-2.32a.79.79,0,0,1-.76-.76Z"/><path d="M140.8,125.8a7.2,7.2,0,0,1,7.36,7.4,9.81,9.81,0,0,1-.08,1.08.74.74,0,0,1-.72.68H136.48a4.63,4.63,0,0,0,4.6,4.28,6.82,6.82,0,0,0,3.56-1.16c.48-.28.76-.44,1.08,0l1.12,1.52a.62.62,0,0,1-.08,1,9.19,9.19,0,0,1-5.92,2c-4.84,0-8-3.8-8-8.4S136,125.8,140.8,125.8Zm3.64,6.64a3.78,3.78,0,0,0-3.68-3.56,4,4,0,0,0-4.08,3.56Z"/><path d="M153,129.52h-1.68a.75.75,0,0,1-.75-.76V127a.73.73,0,0,1,.75-.76H153v-4.44a.79.79,0,0,1,.76-.76l2.28,0a.75.75,0,0,1,.72.76v4.48h4.08a.74.74,0,0,1,.76.76v1.8a.76.76,0,0,1-.76.76H156.8v7.92c0,1.36.52,1.6,1.28,1.6a6.52,6.52,0,0,0,2.44-.72.6.6,0,0,1,.92.36l.72,1.76a.66.66,0,0,1-.36,1,12.27,12.27,0,0,1-4.68,1.2c-3.16,0-4.08-1.92-4.08-4.76Z"/><path d="M165.4,117.36a2.3,2.3,0,0,1,2.28-2.36,2.34,2.34,0,1,1,0,4.68A2.29,2.29,0,0,1,165.4,117.36Zm.44,9.6a.79.79,0,0,1,.76-.76h2.28a.79.79,0,0,1,.76.76v14.48a.79.79,0,0,1-.76.76H166.6a.79.79,0,0,1-.76-.76Z"/><path d="M174.84,127a.79.79,0,0,1,.76-.76h1.16a.65.65,0,0,1,.64.48l.48,1.36a8.18,8.18,0,0,1,5.6-2.24c4.88,0,6.68,3.44,6.68,7.6v8a.79.79,0,0,1-.76.76h-2.28a.76.76,0,0,1-.76-.76v-8.2c0-2.56-1.24-4-3.32-4a5.29,5.29,0,0,0-4.44,2.4v9.76c0,.52-.24.76-.92.76H175.6a.79.79,0,0,1-.76-.76Z"/><path d="M196.4,136.68a6.42,6.42,0,0,1-1.24-3.88,6.85,6.85,0,0,1,6.88-7h7a.74.74,0,0,1,.76.76v1c0,.28-.16.64-.44.68l-2.2.6a5.35,5.35,0,0,1,1.72,4.28,6.54,6.54,0,0,1-6.8,6.52,11.77,11.77,0,0,1-3.48-.64,2.2,2.2,0,0,0-1.64,2,1.71,1.71,0,0,0,1.92,1.64h5.44c3.48,0,6.28,1.88,6.28,5.36s-3.2,6.64-8.52,6.64c-5.64,0-7.92-2.88-7.92-5.48a4.41,4.41,0,0,1,2.36-3.76v-.12a4.13,4.13,0,0,1-3-4A5.51,5.51,0,0,1,196.4,136.68ZM202,151.32c2.44,0,4.56-1.24,4.56-3.16,0-.64-.4-2.28-3-2.28-1.16,0-2.36,0-3.52.08-.24.08-2.2.72-2.2,2.52C197.88,150.12,199.6,151.32,202,151.32Zm3.44-18.44a3.37,3.37,0,0,0-3.36-3.68,3.68,3.68,0,0,0,0,7.36A3.37,3.37,0,0,0,205.48,132.88Z"/></g></g></g></svg>