<svg xmlns="http://www.w3.org/2000/svg" viewBox="0 0 240 240"><defs><style>.a{fill:#fff;}.b{fill:#b18307;}</style></defs><rect class="a" x="48" y="46" width="144" height="148"/><path class="b" d="M197.38.09H43.09A42.85,42.85,0,0,0,.24,42.94V197.23a42.86,42.86,0,0,0,42.85,42.86H197.38a42.86,42.86,0,0,0,42.86-42.85h0V42.94A42.85,42.85,0,0,0,197.38.09ZM171.07,94A74.21,74.21,0,0,1,100.8,172c-1.43.08-2.87.11-4.3.1a74.3,74.3,0,0,1-40.22-11.79A52.73,52.73,0,0,0,95.12,149.4a26.25,26.25,0,0,1-24.5-18.22,26.31,26.31,0,0,0,11.84-.44,26.26,26.26,0,0,1-21-26.07A26.09,26.09,0,0,0,73.31,108a26.27,26.27,0,0,1-8.1-35,74.49,74.49,0,0,0,54.07,27.42A26.25,26.25,0,0,1,138.9,68.82a25.76,25.76,0,0,1,5.93-.69A26.17,26.17,0,0,1,164,76.42,52.74,52.74,0,0,0,180.64,70a26.28,26.28,0,0,1-11.53,14.52,52.48,52.48,0,0,0,15.06-4.13A53.11,53.11,0,0,1,171.09,94Z"/></svg>