<svg xmlns="http://www.w3.org/2000/svg" viewBox="0 0 975.97 901.88"><defs><style>.cls-1{fill:#f5eeda;}.cls-2{fill:#666;}.cls-3{fill:#b08310;}.cls-4{fill:#212222;}.cls-5{fill:#fff;}</style></defs><g id="Layer_2" data-name="Layer 2"><g id="Layer_1-2" data-name="Layer 1"><rect class="cls-1" x="691.48" y="843.2" width="271.1" height="58.69" rx="7.73"/><rect class="cls-1" x="352.44" y="843.2" width="271.1" height="58.69" rx="7.73"/><rect class="cls-1" x="11.1" y="843.2" width="271.1" height="58.69" rx="7.73"/><rect class="cls-2" x="121.61" y="299.31" width="50.07" height="411.98" rx="2.72"/><rect class="cls-2" x="182.92" y="299.31" width="50.07" height="411.98" rx="2.72"/><rect class="cls-2" x="60" y="299.31" width="50.07" height="411.98" rx="2.72"/><rect class="cls-2" x="40.54" y="262.41" width="212.22" height="31.38" rx="3.6"/><path class="cls-2" d="M259.19,256.9a123.74,123.74,0,0,0,11.64-52.54H22.47A123.6,123.6,0,0,0,34.11,256.9Z"/><rect class="cls-2" x="40.54" y="716.8" width="212.22" height="31.38" rx="3.6" transform="translate(293.29 1464.97) rotate(180)"/><path class="cls-2" d="M34.11,753.69a123.6,123.6,0,0,0-11.64,52.54H270.83a123.74,123.74,0,0,0-11.64-52.54Z"/><rect class="cls-3" x="389.9" y="-389.9" width="196.18" height="975.97" rx="8.28" transform="translate(586.08 -389.9) rotate(90)"/><path class="cls-4" d="M101.1,864.72H95.65a.67.67,0,0,1-.67-.67v-2.92a.67.67,0,0,1,.67-.68h15.56a.68.68,0,0,1,.68.68v2.92a.68.68,0,0,1-.68.67h-5.45v20a.7.7,0,0,1-.67.68h-3.31a.7.7,0,0,1-.68-.68Z"/><path class="cls-4" d="M115.59,861.13a.67.67,0,0,1,.67-.68h10.19a7.71,7.71,0,0,1,7.76,7.65,7.88,7.88,0,0,1-5.27,7.2l4.87,9a.67.67,0,0,1-.6,1h-3.74a.61.61,0,0,1-.57-.32l-4.73-9.43h-4v9.07a.7.7,0,0,1-.68.68h-3.28a.67.67,0,0,1-.67-.68Zm10.46,10.68a3.63,3.63,0,0,0,3.53-3.63,3.55,3.55,0,0,0-3.53-3.46h-5.8v7.09Z"/><path class="cls-4" d="M138.94,861.13a.7.7,0,0,1,.68-.68H143a.67.67,0,0,1,.67.68v14.56a5.18,5.18,0,1,0,10.36,0V861.13a.68.68,0,0,1,.68-.68h3.38a.7.7,0,0,1,.68.68v14.81a9.92,9.92,0,0,1-19.83,0Z"/><path class="cls-4" d="M163.43,881.88l1.28-2.21a.83.83,0,0,1,1.21-.24c.18.1,3.07,2.2,5.38,2.2a3,3,0,0,0,3.24-2.74c0-1.81-1.53-3.06-4.52-4.27-3.35-1.35-6.7-3.49-6.7-7.69,0-3.17,2.35-6.83,8-6.83a12.54,12.54,0,0,1,7.12,2.38.88.88,0,0,1,.22,1.18l-1.35,2a.94.94,0,0,1-1.25.43c-.29-.18-3-2-4.95-2s-3.13,1.36-3.13,2.5c0,1.67,1.32,2.81,4.2,4,3.45,1.39,7.44,3.46,7.44,8,0,3.66-3.17,7.05-8.19,7.05a11.43,11.43,0,0,1-7.83-2.78C163.29,882.63,163.11,882.45,163.43,881.88Z"/><path class="cls-4" d="M187.53,864.72h-5.45a.67.67,0,0,1-.67-.67v-2.92a.67.67,0,0,1,.67-.68h15.56a.68.68,0,0,1,.68.68v2.92a.68.68,0,0,1-.68.67h-5.45v20a.7.7,0,0,1-.67.68h-3.31a.7.7,0,0,1-.68-.68Z"/><path class="cls-4" d="M400.91,861.13a.67.67,0,0,1,.67-.68h14.49a.68.68,0,0,1,.68.68v2.92a.68.68,0,0,1-.68.67H405.53v5.84h8.8a.7.7,0,0,1,.67.68v3a.68.68,0,0,1-.67.68h-8.8v6.23h10.54a.68.68,0,0,1,.68.67v2.92a.68.68,0,0,1-.68.68H401.58a.67.67,0,0,1-.67-.68Z"/><path class="cls-4" d="M427.07,872.59,420,861.45a.64.64,0,0,1,.61-1h4.13a.73.73,0,0,1,.57.32l4.55,7.55h0l4.63-7.55a.65.65,0,0,1,.57-.32h4.12a.64.64,0,0,1,.61,1l-7.16,11.14L440,884.37a.64.64,0,0,1-.61,1h-3.84a.74.74,0,0,1-.61-.32l-5.09-8.15h-.1l-5,8.15a.79.79,0,0,1-.61.32h-3.84c-.64,0-.93-.53-.64-1Z"/><path class="cls-4" d="M444.34,861.13a.67.67,0,0,1,.67-.68h8.37a7.94,7.94,0,1,1,0,15.88H449v8.36a.7.7,0,0,1-.67.68H445a.67.67,0,0,1-.67-.68ZM453.09,872a3.67,3.67,0,0,0,3.67-3.71,3.55,3.55,0,0,0-3.67-3.45H449V872Z"/><path class="cls-4" d="M465.41,861.13a.67.67,0,0,1,.68-.68h14.48a.67.67,0,0,1,.68.68v2.92a.67.67,0,0,1-.68.67H470v5.84h8.79a.7.7,0,0,1,.68.68v3a.68.68,0,0,1-.68.68H470v6.23h10.53a.67.67,0,0,1,.68.67v2.92a.67.67,0,0,1-.68.68H466.09a.67.67,0,0,1-.68-.68Z"/><path class="cls-4" d="M486.34,861.13a.68.68,0,0,1,.68-.68H497.2A7.71,7.71,0,0,1,505,868.1a7.86,7.86,0,0,1-5.27,7.2l4.88,9a.67.67,0,0,1-.61,1h-3.74a.63.63,0,0,1-.57-.32l-4.73-9.43H491v9.07a.7.7,0,0,1-.68.68H487a.68.68,0,0,1-.68-.68Zm10.47,10.68a3.63,3.63,0,0,0,3.52-3.63,3.55,3.55,0,0,0-3.52-3.46H491v7.09Z"/><path class="cls-4" d="M513.4,864.72H508a.68.68,0,0,1-.68-.67v-2.92a.68.68,0,0,1,.68-.68h15.56a.67.67,0,0,1,.67.68v2.92a.67.67,0,0,1-.67.67h-5.45v20a.7.7,0,0,1-.68.68h-3.31a.7.7,0,0,1-.67-.68Z"/><path class="cls-4" d="M527.88,861.13a.7.7,0,0,1,.68-.68h3.31a.7.7,0,0,1,.68.68v23.56a.7.7,0,0,1-.68.68h-3.31a.7.7,0,0,1-.68-.68Z"/><path class="cls-4" d="M537.57,881.88l1.28-2.21a.83.83,0,0,1,1.21-.24c.18.1,3.06,2.2,5.37,2.2a3,3,0,0,0,3.24-2.74c0-1.81-1.53-3.06-4.52-4.27-3.34-1.35-6.69-3.49-6.69-7.69,0-3.17,2.35-6.83,8-6.83a12.57,12.57,0,0,1,7.12,2.38.89.89,0,0,1,.21,1.18l-1.35,2a.94.94,0,0,1-1.25.43c-.28-.18-3-2-4.94-2s-3.14,1.36-3.14,2.5c0,1.67,1.32,2.81,4.2,4,3.46,1.39,7.44,3.46,7.44,8,0,3.66-3.16,7.05-8.18,7.05a11.47,11.47,0,0,1-7.84-2.78C537.42,882.63,537.25,882.45,537.57,881.88Z"/><path class="cls-4" d="M558.32,861.13a.67.67,0,0,1,.68-.68h14.48a.67.67,0,0,1,.68.68v2.92a.67.67,0,0,1-.68.67H563v5.84h8.79a.7.7,0,0,1,.68.68v3a.68.68,0,0,1-.68.68H563v6.23h10.53a.67.67,0,0,1,.68.67v2.92a.67.67,0,0,1-.68.68H559a.67.67,0,0,1-.68-.68Z"/><path class="cls-4" d="M712.34,861.13a.67.67,0,0,1,.67-.68h8.37a7.94,7.94,0,1,1,0,15.88H717v8.36a.7.7,0,0,1-.67.68H713a.67.67,0,0,1-.67-.68ZM721.09,872a3.67,3.67,0,0,0,3.67-3.71,3.55,3.55,0,0,0-3.67-3.45H717V872Z"/><path class="cls-4" d="M728.78,884.44l11.07-24a.64.64,0,0,1,.61-.39h.36a.6.6,0,0,1,.6.39l11,24a.63.63,0,0,1-.6.93h-3.1a1,1,0,0,1-1-.71l-1.74-3.85H735.26l-1.74,3.85a1.09,1.09,0,0,1-1,.71h-3.1A.63.63,0,0,1,728.78,884.44Zm15.38-7.58L740.6,869h-.11L737,876.86Z"/><path class="cls-4" d="M755.62,861.13a.68.68,0,0,1,.68-.68h10.18a7.71,7.71,0,0,1,7.76,7.65,7.86,7.86,0,0,1-5.27,7.2l4.88,9a.67.67,0,0,1-.6,1h-3.74a.61.61,0,0,1-.57-.32l-4.74-9.43h-4v9.07a.7.7,0,0,1-.67.68H756.3a.68.68,0,0,1-.68-.68Zm10.47,10.68a3.62,3.62,0,0,0,3.52-3.63,3.54,3.54,0,0,0-3.52-3.46h-5.8v7.09Z"/><path class="cls-4" d="M782.68,864.72h-5.45a.67.67,0,0,1-.67-.67v-2.92a.67.67,0,0,1,.67-.68h15.56a.67.67,0,0,1,.67.68v2.92a.67.67,0,0,1-.67.67h-5.45v20a.7.7,0,0,1-.67.68h-3.32a.7.7,0,0,1-.67-.68Z"/><path class="cls-4" d="M797.17,860.74a.66.66,0,0,1,.67-.64h.89l14.81,15.73h0v-14.7a.67.67,0,0,1,.67-.68h3.28a.7.7,0,0,1,.68.68v24a.67.67,0,0,1-.68.64h-.85l-14.89-16.34h0v15.3a.68.68,0,0,1-.68.68h-3.24a.7.7,0,0,1-.67-.68Z"/><path class="cls-4" d="M824.68,861.13a.68.68,0,0,1,.68-.68h14.49a.68.68,0,0,1,.68.68v2.92a.68.68,0,0,1-.68.67H829.31v5.84h8.8a.7.7,0,0,1,.67.68v3a.68.68,0,0,1-.67.68h-8.8v6.23h10.54a.68.68,0,0,1,.68.67v2.92a.68.68,0,0,1-.68.68H825.36a.68.68,0,0,1-.68-.68Z"/><path class="cls-4" d="M845.62,861.13a.67.67,0,0,1,.67-.68h10.18a7.71,7.71,0,0,1,7.76,7.65,7.87,7.87,0,0,1-5.26,7.2l4.87,9a.67.67,0,0,1-.6,1H859.5a.61.61,0,0,1-.57-.32l-4.74-9.43h-4v9.07a.7.7,0,0,1-.67.68h-3.28a.67.67,0,0,1-.67-.68Zm10.46,10.68a3.63,3.63,0,0,0,3.53-3.63,3.55,3.55,0,0,0-3.53-3.46h-5.8v7.09Z"/><path class="cls-4" d="M867.86,881.88l1.29-2.21a.83.83,0,0,1,1.21-.24c.17.1,3.06,2.2,5.37,2.2a3,3,0,0,0,3.24-2.74c0-1.81-1.53-3.06-4.52-4.27-3.35-1.35-6.69-3.49-6.69-7.69,0-3.17,2.35-6.83,8-6.83a12.57,12.57,0,0,1,7.12,2.38.89.89,0,0,1,.21,1.18l-1.35,2a.94.94,0,0,1-1.25.43c-.28-.18-3-2-5-2s-3.13,1.36-3.13,2.5c0,1.67,1.32,2.81,4.2,4,3.45,1.39,7.44,3.46,7.44,8,0,3.66-3.17,7.05-8.19,7.05A11.43,11.43,0,0,1,868,883C867.72,882.63,867.54,882.45,867.86,881.88Z"/><path class="cls-4" d="M888.62,861.13a.7.7,0,0,1,.67-.68h3.32a.67.67,0,0,1,.67.68v9.43h11.61v-9.43a.67.67,0,0,1,.67-.68h3.28a.7.7,0,0,1,.67.68v23.56a.7.7,0,0,1-.67.68h-3.28a.67.67,0,0,1-.67-.68v-9.82H893.28v9.82a.67.67,0,0,1-.67.68h-3.32a.7.7,0,0,1-.67-.68Z"/><path class="cls-4" d="M916,861.13a.7.7,0,0,1,.68-.68H920a.7.7,0,0,1,.68.68v23.56a.7.7,0,0,1-.68.68h-3.31a.7.7,0,0,1-.68-.68Z"/><path class="cls-4" d="M927.13,861.13a.68.68,0,0,1,.68-.68h8.37a7.94,7.94,0,1,1,0,15.88h-4.45v8.36a.7.7,0,0,1-.67.68h-3.28a.68.68,0,0,1-.68-.68ZM935.89,872a3.67,3.67,0,0,0,3.67-3.71,3.55,3.55,0,0,0-3.67-3.45h-4.13V872Z"/><path class="cls-5" d="M275.7,87.29a.68.68,0,0,1,.68-.68h10.18a7.71,7.71,0,0,1,7.76,7.65,7.86,7.86,0,0,1-5.27,7.2l4.88,9a.67.67,0,0,1-.61,1h-3.74a.6.6,0,0,1-.56-.32l-4.74-9.43h-3.95v9.07a.7.7,0,0,1-.68.68h-3.27a.68.68,0,0,1-.68-.68ZM286.17,98a3.63,3.63,0,0,0,3.52-3.63,3.55,3.55,0,0,0-3.52-3.46h-5.81V98Z"/><path class="cls-5" d="M299.41,87.29a.67.67,0,0,1,.68-.68h14.48a.67.67,0,0,1,.68.68v2.92a.67.67,0,0,1-.68.67H304v5.84h8.79a.7.7,0,0,1,.68.68v2.95a.68.68,0,0,1-.68.68H304v6.23h10.53a.67.67,0,0,1,.68.67v2.92a.67.67,0,0,1-.68.68H300.09a.67.67,0,0,1-.68-.68Z"/><path class="cls-5" d="M323.69,90.88h-5.45a.68.68,0,0,1-.68-.67V87.29a.68.68,0,0,1,.68-.68H333.8a.67.67,0,0,1,.67.68v2.92a.67.67,0,0,1-.67.67h-5.45v20a.7.7,0,0,1-.68.68h-3.31a.7.7,0,0,1-.67-.68Z"/><path class="cls-5" d="M337.82,87.29a.7.7,0,0,1,.68-.68h3.38a.67.67,0,0,1,.67.68v14.56a5.18,5.18,0,1,0,10.36,0V87.29a.68.68,0,0,1,.68-.68H357a.7.7,0,0,1,.68.68V102.1a9.92,9.92,0,0,1-19.83,0Z"/><path class="cls-5" d="M363.77,87.29a.68.68,0,0,1,.68-.68h10.18a7.71,7.71,0,0,1,7.76,7.65,7.86,7.86,0,0,1-5.27,7.2l4.88,9a.67.67,0,0,1-.61,1h-3.74a.63.63,0,0,1-.57-.32l-4.73-9.43h-4v9.07a.7.7,0,0,1-.68.68h-3.27a.68.68,0,0,1-.68-.68ZM374.24,98a3.63,3.63,0,0,0,3.52-3.63,3.55,3.55,0,0,0-3.52-3.46h-5.81V98Z"/><path class="cls-5" d="M387.48,86.9a.66.66,0,0,1,.67-.64H389L403.85,102h0V87.29a.67.67,0,0,1,.68-.68h3.27a.7.7,0,0,1,.68.68v24a.67.67,0,0,1-.68.64H407L392.11,95.55h0v15.3a.67.67,0,0,1-.68.68h-3.24a.7.7,0,0,1-.67-.68Z"/><path class="cls-5" d="M433.86,86.26a12.82,12.82,0,1,1-12.78,12.85A12.79,12.79,0,0,1,433.86,86.26Zm0,21a8.19,8.19,0,1,0-8.15-8.15A8.21,8.21,0,0,0,433.86,107.26Z"/><path class="cls-5" d="M451.34,86.9a.67.67,0,0,1,.68-.64h.89L467.72,102h0V87.29a.68.68,0,0,1,.68-.68h3.27a.7.7,0,0,1,.68.68v24a.67.67,0,0,1-.68.64h-.85L456,95.55h0v15.3a.67.67,0,0,1-.67.68H452a.7.7,0,0,1-.68-.68Z"/><path class="cls-5" d="M486.73,87.29a.7.7,0,0,1,.67-.68h3.31a.7.7,0,0,1,.68.68v23.56a.7.7,0,0,1-.68.68H487.4a.7.7,0,0,1-.67-.68Z"/><path class="cls-5" d="M497.87,86.9a.66.66,0,0,1,.67-.64h.89L514.24,102h0V87.29a.67.67,0,0,1,.68-.68h3.27a.7.7,0,0,1,.68.68v24a.67.67,0,0,1-.68.64h-.85L502.5,95.55h0v15.3a.67.67,0,0,1-.68.68h-3.24a.7.7,0,0,1-.67-.68Z"/><path class="cls-5" d="M522.15,87.54a.63.63,0,0,1,.6-.93h3.63A.67.67,0,0,1,527,87l6.83,15.31h.25L540.91,87a.66.66,0,0,1,.6-.39h3.63a.63.63,0,0,1,.61.93l-11,24a.63.63,0,0,1-.6.39h-.36a.63.63,0,0,1-.6-.39Z"/><path class="cls-5" d="M549,87.29a.67.67,0,0,1,.67-.68h14.49a.68.68,0,0,1,.68.68v2.92a.68.68,0,0,1-.68.67H553.61v5.84h8.8a.7.7,0,0,1,.67.68v2.95a.68.68,0,0,1-.67.68h-8.8v6.23h10.54a.68.68,0,0,1,.68.67v2.92a.68.68,0,0,1-.68.68H549.66a.67.67,0,0,1-.67-.68Z"/><path class="cls-5" d="M568.46,108l1.28-2.2a.82.82,0,0,1,1.21-.25c.18.1,3.06,2.2,5.38,2.2a3,3,0,0,0,3.24-2.74c0-1.81-1.53-3.06-4.53-4.27-3.34-1.35-6.69-3.49-6.69-7.69,0-3.17,2.35-6.83,8-6.83a12.57,12.57,0,0,1,7.12,2.38.89.89,0,0,1,.22,1.18l-1.36,2a.92.92,0,0,1-1.24.43c-.29-.18-3-2-5-2S573,91.67,573,92.81c0,1.67,1.31,2.81,4.2,4,3.45,1.39,7.44,3.46,7.44,8,0,3.66-3.17,7-8.19,7a11.41,11.41,0,0,1-7.83-2.78C568.32,108.79,568.14,108.61,568.46,108Z"/><path class="cls-5" d="M592.56,90.88h-5.45a.67.67,0,0,1-.67-.67V87.29a.67.67,0,0,1,.67-.68h15.56a.68.68,0,0,1,.68.68v2.92a.68.68,0,0,1-.68.67h-5.45v20a.7.7,0,0,1-.67.68h-3.31a.7.7,0,0,1-.68-.68Z"/><path class="cls-5" d="M609.22,86.79a.6.6,0,0,1,.64-.53h.57a.64.64,0,0,1,.6.35l7.84,16.8h.1l7.84-16.8a.6.6,0,0,1,.6-.35H628a.59.59,0,0,1,.64.53l4.2,23.92a.62.62,0,0,1-.64.82h-3.24a.76.76,0,0,1-.67-.53l-2.11-13.5h-.1l-6.23,14a.61.61,0,0,1-.61.39h-.64a.63.63,0,0,1-.6-.39l-6.3-14h-.11L609.5,111a.68.68,0,0,1-.64.53h-3.2a.66.66,0,0,1-.68-.82Z"/><path class="cls-5" d="M637.7,87.29a.67.67,0,0,1,.67-.68h14.49a.68.68,0,0,1,.68.68v2.92a.68.68,0,0,1-.68.67H642.33v5.84h8.79a.7.7,0,0,1,.68.68v2.95a.68.68,0,0,1-.68.68h-8.79v6.23h10.53a.68.68,0,0,1,.68.67v2.92a.68.68,0,0,1-.68.68H638.37a.67.67,0,0,1-.67-.68Z"/><path class="cls-5" d="M658.63,86.9a.67.67,0,0,1,.68-.64h.89L675,102h0V87.29a.68.68,0,0,1,.68-.68H679a.7.7,0,0,1,.68.68v24a.67.67,0,0,1-.68.64h-.85L663.26,95.55h0v15.3a.67.67,0,0,1-.67.68h-3.24a.7.7,0,0,1-.68-.68Z"/><path class="cls-5" d="M689.49,90.88h-5.44a.68.68,0,0,1-.68-.67V87.29a.68.68,0,0,1,.68-.68H699.6a.67.67,0,0,1,.68.68v2.92a.67.67,0,0,1-.68.67h-5.44v20a.7.7,0,0,1-.68.68h-3.31a.7.7,0,0,1-.68-.68Z"/><rect class="cls-2" x="462.95" y="299.31" width="50.07" height="411.98" rx="2.72"/><rect class="cls-2" x="524.26" y="299.31" width="50.07" height="411.98" rx="2.72"/><rect class="cls-2" x="401.34" y="299.31" width="50.07" height="411.98" rx="2.72"/><rect class="cls-2" x="381.88" y="262.41" width="212.22" height="31.38" rx="3.6"/><path class="cls-2" d="M600.53,256.9a123.74,123.74,0,0,0,11.64-52.54H363.81a123.6,123.6,0,0,0,11.64,52.54Z"/><rect class="cls-2" x="381.88" y="716.8" width="212.22" height="31.38" rx="3.6" transform="translate(975.97 1464.97) rotate(180)"/><path class="cls-2" d="M375.45,753.69a123.6,123.6,0,0,0-11.64,52.54H612.17a123.74,123.74,0,0,0-11.64-52.54Z"/><rect class="cls-2" x="802" y="299.31" width="50.07" height="411.98" rx="2.72"/><rect class="cls-2" x="863.31" y="299.31" width="50.07" height="411.98" rx="2.72"/><rect class="cls-2" x="740.38" y="299.31" width="50.07" height="411.98" rx="2.72"/><rect class="cls-2" x="720.92" y="262.41" width="212.22" height="31.38" rx="3.6"/><path class="cls-2" d="M939.57,256.9a123.6,123.6,0,0,0,11.64-52.54H702.85a123.74,123.74,0,0,0,11.64,52.54Z"/><rect class="cls-2" x="720.92" y="716.8" width="212.22" height="31.38" rx="3.6" transform="translate(1654.07 1464.97) rotate(180)"/><path class="cls-2" d="M714.49,753.69a123.74,123.74,0,0,0-11.64,52.54H951.21a123.6,123.6,0,0,0-11.64-52.54Z"/></g></g></svg>